<svg version="1.1" xmlns="http://www.w3.org/2000/svg" xmlns:xlink="http://www.w3.org/1999/xlink" width="204.06935" height="305.19211" viewBox="0,0,204.06935,305.19211"><g transform="translate(-220.46533,-82.562)"><g data-paper-data="{&quot;isPaintingLayer&quot;:true}" fill-rule="nonzero" stroke-linecap="butt" stroke-linejoin="miter" stroke-miterlimit="10" stroke-dasharray="" stroke-dashoffset="0" style="mix-blend-mode: normal"><g stroke="none" stroke-width="0"><path d="M263.71297,308.16985v-14.69127h11.65149v14.69127z" fill="#af4a05"/><path d="M307.2078,315.1822l-24.12133,17.77135l-5.43014,-7.37041l24.12134,-17.77134z" fill="#af4a05"/><path d="M246.80684,380.11197l21.70035,-20.65803l6.31218,6.63067l-21.70035,20.65803z" fill="#af4a05"/><path d="M250.11306,369.47236v-65.19285h33.01255v65.19285z" fill="#ed731a"/><path d="M258.43555,307.05368v-14.69126h11.65149v14.69126z" fill="#ed731a"/><path d="M279.80669,337.93693l28.60242,-8.91969l2.72546,8.73963l-28.60242,8.91969z" fill="#ed731a"/><path d="M282.84593,387.75411l-21.16516,-21.20603l6.47962,-6.46713l21.16515,21.20603z" fill="#ed731a"/><path d="M271.47412,337.56948v-25.24489h7.76766v25.24489z" fill="#ffffff"/></g><g stroke="none" stroke-width="0.5"><path d="M305.23023,308.39425c-0.01018,-0.17419 -0.02605,-0.34871 -0.04829,-0.52357c-0.3304,-2.88545 0.29381,-5.65637 -0.01159,-8.5757c0.58136,-2.60187 0.1546,-5.62169 0.5835,-8.43447c-0.25511,-2.91766 -0.47726,-5.76049 0.74056,-8.56147c0.77813,-2.52767 7.50952,-0.89343 9.89684,-0.69245c3.4797,0.29338 6.97124,0.96602 10.26041,1.9589c1.5708,0.47455 6.95224,1.02138 7.51422,2.45986c0.19972,0.51123 -0.25841,1.48776 -0.20742,2.0819c-0.21108,2.84132 -1.56966,5.60332 -2.10859,8.4158c-0.55333,2.76915 -0.93971,5.64849 -1.47984,8.46707c-0.54991,2.83819 0.08093,5.76218 -0.25388,8.58171c-0.34058,2.86125 -0.17043,5.73158 -0.45992,8.59995c-0.28434,2.81735 -0.19114,5.75468 -0.09409,8.58332c0.0172,0.50111 0.28092,2.25877 -0.2186,2.61859c-0.16312,0.11751 -1.35476,0.09674 -1.62347,0.12542c-1.98684,0.21208 -3.97904,0.18463 -5.97743,0.36292c-3.35778,0.29955 -6.97138,0.82798 -10.41233,0.79271c-3.52906,-0.03759 -6.93802,0.23844 -10.46798,0.13484c-0.95188,-0.04148 -3.5971,0.02632 -3.98237,-0.99631c-0.09418,-0.24996 0.40976,-1.02838 0.51875,-1.28447c0.55088,-1.29461 0.7305,-2.61583 1.31189,-3.91036c1.2142,-2.67591 1.95885,-5.47592 2.53219,-8.29313c0.64559,-2.78886 1.70907,-5.59944 2.84428,-8.28227c0.49658,-1.16642 0.84154,-2.39034 1.14315,-3.62883zM304.7376,310.85856c-0.10487,0.32334 -0.21726,0.64397 -0.3392,0.9611c-0.06326,0.14414 -0.12165,0.28974 -0.17506,0.43659c-0.00457,0.01093 -0.00916,0.02185 -0.01375,0.03278c-1.1276,2.66458 -2.18308,5.4503 -2.82437,8.21971c-0.57796,2.8411 -1.33134,5.66565 -2.55585,8.36427c-0.52252,1.13835 -0.72117,2.3662 -1.1469,3.50572c-0.08996,0.2408 -0.74691,1.23174 -0.67454,1.42469c0.28005,0.74674 2.84526,0.67765 3.52682,0.70737c3.52509,0.10334 6.92687,-0.16998 10.45203,-0.13521c3.42058,0.03505 7.01506,-0.49264 10.35207,-0.79034c1.81836,-0.16222 3.67003,-0.07805 5.46756,-0.3002c0.29585,-0.03656 1.71447,0.00264 1.86367,-0.09294c0.26669,-0.17084 0.05335,-1.97758 0.04247,-2.2942c-0.09755,-2.84322 -0.1902,-5.79709 0.0956,-8.62877c0.28969,-2.87032 0.12136,-5.74238 0.46058,-8.60588c0.33579,-2.82777 -0.28755,-5.75797 0.25765,-8.60598c0.54489,-2.81563 0.95544,-5.69878 1.47995,-8.46764c0.54768,-2.78404 1.90837,-5.53536 2.10236,-8.34859c-0.04815,-0.54469 0.40011,-1.51328 0.2308,-1.9604c-0.21063,-0.55626 -1.41862,-0.69367 -1.95752,-0.82127c-1.75839,-0.41639 -3.5353,-0.85859 -5.25278,-1.37745c-3.24889,-0.98234 -6.70122,-1.64595 -10.1388,-1.93578c-2.08222,-0.17582 -8.71106,-1.71859 -9.36738,0.40355c-1.20228,2.77495 -0.95546,5.5643 -0.71911,8.45291c-0.41568,2.8314 -0.09768,5.81241 -0.58368,8.4391c0.24127,2.10579 -0.03482,4.12633 -0.07998,6.17195c-0.3287,1.25843 -0.30035,2.58827 0.13344,3.88286c-0.01526,0.26293 -0.04059,0.52548 -0.07342,0.78756c-0.23685,0.31513 -0.44719,0.64258 -0.62982,0.97982c0.02371,-0.13494 0.04622,-0.27006 0.06718,-0.40535z" fill="#000000"/><path d="M304.53251,311.18966c0.17721,-0.33918 0.38094,-0.67295 0.61272,-0.99062c0.0286,-0.26242 0.04893,-0.52932 0.05995,-0.79239c-0.45456,-1.28978 -0.50089,-2.6389 -0.19246,-3.90078c0.01228,-2.04591 0.27035,-4.08551 -0.00475,-6.1885c0.44373,-2.63173 0.09065,-5.61533 0.46077,-8.45101c-0.28278,-2.8858 -0.568,-5.67398 0.58958,-8.46173c0.62215,-2.12907 7.28946,-0.65955 9.37432,-0.50632c3.44195,0.25256 6.92041,0.88125 10.1848,1.8283c1.72568,0.5002 3.51709,0.92604 5.28204,1.32333c0.54089,0.12175 1.75378,0.24747 1.97335,0.80142c0.17648,0.44523 -0.25464,1.41947 -0.19772,1.96359c-0.14874,2.81509 -1.45766,5.58631 -1.96054,8.37603c-0.47994,2.77429 -0.83315,5.67708 -1.33274,8.49836c-0.49937,2.85367 0.17006,5.80405 -0.12023,8.6352c-0.29316,2.86692 -0.09194,5.75274 -0.33545,8.62594c-0.24024,2.83454 -0.10954,5.79261 0.03371,8.63454c0.01596,0.31646 0.25651,2.12151 -0.00741,2.29523c-0.14766,0.09718 -1.56921,0.07427 -1.86445,0.11404c-1.7938,0.24161 -3.65465,0.17967 -5.47025,0.36159c-3.33194,0.33384 -6.93426,0.90137 -10.35511,0.90338c-3.52541,0.00343 -6.93733,0.31045 -10.46376,0.24531c-0.68198,-0.02234 -3.25042,0.0727 -3.54245,-0.67095c-0.07546,-0.19216 0.56513,-1.1903 0.65121,-1.43205c0.40736,-1.14403 0.58453,-2.37477 1.0887,-3.51869c1.18101,-2.71166 1.88198,-5.54838 2.41421,-8.3955c0.59672,-2.77611 1.59472,-5.58747 2.67936,-8.26403c0.00441,-0.01098 0.00877,-0.02205 0.01316,-0.03303c0.05105,-0.14743 0.10635,-0.29515 0.16728,-0.43997c0.11683,-0.31843 0.22255,-0.64407 0.32221,-0.96852c-0.01878,0.1355 -0.03848,0.27263 -0.06001,0.40781z" data-paper-data="{&quot;noHover&quot;:false,&quot;origItem&quot;:[&quot;Path&quot;,{&quot;applyMatrix&quot;:true,&quot;segments&quot;:[[[206.22528,311.10278],[-0.076,0.14772],[-0.23313,0.33435]],[[205.50647,312.08719],[0.2466,-0.3214],[-0.11945,0.1434]],[[205.16023,312.52721],[0.11133,-0.14989],[-0.00884,0.01095]],[[205.13368,312.56003],[0.00886,-0.01093],[-2.16874,2.66525]],[[199.05819,321.00527],[1.75534,-2.95141],[-1.72565,3.05512]],[[193.17492,329.70773],[2.27399,-2.67111],[-0.96485,1.12469]],[[190.63795,333.32935],[0.87437,-1.1591],[-0.18477,0.24494]],[[189.41105,334.72993],[0.0123,-0.24563],[-0.0476,0.95059]],[[192.43121,336.74476],[-0.62818,-0.26689],[3.26993,1.32272]],[[202.31051,340.1611],[-3.29854,-1.24425],[3.20014,1.20884]],[[212.36854,342.79328],[-3.2601,-0.79933],[1.77645,0.43556]],[[217.63201,344.3177],[-1.78182,-0.35984],[0.29327,0.05923]],[[219.42221,344.84806],[-0.18001,0.05845],[0.32174,-0.10447]],[[220.41698,342.2361],[-0.12157,0.36618],[1.09168,-3.28836]],[[224.09815,332.39022],[-1.44715,3.14418],[1.46689,-3.18706]],[[228.11281,322.69526],[-1.51061,3.16233],[1.49251,-3.12261]],[[231.93678,312.93084],[-1.69774,3.07423],[1.68398,-3.03725]],[[236.85193,303.74244],[-1.64535,2.99067],[1.67345,-3.00014]],[[242.30248,294.90297],[-1.35319,3.15442],[0.18144,-0.64004]],[[243.33531,292.73749],[-0.02697,0.56971],[0.03356,-0.7088]],[[241.83741,291.12844],[0.45334,0.33021],[-1.47927,-1.07748]],[[237.47404,287.75677],[1.39817,1.18082],[-2.64453,-2.23467]],[[228.75106,282.07649],[3.11009,1.50633],[-1.88374,-0.91271]],[[219.77944,279.33794],[1.50008,-2.20526],[-2.28487,2.76608]],[[215.58548,288.76945],[0.98011,-3.38775],[-1.5691,3.09947]],[[211.52455,298.23142],[1.54999,-2.84108],[-0.64969,2.49322]],[[208.8806,305.26997],[0.89383,-2.32645],[-0.83268,1.3284]],[[207.38995,309.7608],[0.13113,-1.63031],[-0.12377,0.2958]],[[206.99317,310.63735],[0.13993,-0.28883],[-0.35376,0.27984]],[[205.99345,311.54388],[0.31201,-0.32368],[0.07845,-0.14639]]],&quot;closed&quot;:true}]}" fill="#4f4200"/></g><path d="M313.62972,85.1387c0,0 9.08928,52.42006 37.63148,74.1492c0,0 -4.06399,2.28784 -10.77142,-0.68504c0,0 11.13994,31.38122 34.09603,42.67863c0,0 -10.24011,2.51331 -20.2185,0.85906c0,0 16.77676,22.56475 41.35115,28.84839c0,0 -13.28365,5.31327 -22.57559,5.54093c0,0 21.96459,19.23593 42.85436,25.91155c0,0 -37.60775,30.83398 -103.35223,31.40634c-0.38863,-0.01916 -0.7805,-0.01967 -1.17377,-0.00083c-0.05064,0.00244 -0.10131,0.00517 -0.15199,0.00824c-24.58058,0.06095 -53.04082,-4.11679 -84.89417,-15.67203c0,0 20.68696,-8.41385 39.41818,-23.91434c0,0 -25.73286,-7.15175 -28.01849,-11.7223c0,0 30.53053,-15.70433 34.32842,-25.87305c0,0 -15.02816,1.6381 -19.73247,0.74063c0,0 29.28574,-27.71396 35.45449,-55.39719c0,0 -13.06514,2.18193 -16.91144,0.04653c-0.00096,0.00023 21.86549,-20.76808 42.66591,-76.9247z" fill="#13600f" stroke="#000000" stroke-width="0.25"/><path d="M304.87811,161.10652c-3.13643,1.62491 -6.92929,2.33305 -10.624,2.33335c-0.22624,0.00069 -8.15406,0.23969 -8.07261,-0.04678c-0.45295,1.59349 -1.71547,3.36853 -4.00549,3.41135c-1.31665,0.02156 -2.41807,-0.38329 -3.59716,-0.80077c-1.14433,-0.40803 -3.42034,0.69639 -4.54363,0.91641c-1.66786,0.32967 -2.99044,-0.16656 -3.86763,-1.16795c-3.05403,0.50709 -6.20353,-0.35985 -5.94318,-3.81765c0.30086,-4.04866 4.06803,-6.08543 8.63116,-4.52096c1.03682,0.35644 1.21005,1.58288 0.55679,2.26245c0.4709,0.22116 0.89439,0.53278 1.23576,0.93995c0.00937,0.01141 0.01626,0.02171 0.02851,0.03242c1.96296,-0.49378 3.98733,-0.83041 5.87103,0.06018c1.95952,0.92682 0.92738,-0.42555 3.35231,-1.02072c2.515,-0.61727 5.16107,0.75026 7.556,1.10151c4.29562,0.62935 8.8568,0.69828 12.98713,-0.47312c0.57948,-0.1628 0.93749,0.53077 0.435,0.79033z" fill="#fdfdfd" stroke="#000000" stroke-width="0.25"/><path d="M355.22089,160.0237c-0.55582,0.49714 -1.12035,0.89875 -1.82982,1.24338c-1.88653,0.91286 -3.63256,0.512 -4.72829,-0.4332c-3.50568,-0.0538 -7.30445,0.31134 -10.45544,-0.67434c-3.41804,-1.06839 -6.75579,-3.57279 -10.23774,-4.19192c-2.82291,-0.50327 -5.38342,-0.28611 -8.21566,-0.42809c-4.7676,-0.24018 -4.35059,-3.99861 -10.68848,-2.27425c-0.6819,0.18536 -1.18806,-0.68861 -0.5283,-0.95764c2.65239,-1.07685 4.22711,-1.45305 7.06546,-0.63226c3.85513,1.11361 6.12078,0.35618 9.85705,0.28655c3.29212,-0.06258 6.16733,0.27193 9.19937,1.41534c5.56603,2.09717 11.6053,0.68773 17.52059,1.06436c3.3783,0.21702 5.56072,3.30917 3.04125,5.58208z" fill="#fdfdfd" stroke="#000000" stroke-width="0.25"/><path d="M316.93717,134.71428c-3.22673,2.18517 -6.33797,0.78702 -9.99094,-0.12688c-2.82095,-0.70425 -4.80933,1.16411 -7.26438,1.78553c-1.90625,0.48328 -5.31787,0.60176 -6.29132,2.21332c-1.10435,1.82533 -4.49258,1.75299 -5.80814,0.31596c-0.58511,-0.27109 -1.04341,-0.71556 -1.18572,-1.40721c-0.23926,-1.17854 -0.28308,-1.8978 0.04851,-3.07078c0.34516,-1.22172 1.37391,-1.75867 2.46709,-1.78623c0.78402,-0.35779 1.73955,-0.36784 2.59181,-0.10832c2.41936,-1.1636 5.38199,-1.64654 8.02281,-0.98119c2.52937,0.63445 4.94023,0.04358 7.44042,0.56353c3.43251,0.71267 5.77994,2.15434 9.60833,1.94215c0.38268,-0.0211 0.68434,0.44038 0.36149,0.66014z" fill="#fdfdfd" stroke="#000000" stroke-width="0.25"/><path d="M317.22992,85.47776c-0.30906,1.06292 -0.61443,2.07009 -0.88056,3.05307c0.1926,0.26805 0.29806,0.60631 0.26483,1.02232c-0.33405,4.33013 1.5584,7.87559 2.11114,12.09861c0.30631,2.35135 -4.11564,2.80518 -4.90077,0.63219c-0.08989,-0.70538 -0.30404,-0.98098 -0.63359,-0.85127c-0.29024,0.26916 -0.56614,0.56908 -0.80439,0.93515c-0.02067,-0.01378 -0.04422,-0.02684 -0.06653,-0.03937c-0.0994,0.14263 -0.20128,0.29274 -0.30925,0.46919c-0.865,0.74011 -1.99911,0.77855 -2.89292,0.41357c-0.43635,1.38976 -1.21837,2.60989 -3.06633,3.30765c-1.05895,0.39957 -2.48537,-0.16971 -2.13796,-1.26774c1.02147,-3.23075 0.45572,-6.37182 1.9281,-9.571c1.77303,-3.85819 4.62291,-7.27294 5.91052,-11.29473c0.92491,-2.87973 6.32182,-1.81723 5.47772,1.09236z" fill="#fdfdfd" stroke="#000000" stroke-width="0.25"/><path d="M376.13712,202.70952c-5.05996,0.79979 -10.08557,1.71966 -15.26949,1.27064c-2.05444,-0.17865 -9.88386,-2.47517 -10.9497,-1.32932c-4.22959,4.54424 -9.9575,1.62141 -15.71006,2.49694c-1.28946,0.19652 -2.44469,-0.05802 -3.20797,-0.99313c-0.15868,-0.19496 -0.27179,-0.3737 -0.40577,-0.56103c-1.80426,0.25605 -3.99043,0.69579 -5.38462,0.07748c-2.56405,-1.13661 -1.54845,-1.15366 -4.43246,0.43071c-2.96518,1.63087 -6.24686,0.84518 -9.10885,-0.3271c-0.54733,-0.22467 -0.36747,-1.05195 0.29175,-0.99869c5.28412,0.43472 6.05054,-0.44998 10.83077,-2.90335c0.32634,-0.17006 0.82174,-0.26852 1.20043,-0.16012c2.5331,0.71921 5.42011,-0.64484 8.08774,-0.79149c0.88586,-0.04949 1.98052,0.39987 2.39326,1.06028c0.05561,0.10973 0.13606,0.20737 0.19849,0.31287c4.59346,-0.85408 8.76871,-1.41788 12.984,-2.85175c2.34116,-0.79653 5.71016,0.355 7.83885,1.09292c4.83951,1.68427 10.59628,0.13254 15.59366,-1.22597c0.61618,-0.52053 1.47422,-0.86993 2.61213,-0.87503l1.23474,-0.00573c4.26331,-0.01818 5.66138,5.57733 1.20306,6.28086z" fill="#fdfdfd" stroke="#000000" stroke-width="0.25"/><path d="M293.88104,213.90593c-1.08018,0.79121 -2.30363,1.88834 -3.86894,2.00948c-2.27398,0.17855 -6.49755,-1.31331 -7.93985,0.53842c-2.02522,2.59543 -7.48614,2.30863 -10.75358,3.07804c-3.53533,0.83344 -7.41425,0.59449 -11.05036,0.84173c-3.18052,0.21426 -7.85061,1.81803 -10.79004,0.52764c-1.47192,-0.64551 -2.16218,-2.02779 -1.81462,-3.34608c0.02801,-0.11225 0.05916,-0.22445 0.08907,-0.33718c0.42973,-1.63147 2.12605,-2.41027 3.97999,-2.62452c7.08933,-0.82748 15.13857,1.57959 21.94867,0.10862c0.33303,-0.07146 4.70687,-0.42523 4.70552,-0.42318c0.9563,-1.09411 1.72351,-1.67569 3.3858,-2.08368c4.18017,-1.02599 6.50072,2.74344 10.79818,0.406c0.9679,-0.52632 2.19918,0.65636 1.31017,1.3047z" fill="#fdfdfd" stroke="#000000" stroke-width="0.25"/><path d="M326.38151,181.93623c-2.20066,0.47158 -4.66418,1.72313 -6.95067,1.76422c-0.99539,0.0181 -3.83327,-1.38031 -4.81096,-0.6888c-2.4636,1.74424 -5.45463,3.43886 -8.94118,3.1653c-4.96685,-0.39177 -8.33086,-3.30359 -13.35361,-1.45304c-2.09737,0.77525 -7.10606,0.03645 -7.5934,0.78753c-0.85923,1.32048 -2.75488,1.99909 -4.52072,1.65279c-0.6751,0.27281 -1.35211,0.54607 -2.02473,0.81997c-0.0157,-0.003 -0.02786,-0.00773 -0.04251,-0.01356c-0.52499,1.76539 -3.63414,1.96642 -4.4658,0.10988c-1.70786,-3.80668 0.846,-6.92515 5.19999,-7.43086c1.75083,-1.94459 4.32452,-3.38082 7.44239,-1.99886c1.62509,0.71929 2.68975,3.21269 5.15598,1.50721c0.95168,-0.65685 2.46486,-1.42839 3.7822,-1.45096c3.02354,-0.05492 4.68034,2.00952 7.15103,2.94712c5.54868,2.104 7.75875,-0.1358 11.76113,-1.49515c0.75094,-0.25371 2.18705,-0.12209 2.94697,0.22778c2.88106,1.32784 5.95024,-0.0261 8.94241,-0.12129c1.16504,-0.0366 1.46251,1.42496 0.32145,1.67075z" fill="#fdfdfd" stroke="#000000" stroke-width="0.25"/><path d="M397.11722,233.65739c-3.2775,1.93972 -5.76681,2.71349 -8.91416,2.05592c-2.95079,1.78499 -6.46355,2.55718 -10.30132,2.93276c-5.80317,0.56749 -11.0987,1.75498 -16.76875,2.66509c-1.56749,0.25277 -3.4671,-0.03671 -4.79781,-0.79313c-2.74029,-1.56032 -3.49088,0.9956 -5.83384,1.34874c-2.9237,0.44083 -4.71513,-0.05599 -6.33641,-1.42398c-3.89817,1.00646 -8.2843,1.21759 -12.18483,1.62142c-3.37137,0.34935 -4.79091,-0.70828 -5.78233,-3.24707c-0.17324,-0.44415 0.51543,-0.77427 0.92206,-0.46879c2.89743,2.17808 13.93625,-1.81908 16.38525,-3.43722c1.09601,-0.72483 3.08331,-0.4783 4.02021,0.31738c1.2387,1.05405 5.60263,-1.94918 7.35213,-1.98014c2.96406,-0.05489 4.37752,1.96904 7.31815,1.11619c6.42607,-1.86338 17.34725,-0.9649 21.81415,-5.32748c1.32644,-1.29291 3.61375,-1.39763 5.35746,-0.71943c1.19277,0.18279 2.15491,-0.15875 2.89074,-1.02995c4.64431,-2.93837 9.64904,3.53271 4.85926,6.36969z" fill="#fdfdfd" stroke="#000000" stroke-width="0.25"/><path d="M316.45347,252.96015c-2.12103,1.77925 -3.60839,2.24628 -6.57417,1.63155c-4.59303,-0.95306 -5.03677,0.44794 -8.82599,1.43538c-3.51982,0.91617 -7.31364,1.30924 -10.96387,1.68675c-4.64533,0.47953 -12.48735,-3.71433 -16.16583,-0.74054c-1.4141,1.14392 -3.27758,1.08548 -4.79005,0.13376c-3.20192,-2.0168 -7.92098,-2.73415 -11.7775,-3.38731c-2.00683,-0.34028 -5.33622,-2.03363 -7.23777,-1.98162c-5.71208,0.15272 -8.31813,-4.13698 -13.37809,-4.42622c-2.31875,-0.13349 -4.7298,-1.47471 -4.60895,-3.62759c0.1146,-2.05539 0.55899,-3.36572 2.77135,-4.51021c2.58411,-1.33599 5.13594,-0.22722 6.2965,1.48347c1.34521,0.38357 2.60422,0.93738 3.70857,1.79734c2.94472,2.29928 5.8405,1.87643 8.89491,3.23026c4.15957,1.84346 6.79999,5.88651 12.20124,5.4965c1.77309,-0.12672 3.18376,-0.0334 4.57406,0.37937c2.05053,-1.86392 4.30158,-3.00248 7.9033,-3.261c4.64958,-0.3332 9.54044,3.76757 14.31272,4.3502c2.50427,0.30473 6.68715,1.26935 8.88163,-0.24518c0.71798,-0.49324 1.49788,-1.28358 2.52034,-1.35632c4.08239,-0.28567 7.95047,2.91542 11.97272,1.53322c0.26705,-0.09211 0.47215,0.22171 0.2849,0.37819z" fill="#fdfdfd" stroke="#000000" stroke-width="0.25"/><path d="M424.40652,261.65585c0.19381,5.66488 -8.59739,5.98641 -10.74997,10.58209c-1.24544,2.66453 -5.01705,5.00141 -8.53732,3.11929c-3.21977,-1.72196 -7.41195,2.60403 -9.93318,3.64268c-2.6162,1.08167 -7.0495,1.75936 -9.27805,2.98836c-6.47697,3.57497 -13.62398,5.07807 -21.08957,6.7639c-14.83482,3.34908 -30.09686,8.98845 -45.49397,9.78367c-4.14512,0.74008 -7.36425,-0.36725 -8.30097,-0.0877c-1.7277,0.51562 -4.24028,-0.25262 -6.95318,-1.28881c-2.53995,0.00896 -4.48045,-0.54669 -6.92538,-1.29023c-4.45073,-1.35043 -8.77682,1.9888 -13.04432,-1.29161c-3.45845,-2.65815 -8.16462,1.09911 -12.38591,-1.87391c-3.3854,-2.38305 -9.05013,-0.42377 -13.16065,-1.57666c-2.3915,-0.67428 -5.98365,-3.09483 -8.64581,-2.53484c-2.1174,0.44514 -4.09106,-0.16803 -5.3623,-1.59795c-5.32157,-0.18219 -11.24691,-0.74398 -16.00493,-1.99244c-4.30031,-1.12945 -5.73173,-4.28597 -7.06042,-5.22025c-2.15243,-1.51095 -0.03373,-4.10191 2.45044,-3.72627c2.85039,0.4297 4.72053,1.94224 7.89963,1.7986c2.67363,-0.12155 4.97566,-0.03109 7.51937,0.80033c4.66097,1.52076 7.64407,0.30019 10.73706,2.00356c5.03276,-0.21818 10.24574,1.71202 14.61529,3.60762c3.19277,1.38414 6.69667,0.73664 9.85855,2.24232c2.95443,1.40322 4.80644,-0.23204 7.80623,-0.28627c2.32574,-0.04216 4.39831,1.12338 6.09023,2.28125c1.23405,0.84354 6.75322,-0.80752 8.49083,-0.57597c6.85594,0.91603 13.53001,0.05168 20.39237,1.47253c5.04943,1.0484 9.65669,-0.73358 14.62522,-0.98484c5.54173,-0.28227 10.51646,-0.92062 15.8661,-2.1745c9.4304,-2.21176 22.30236,-2.21021 30.72558,-6.57989c7.10802,-3.68787 16.46306,-13.63798 25.9068,-14.08795c0.82852,-1.17842 1.84879,-2.26595 3.22778,-3.27702c1.11182,-0.81611 7.68556,-4.41482 7.25742,-3.0742c0.52652,-0.50881 1.18552,-0.93187 1.95697,-1.20947c-0.15061,0.04211 -0.29808,0.08429 -0.44524,0.12728c3.38486,-1.67645 7.82814,0.2353 7.94529,3.51733z" fill="#fdfdfd" stroke="#000000" stroke-width="0.25"/></g></g></svg>