<svg version="1.1" xmlns="http://www.w3.org/2000/svg" xmlns:xlink="http://www.w3.org/1999/xlink" width="190.1925" height="299.39502" viewBox="0,0,190.1925,299.39502"><g transform="translate(-146.23992,-91.14273)"><g data-paper-data="{&quot;isPaintingLayer&quot;:true}" fill-rule="nonzero" stroke-linecap="butt" stroke-linejoin="miter" stroke-miterlimit="10" stroke-dasharray="" stroke-dashoffset="0" style="mix-blend-mode: normal"><g data-paper-data="{&quot;index&quot;:null}" stroke="none" stroke-width="0"><path d="M288.14419,310.95349v-14.69127h11.65149v14.69127z" fill="#af4a05"/><path d="M261.73098,310.59542l24.12134,17.77134l-5.43014,7.37041l-24.12133,-17.77135z" fill="#af4a05"/><path d="M310.38963,389.52629l-21.70035,-20.65803l6.31218,-6.63067l21.70035,20.65803z" fill="#af4a05"/><path d="M280.38304,372.25601v-65.19285h33.01255v65.19285z" fill="#ed731a"/><path d="M293.42161,309.83733v-14.69126h11.65149v14.69126z" fill="#ed731a"/><path d="M280.9765,349.46021l-28.60242,-8.91969l2.72546,-8.73963l28.60242,8.91969z" fill="#ed731a"/><path d="M274.18311,384.07063l21.16515,-21.20603l6.47962,6.46713l-21.16516,21.20603z" fill="#ed731a"/><path d="M284.26687,340.35313v-25.24489h7.76766v25.24489z" fill="#ffffff"/></g><g data-paper-data="{&quot;index&quot;:null}" fill="#000000" stroke="none" stroke-width="0.5"><path d="M257.26978,307.93012c0.30161,1.20165 0.64657,2.38916 1.14315,3.52088c1.13521,2.60303 2.19869,5.33 2.84428,8.0359c0.57334,2.7334 1.31799,5.45012 2.53219,8.04643c0.58139,1.25602 0.76101,2.53794 1.31189,3.79403c0.10899,0.24847 0.61293,1.00373 0.51875,1.24626c-0.38527,0.99221 -3.03049,0.92643 -3.98237,0.96667c-3.52996,0.10052 -6.93892,-0.1673 -10.46798,-0.13083c-3.44095,0.03422 -7.05455,-0.47849 -10.41233,-0.76913c-1.99839,-0.17298 -3.99059,-0.14635 -5.97743,-0.35212c-0.26871,-0.02783 -1.46035,-0.00767 -1.62347,-0.12169c-0.49952,-0.34911 -0.2358,-2.05449 -0.2186,-2.54069c0.09705,-2.7445 0.19025,-5.59445 -0.09409,-8.32799c-0.28949,-2.78304 -0.11934,-5.56798 -0.45992,-8.34412c-0.33481,-2.73566 0.29603,-5.57267 -0.25388,-8.32643c-0.54013,-2.73474 -0.92651,-5.52843 -1.47984,-8.2152c-0.53893,-2.72881 -1.89751,-5.40865 -2.10859,-8.16545c0.05099,-0.57647 -0.40714,-1.52395 -0.20742,-2.01997c0.56198,-1.39569 5.94342,-1.92626 7.51422,-2.38669c3.28917,-0.96334 6.78071,-1.61597 10.26041,-1.90063c2.38732,-0.195 9.11871,-1.78062 9.89684,0.67186c1.21782,2.71766 0.99567,5.47592 0.74056,8.30679c0.4289,2.72911 0.00214,5.6591 0.5835,8.18357c-0.3054,2.83248 0.31881,5.52097 -0.01159,8.32059c-0.02224,0.16966 -0.03811,0.33899 -0.04829,0.508zM257.76238,310.32115c0.02096,0.13126 0.04347,0.26236 0.06718,0.39329c-0.18263,-0.32721 -0.39297,-0.64492 -0.62982,-0.95067c-0.03283,-0.25428 -0.05816,-0.50902 -0.07342,-0.76413c0.43379,-1.25608 0.46214,-2.54636 0.13344,-3.76736c-0.04516,-1.98477 -0.32125,-3.9452 -0.07998,-5.98835c-0.486,-2.54855 -0.168,-5.44089 -0.58368,-8.18806c0.23635,-2.80269 0.48317,-5.50906 -0.71911,-8.20146c-0.65632,-2.05901 -7.28516,-0.56213 -9.36738,-0.39154c-3.43758,0.2812 -6.88991,0.92508 -10.1388,1.8782c-1.71748,0.50342 -3.49439,0.93247 -5.25278,1.33647c-0.5389,0.12381 -1.74689,0.25713 -1.95752,0.79684c-0.16931,0.43381 0.27895,1.3736 0.2308,1.90208c0.19399,2.72954 1.55468,5.39902 2.10236,8.10024c0.52451,2.68649 0.93506,5.48388 1.47995,8.21575c0.5452,2.76329 -0.07814,5.60633 0.25765,8.34998c0.33922,2.77832 0.17089,5.56495 0.46058,8.34988c0.2858,2.74745 0.19315,5.61344 0.0956,8.37209c-0.01088,0.3072 -0.22422,2.0602 0.04247,2.22596c0.1492,0.09274 1.56782,0.0547 1.86367,0.09017c1.79753,0.21554 3.6492,0.13388 5.46756,0.29127c3.33701,0.28884 6.93149,0.80084 10.35207,0.76683c3.52516,-0.03373 6.92694,0.23146 10.45203,0.13119c0.68156,-0.02883 3.24677,0.0382 3.52682,-0.68633c0.07237,-0.18721 -0.58458,-1.14867 -0.67454,-1.38231c-0.42573,-1.10562 -0.62438,-2.29696 -1.1469,-3.40144c-1.22451,-2.61834 -1.97789,-5.35887 -2.55585,-8.11546c-0.64129,-2.68703 -1.69677,-5.38988 -2.82437,-7.9752c-0.00459,-0.0106 -0.00918,-0.0212 -0.01375,-0.0318c-0.05341,-0.14249 -0.1118,-0.28375 -0.17506,-0.4236c-0.12194,-0.3077 -0.23433,-0.61879 -0.3392,-0.93251z"/><path d="M257.96745,310.64238c-0.02153,-0.13116 -0.04123,-0.26421 -0.06001,-0.39568c0.09966,0.3148 0.20538,0.63076 0.32221,0.93971c0.06093,0.14051 0.11623,0.28384 0.16728,0.42688c0.00439,0.01065 0.00875,0.02139 0.01316,0.03204c1.08464,2.59694 2.08264,5.32468 2.67936,8.0182c0.53223,2.76242 1.2332,5.51476 2.41421,8.14575c0.50417,1.10989 0.68134,2.30403 1.0887,3.41402c0.08608,0.23456 0.72667,1.20301 0.65121,1.38946c-0.29203,0.72153 -2.86047,0.62932 -3.54245,0.65099c-3.52643,0.0632 -6.93835,-0.23468 -10.46376,-0.23801c-3.42085,-0.00195 -7.02317,-0.5526 -10.35511,-0.87651c-1.8156,-0.1765 -3.67645,-0.11641 -5.47025,-0.35083c-0.29524,-0.03859 -1.71679,-0.01636 -1.86445,-0.11065c-0.26392,-0.16855 -0.02337,-1.9199 -0.00741,-2.22695c0.14325,-2.75739 0.27395,-5.62747 0.03371,-8.37769c-0.24351,-2.78773 -0.04229,-5.5877 -0.33545,-8.36934c-0.29029,-2.74694 0.37914,-5.60955 -0.12023,-8.37833c-0.49959,-2.73736 -0.8528,-5.55379 -1.33274,-8.24556c-0.50288,-2.70674 -1.8118,-5.39552 -1.96054,-8.12687c0.05692,-0.52794 -0.3742,-1.47319 -0.19772,-1.90518c0.21957,-0.53747 1.43246,-0.65945 1.97335,-0.77758c1.76495,-0.38547 3.55636,-0.79864 5.28204,-1.28397c3.26439,-0.91887 6.74285,-1.52886 10.1848,-1.77391c2.08486,-0.14867 8.75217,-1.57448 9.37432,0.49126c1.15758,2.70482 0.87236,5.41006 0.58958,8.21002c0.37012,2.75132 0.01704,5.64617 0.46077,8.19961c-0.2751,2.04044 -0.01703,4.01936 -0.00475,6.00441c0.30843,1.22435 0.2621,2.53333 -0.19246,3.78475c0.01102,0.25525 0.03135,0.51421 0.05995,0.76882c0.23178,0.30822 0.43551,0.63206 0.61272,0.96115z" data-paper-data="{&quot;noHover&quot;:false,&quot;origItem&quot;:[&quot;Path&quot;,{&quot;applyMatrix&quot;:true,&quot;segments&quot;:[[[206.22528,311.10278],[-0.076,0.14772],[-0.23313,0.33435]],[[205.50647,312.08719],[0.2466,-0.3214],[-0.11945,0.1434]],[[205.16023,312.52721],[0.11133,-0.14989],[-0.00884,0.01095]],[[205.13368,312.56003],[0.00886,-0.01093],[-2.16874,2.66525]],[[199.05819,321.00527],[1.75534,-2.95141],[-1.72565,3.05512]],[[193.17492,329.70773],[2.27399,-2.67111],[-0.96485,1.12469]],[[190.63795,333.32935],[0.87437,-1.1591],[-0.18477,0.24494]],[[189.41105,334.72993],[0.0123,-0.24563],[-0.0476,0.95059]],[[192.43121,336.74476],[-0.62818,-0.26689],[3.26993,1.32272]],[[202.31051,340.1611],[-3.29854,-1.24425],[3.20014,1.20884]],[[212.36854,342.79328],[-3.2601,-0.79933],[1.77645,0.43556]],[[217.63201,344.3177],[-1.78182,-0.35984],[0.29327,0.05923]],[[219.42221,344.84806],[-0.18001,0.05845],[0.32174,-0.10447]],[[220.41698,342.2361],[-0.12157,0.36618],[1.09168,-3.28836]],[[224.09815,332.39022],[-1.44715,3.14418],[1.46689,-3.18706]],[[228.11281,322.69526],[-1.51061,3.16233],[1.49251,-3.12261]],[[231.93678,312.93084],[-1.69774,3.07423],[1.68398,-3.03725]],[[236.85193,303.74244],[-1.64535,2.99067],[1.67345,-3.00014]],[[242.30248,294.90297],[-1.35319,3.15442],[0.18144,-0.64004]],[[243.33531,292.73749],[-0.02697,0.56971],[0.03356,-0.7088]],[[241.83741,291.12844],[0.45334,0.33021],[-1.47927,-1.07748]],[[237.47404,287.75677],[1.39817,1.18082],[-2.64453,-2.23467]],[[228.75106,282.07649],[3.11009,1.50633],[-1.88374,-0.91271]],[[219.77944,279.33794],[1.50008,-2.20526],[-2.28487,2.76608]],[[215.58548,288.76945],[0.98011,-3.38775],[-1.5691,3.09947]],[[211.52455,298.23142],[1.54999,-2.84108],[-0.64969,2.49322]],[[208.8806,305.26997],[0.89383,-2.32645],[-0.83268,1.3284]],[[207.38995,309.7608],[0.13113,-1.63031],[-0.12377,0.2958]],[[206.99317,310.63735],[0.13993,-0.28883],[-0.35376,0.27984]],[[205.99345,311.54388],[0.31201,-0.32368],[0.07845,-0.14639]]],&quot;closed&quot;:true}]}"/></g><path d="M248.87033,91.31581c20.80042,54.48613 42.66687,74.63664 42.66591,74.63642c-3.8463,2.07188 -16.91144,-0.04515 -16.91144,-0.04515c6.16875,26.85973 35.45449,53.74928 35.45449,53.74928c-4.70431,0.87077 -19.73247,-0.71859 -19.73247,-0.71859c3.79789,9.86624 34.32842,25.10341 34.32842,25.10341c-2.28563,4.43459 -28.01849,11.3736 -28.01849,11.3736c18.73122,15.03939 39.41818,23.20296 39.41818,23.20296c-31.85335,11.2115 -60.31359,15.26497 -84.89417,15.20583c-0.05068,-0.00298 -0.10135,-0.00563 -0.15199,-0.008c-0.39327,-0.01828 -0.78514,-0.01779 -1.17377,0.0008c-65.74448,-0.55533 -103.35223,-30.47209 -103.35223,-30.47209c20.88977,-6.47704 42.85436,-25.14076 42.85436,-25.14076c-9.29194,-0.22089 -22.57559,-5.3761 -22.57559,-5.3761c24.57439,-6.09672 41.35115,-27.99024 41.35115,-27.99024c-9.97839,1.60504 -20.2185,-0.83351 -20.2185,-0.83351c22.95609,-10.96134 34.09603,-41.40906 34.09603,-41.40906c-6.70743,2.88445 -10.77142,0.66466 -10.77142,0.66466c28.5422,-21.08276 37.63148,-71.94348 37.63148,-71.94348z" data-paper-data="{&quot;index&quot;:null}" fill="#000000" stroke="#000000" stroke-width="0.25"/></g></g></svg>