<svg version="1.1" xmlns="http://www.w3.org/2000/svg" xmlns:xlink="http://www.w3.org/1999/xlink" width="248.60738" height="296.7257" viewBox="0,0,248.60738,296.7257"><g transform="translate(-98.42729,-93.81203)"><g data-paper-data="{&quot;isPaintingLayer&quot;:true}" fill-rule="nonzero" stroke-linecap="butt" stroke-linejoin="miter" stroke-miterlimit="10" stroke-dasharray="" stroke-dashoffset="0" style="mix-blend-mode: normal"><g data-paper-data="{&quot;index&quot;:null}" stroke="none" stroke-width="0"><path d="M288.14419,310.95348v-14.69127h11.65149v14.69127z" fill="#af4a05"/><path d="M261.73098,310.59542l24.12134,17.77134l-5.43014,7.37041l-24.12133,-17.77135z" fill="#af4a05"/><path d="M310.38963,389.52627l-21.70035,-20.65803l6.31218,-6.63067l21.70035,20.65803z" fill="#af4a05"/><path d="M280.38304,372.25599v-65.19285h33.01255v65.19285z" fill="#ed731a"/><path d="M293.42161,309.83731v-14.69126h11.65149v14.69126z" fill="#ed731a"/><path d="M280.9765,349.46019l-28.60242,-8.91969l2.72546,-8.73963l28.60242,8.91969z" fill="#ed731a"/><path d="M274.18311,384.07061l21.16515,-21.20603l6.47962,6.46713l-21.16516,21.20603z" fill="#ed731a"/><path d="M284.26687,340.35311v-25.24489h7.76766v25.24489z" fill="#ffffff"/></g><g data-paper-data="{&quot;index&quot;:null}" stroke="none" stroke-width="0.5"><path d="M262.26979,312.93012c0.30161,1.20165 0.64657,2.38916 1.14315,3.52088c1.13521,2.60303 2.19869,5.33 2.84428,8.0359c0.57334,2.7334 1.31799,5.45012 2.53219,8.04643c0.58139,1.25602 0.76101,2.53794 1.31189,3.79403c0.10899,0.24847 0.61293,1.00373 0.51875,1.24626c-0.38527,0.99221 -3.03049,0.92643 -3.98237,0.96667c-3.52996,0.10052 -6.93892,-0.1673 -10.46798,-0.13083c-3.44095,0.03422 -7.05455,-0.47849 -10.41233,-0.76913c-1.99839,-0.17298 -3.99059,-0.14635 -5.97743,-0.35212c-0.26871,-0.02783 -1.46035,-0.00767 -1.62347,-0.12169c-0.49952,-0.34911 -0.2358,-2.05449 -0.2186,-2.54069c0.09705,-2.7445 0.19025,-5.59445 -0.09409,-8.32799c-0.28949,-2.78304 -0.11934,-5.56798 -0.45992,-8.34412c-0.33481,-2.73566 0.29603,-5.57267 -0.25388,-8.32643c-0.54013,-2.73474 -0.92651,-5.52843 -1.47984,-8.2152c-0.53893,-2.72881 -1.89751,-5.40865 -2.10859,-8.16545c0.05099,-0.57647 -0.40714,-1.52395 -0.20742,-2.01997c0.56198,-1.39569 5.94342,-1.92626 7.51422,-2.38669c3.28917,-0.96334 6.78071,-1.61597 10.26041,-1.90063c2.38732,-0.195 9.11871,-1.78062 9.89684,0.67186c1.21782,2.71766 0.99567,5.47592 0.74056,8.30679c0.4289,2.72911 0.00214,5.6591 0.5835,8.18357c-0.3054,2.83248 0.31881,5.52097 -0.01159,8.32059c-0.02224,0.16966 -0.03811,0.33899 -0.04829,0.508zM262.76239,315.32115c0.02096,0.13126 0.04347,0.26236 0.06718,0.39329c-0.18263,-0.32721 -0.39297,-0.64492 -0.62982,-0.95067c-0.03283,-0.25428 -0.05816,-0.50902 -0.07342,-0.76413c0.43379,-1.25608 0.46214,-2.54636 0.13344,-3.76736c-0.04516,-1.98477 -0.32125,-3.9452 -0.07998,-5.98835c-0.486,-2.54855 -0.168,-5.44089 -0.58368,-8.18806c0.23635,-2.80269 0.48317,-5.50906 -0.71911,-8.20146c-0.65632,-2.05901 -7.28516,-0.56213 -9.36738,-0.39154c-3.43758,0.2812 -6.88991,0.92508 -10.1388,1.8782c-1.71748,0.50342 -3.49439,0.93247 -5.25278,1.33647c-0.5389,0.12381 -1.74689,0.25713 -1.95752,0.79684c-0.16931,0.43381 0.27895,1.3736 0.2308,1.90208c0.19399,2.72954 1.55468,5.39902 2.10236,8.10024c0.52451,2.68649 0.93506,5.48388 1.47995,8.21575c0.5452,2.76329 -0.07814,5.60633 0.25765,8.34998c0.33922,2.77832 0.17089,5.56495 0.46058,8.34988c0.2858,2.74745 0.19315,5.61344 0.0956,8.37209c-0.01088,0.3072 -0.22422,2.0602 0.04247,2.22596c0.1492,0.09274 1.56782,0.0547 1.86367,0.09017c1.79753,0.21554 3.6492,0.13388 5.46756,0.29127c3.33701,0.28884 6.93149,0.80084 10.35207,0.76683c3.52516,-0.03373 6.92694,0.23146 10.45203,0.13119c0.68156,-0.02883 3.24677,0.0382 3.52682,-0.68633c0.07237,-0.18721 -0.58458,-1.14867 -0.67454,-1.38231c-0.42573,-1.10562 -0.62438,-2.29696 -1.1469,-3.40144c-1.22451,-2.61834 -1.97789,-5.35887 -2.55585,-8.11546c-0.64129,-2.68703 -1.69677,-5.38988 -2.82437,-7.9752c-0.00459,-0.0106 -0.00918,-0.0212 -0.01375,-0.0318c-0.05341,-0.14249 -0.1118,-0.28375 -0.17506,-0.4236c-0.12194,-0.3077 -0.23433,-0.61879 -0.3392,-0.93251z" fill="#000000"/><path d="M262.96745,315.64234c-0.02153,-0.13116 -0.04123,-0.26421 -0.06001,-0.39568c0.09966,0.3148 0.20538,0.63076 0.32221,0.93971c0.06093,0.14051 0.11623,0.28384 0.16728,0.42688c0.00439,0.01065 0.00875,0.02139 0.01316,0.03204c1.08464,2.59694 2.08264,5.32468 2.67936,8.0182c0.53223,2.76242 1.2332,5.51476 2.41421,8.14575c0.50417,1.10989 0.68134,2.30403 1.0887,3.41402c0.08608,0.23456 0.72667,1.20301 0.65121,1.38946c-0.29203,0.72153 -2.86047,0.62932 -3.54245,0.65099c-3.52643,0.0632 -6.93835,-0.23468 -10.46376,-0.23801c-3.42085,-0.00195 -7.02317,-0.5526 -10.35511,-0.87651c-1.8156,-0.1765 -3.67645,-0.11641 -5.47025,-0.35083c-0.29524,-0.03859 -1.71679,-0.01636 -1.86445,-0.11065c-0.26392,-0.16855 -0.02337,-1.9199 -0.00741,-2.22695c0.14325,-2.75739 0.27395,-5.62747 0.03371,-8.37769c-0.24351,-2.78773 -0.04229,-5.5877 -0.33545,-8.36934c-0.29029,-2.74694 0.37914,-5.60955 -0.12023,-8.37833c-0.49959,-2.73736 -0.8528,-5.55379 -1.33274,-8.24556c-0.50288,-2.70674 -1.8118,-5.39552 -1.96054,-8.12687c0.05692,-0.52794 -0.3742,-1.47319 -0.19772,-1.90518c0.21957,-0.53747 1.43246,-0.65945 1.97335,-0.77758c1.76495,-0.38547 3.55636,-0.79864 5.28204,-1.28397c3.26439,-0.91887 6.74285,-1.52886 10.1848,-1.77391c2.08486,-0.14867 8.75217,-1.57448 9.37432,0.49126c1.15758,2.70482 0.87236,5.41006 0.58958,8.21002c0.37012,2.75132 0.01704,5.64617 0.46077,8.19961c-0.2751,2.04044 -0.01703,4.01936 -0.00475,6.00441c0.30843,1.22435 0.2621,2.53333 -0.19246,3.78475c0.01102,0.25525 0.03135,0.51421 0.05995,0.76882c0.23178,0.30822 0.43551,0.63206 0.61272,0.96115z" data-paper-data="{&quot;noHover&quot;:false,&quot;origItem&quot;:[&quot;Path&quot;,{&quot;applyMatrix&quot;:true,&quot;segments&quot;:[[[206.22528,311.10278],[-0.076,0.14772],[-0.23313,0.33435]],[[205.50647,312.08719],[0.2466,-0.3214],[-0.11945,0.1434]],[[205.16023,312.52721],[0.11133,-0.14989],[-0.00884,0.01095]],[[205.13368,312.56003],[0.00886,-0.01093],[-2.16874,2.66525]],[[199.05819,321.00527],[1.75534,-2.95141],[-1.72565,3.05512]],[[193.17492,329.70773],[2.27399,-2.67111],[-0.96485,1.12469]],[[190.63795,333.32935],[0.87437,-1.1591],[-0.18477,0.24494]],[[189.41105,334.72993],[0.0123,-0.24563],[-0.0476,0.95059]],[[192.43121,336.74476],[-0.62818,-0.26689],[3.26993,1.32272]],[[202.31051,340.1611],[-3.29854,-1.24425],[3.20014,1.20884]],[[212.36854,342.79328],[-3.2601,-0.79933],[1.77645,0.43556]],[[217.63201,344.3177],[-1.78182,-0.35984],[0.29327,0.05923]],[[219.42221,344.84806],[-0.18001,0.05845],[0.32174,-0.10447]],[[220.41698,342.2361],[-0.12157,0.36618],[1.09168,-3.28836]],[[224.09815,332.39022],[-1.44715,3.14418],[1.46689,-3.18706]],[[228.11281,322.69526],[-1.51061,3.16233],[1.49251,-3.12261]],[[231.93678,312.93084],[-1.69774,3.07423],[1.68398,-3.03725]],[[236.85193,303.74244],[-1.64535,2.99067],[1.67345,-3.00014]],[[242.30248,294.90297],[-1.35319,3.15442],[0.18144,-0.64004]],[[243.33531,292.73749],[-0.02697,0.56971],[0.03356,-0.7088]],[[241.83741,291.12844],[0.45334,0.33021],[-1.47927,-1.07748]],[[237.47404,287.75677],[1.39817,1.18082],[-2.64453,-2.23467]],[[228.75106,282.07649],[3.11009,1.50633],[-1.88374,-0.91271]],[[219.77944,279.33794],[1.50008,-2.20526],[-2.28487,2.76608]],[[215.58548,288.76945],[0.98011,-3.38775],[-1.5691,3.09947]],[[211.52455,298.23142],[1.54999,-2.84108],[-0.64969,2.49322]],[[208.8806,305.26997],[0.89383,-2.32645],[-0.83268,1.3284]],[[207.38995,309.7608],[0.13113,-1.63031],[-0.12377,0.2958]],[[206.99317,310.63735],[0.13993,-0.28883],[-0.35376,0.27984]],[[205.99345,311.54388],[0.31201,-0.32368],[0.07845,-0.14639]]],&quot;closed&quot;:true}]}" fill="#4f4200"/></g><path d="M253.87034,96.31581c20.80042,54.48613 42.66687,74.63664 42.66591,74.63642c-3.8463,2.07188 -16.91144,-0.04515 -16.91144,-0.04515c6.16875,26.85973 35.45449,53.74928 35.45449,53.74928c-4.70431,0.87077 -19.73247,-0.71859 -19.73247,-0.71859c3.79789,9.86624 34.32842,25.10341 34.32842,25.10341c-2.28563,4.43459 -28.01849,11.3736 -28.01849,11.3736c18.73122,15.03939 39.41818,23.20296 39.41818,23.20296c-31.85335,11.2115 -60.31359,15.26497 -84.89417,15.20583c-0.05068,-0.00298 -0.10135,-0.00563 -0.15199,-0.008c-0.39327,-0.01828 -0.78514,-0.01779 -1.17377,0.0008c-65.74448,-0.55533 -103.35223,-30.47209 -103.35223,-30.47209c20.88977,-6.47704 42.85436,-25.14076 42.85436,-25.14076c-9.29194,-0.22089 -22.57559,-5.3761 -22.57559,-5.3761c24.57439,-6.09672 41.35115,-27.99024 41.35115,-27.99024c-9.97839,1.60504 -20.2185,-0.83351 -20.2185,-0.83351c22.95609,-10.96134 34.09603,-41.40906 34.09603,-41.40906c-6.70743,2.88445 -10.77142,0.66466 -10.77142,0.66466c28.5422,-21.08276 37.63148,-71.94348 37.63148,-71.94348z" data-paper-data="{&quot;index&quot;:null}" fill="#13600f" stroke="#000000" stroke-width="0.25"/><path d="M241.11853,190.23392c-1.14106,-0.23847 -0.84359,-1.65656 0.32145,-1.62105c2.99217,0.09236 6.06135,1.40602 8.94241,0.11768c0.75992,-0.33946 2.19603,-0.46717 2.94697,-0.221c4.00238,1.31891 6.21245,3.49209 11.76113,1.45067c2.47069,-0.90971 4.12749,-2.91274 7.15103,-2.85945c1.31734,0.0219 2.83052,0.77049 3.7822,1.4078c2.46623,1.65475 3.53089,-0.76448 5.15598,-1.46237c3.11787,-1.34085 5.69156,0.05266 7.44239,1.9394c4.35399,0.49066 6.90785,3.51637 5.19999,7.20981c-0.83166,1.80131 -3.94081,1.60626 -4.4658,-0.10661c-0.01465,0.00566 -0.02681,0.01024 -0.04251,0.01316c-0.67262,-0.26575 -1.34963,-0.53088 -2.02473,-0.79558c-1.76584,0.336 -3.66149,-0.32243 -4.52072,-1.60363c-0.48734,-0.72874 -5.49603,-0.01192 -7.5934,-0.76411c-5.02275,-1.7955 -8.38676,1.0297 -13.35361,1.40981c-3.48655,0.26543 -6.47758,-1.37878 -8.94118,-3.07114c-0.97769,-0.67094 -3.81557,0.68587 -4.81096,0.66831c-2.28649,-0.03987 -4.75001,-1.25419 -6.95067,-1.71174z" data-paper-data="{&quot;index&quot;:null}" fill="#fdfdfd" stroke="#000000" stroke-width="0.25"/><path d="M262.62191,170.02381c-0.50249,-0.25185 -0.14448,-0.92478 0.435,-0.76682c4.13033,1.13656 8.69151,1.06968 12.98713,0.45905c2.39493,-0.34081 5.041,-1.66766 7.556,-1.06874c2.42493,0.57746 1.39279,1.8896 3.35231,0.99035c1.8837,-0.8641 3.90807,-0.53749 5.87103,-0.05839c0.01225,-0.01039 0.01914,-0.02038 0.02851,-0.03145c0.34137,-0.39506 0.76486,-0.69741 1.23576,-0.91199c-0.65326,-0.65935 -0.48003,-1.84931 0.55679,-2.19515c4.56313,-1.51794 8.3303,0.45825 8.63116,4.38647c0.26035,3.35494 -2.88915,4.19609 -5.94318,3.70409c-0.87719,0.9716 -2.19977,1.45306 -3.86763,1.13321c-1.12329,-0.21347 -3.3993,-1.28504 -4.54363,-0.88915c-1.17909,0.40506 -2.28051,0.79786 -3.59716,0.77695c-2.29002,-0.04155 -3.55254,-1.76379 -4.00549,-3.30987c0.08145,0.27795 -7.84637,0.04606 -8.07261,0.04539c-3.69471,-0.00029 -7.48757,-0.68736 -10.624,-2.26394z" data-paper-data="{&quot;index&quot;:null}" fill="#fdfdfd" stroke="#000000" stroke-width="0.25"/><path d="M212.27913,168.9732c-2.51947,-2.20529 -0.33705,-5.20546 3.04125,-5.41603c5.91529,-0.36542 11.95456,1.00209 17.52059,-1.03269c3.03204,-1.1094 5.90725,-1.43396 9.19937,-1.37324c3.73627,0.06756 6.00192,0.80246 9.85705,-0.27803c2.83835,-0.79638 4.41307,-0.43137 7.06546,0.61345c0.65976,0.26103 0.1536,1.109 -0.5283,0.92916c-6.33789,-1.67307 -5.92088,1.97356 -10.68848,2.2066c-2.83224,0.13775 -5.39275,-0.07295 -8.21566,0.41535c-3.48195,0.60072 -6.8197,3.03062 -10.23774,4.06723c-3.15099,0.95636 -6.94976,0.60207 -10.45544,0.65428c-1.09573,0.91708 -2.84176,1.30602 -4.72829,0.42031c-0.70947,-0.33438 -1.274,-0.72404 -1.82982,-1.2064z" data-paper-data="{&quot;index&quot;:null}" fill="#fdfdfd" stroke="#000000" stroke-width="0.25"/><path d="M250.27008,96.64477c-0.8441,-2.82304 4.55281,-3.85393 5.47772,-1.05986c1.28761,3.90216 4.13749,7.21533 5.91052,10.95875c1.47238,3.10402 0.90663,6.15165 1.9281,9.2863c0.34741,1.06537 -1.07901,1.61771 -2.13796,1.23003c-1.84796,-0.67701 -2.62998,-1.86084 -3.06633,-3.20926c-0.89381,0.35412 -2.02792,0.31682 -2.89292,-0.40127c-0.10797,-0.1712 -0.20985,-0.31684 -0.30925,-0.45523c-0.02231,0.01216 -0.04586,0.02483 -0.06653,0.0382c-0.23825,-0.35518 -0.51415,-0.64618 -0.80439,-0.90733c-0.32955,-0.12586 -0.5437,0.14155 -0.63359,0.82595c-0.78513,2.10835 -5.20708,1.66802 -4.90077,-0.61338c0.55274,-4.0974 2.44519,-7.5374 2.11114,-11.73871c-0.03323,-0.40363 0.07223,-0.73183 0.26483,-0.99191c-0.26613,-0.95374 -0.5715,-1.93095 -0.88056,-2.96225z" data-paper-data="{&quot;index&quot;:null}" fill="#fdfdfd" stroke="#000000" stroke-width="0.25"/><path d="M191.36293,210.38921c-4.45832,-0.6826 -3.06025,-6.11167 1.20306,-6.09402l1.23474,0.00556c1.13791,0.00495 1.99595,0.34395 2.61213,0.849c4.99738,1.3181 10.75415,2.82367 15.59366,1.1895c2.12869,-0.71597 5.49769,-1.83325 7.83885,-1.06041c4.21529,1.39122 8.39054,1.93825 12.984,2.76692c0.06243,-0.10236 0.14288,-0.19709 0.19849,-0.30356c0.41274,-0.64076 1.5074,-1.07675 2.39326,-1.02874c2.66763,0.14229 5.55464,1.46576 8.08774,0.76795c0.37869,-0.10518 0.87409,-0.00965 1.20043,0.15536c4.78023,2.38039 5.54665,3.23877 10.83077,2.81698c0.65922,-0.05168 0.83908,0.751 0.29175,0.96898c-2.86199,1.13741 -6.14367,1.89973 -9.10885,0.31737c-2.88401,-1.53725 -1.86841,-1.52069 -4.43246,-0.4179c-1.39419,0.59992 -3.58036,0.17326 -5.38462,-0.07517c-0.13398,0.18175 -0.24709,0.35518 -0.40577,0.54434c-0.76328,0.90729 -1.91851,1.15426 -3.20797,0.96359c-5.75256,-0.84948 -11.48047,1.9864 -15.71006,-2.42266c-1.06584,-1.11176 -8.89526,1.11645 -10.9497,1.28978c-5.18392,0.43567 -10.20953,-0.45684 -15.26949,-1.23284z" data-paper-data="{&quot;index&quot;:null}" fill="#fdfdfd" stroke="#000000" stroke-width="0.25"/><path d="M273.61896,221.25257c-0.88901,-0.62905 0.34227,-1.77655 1.31017,-1.26589c4.29746,2.26791 6.61801,-1.38939 10.79818,-0.39393c1.66229,0.39586 2.4295,0.96013 3.3858,2.0217c-0.00135,-0.00198 4.37249,0.34126 4.70552,0.4106c6.8101,1.42721 14.85934,-0.90826 21.94867,-0.10539c1.85394,0.20787 3.55026,0.9635 3.97999,2.54644c0.02991,0.10938 0.06106,0.21824 0.08907,0.32715c0.34756,1.27908 -0.3427,2.62024 -1.81462,3.24654c-2.93943,1.252 -7.60952,-0.30406 -10.79004,-0.51194c-3.63611,-0.23989 -7.51503,-0.00804 -11.05036,-0.81669c-3.26744,-0.74652 -8.72836,-0.46825 -10.75358,-2.98648c-1.4423,-1.79664 -5.66587,-0.34916 -7.93985,-0.5224c-1.56531,-0.11754 -2.78876,-1.18203 -3.86894,-1.94971z" data-paper-data="{&quot;index&quot;:null}" fill="#fdfdfd" stroke="#000000" stroke-width="0.25"/><path d="M170.38283,240.41649c-4.78978,-2.75259 0.21495,-9.03118 4.85926,-6.18021c0.73583,0.84529 1.69797,1.17666 2.89074,0.99931c1.74371,-0.65802 4.03102,-0.55642 5.35746,0.69803c4.4669,4.2328 15.38808,3.36105 21.81415,5.169c2.94063,0.82748 4.35409,-1.13624 7.31815,-1.08299c1.7495,0.03004 6.11343,2.94393 7.35213,1.92124c0.9369,-0.77202 2.9242,-1.01121 4.02021,-0.30794c2.449,1.57001 13.48782,5.44826 16.38525,3.33497c0.40663,-0.29639 1.0953,0.02391 0.92206,0.45485c-0.99142,2.46327 -2.41096,3.48944 -5.78233,3.15048c-3.90053,-0.39181 -8.28666,-0.59667 -12.18483,-1.57318c-1.62128,1.3273 -3.41271,1.80934 -6.33641,1.38163c-2.34296,-0.34264 -3.09355,-2.82252 -5.83384,-1.30862c-1.33071,0.73392 -3.23032,1.01479 -4.79781,0.76954c-5.67005,-0.88303 -10.96558,-2.0352 -16.76875,-2.58581c-3.83777,-0.36441 -7.35053,-1.11363 -10.30132,-2.84552c-3.14735,0.638 -5.63666,-0.11274 -8.91416,-1.99476z" data-paper-data="{&quot;index&quot;:null}" fill="#fdfdfd" stroke="#000000" stroke-width="0.25"/><path d="M251.04652,259.14504c-0.18725,-0.15182 0.01785,-0.45631 0.2849,-0.36694c4.02225,1.34108 7.89033,-1.76478 11.97272,-1.48761c1.02246,0.07058 1.80236,0.83741 2.52034,1.31598c2.19448,1.46948 6.37736,0.53355 8.88163,0.23789c4.77228,-0.56529 9.66314,-4.54407 14.31272,-4.22079c3.60172,0.25083 5.85277,1.35552 7.9033,3.16399c1.3903,-0.4005 2.80097,-0.49103 4.57406,-0.36809c5.40125,0.37841 8.04167,-3.54437 12.20124,-5.33299c3.05441,-1.31356 5.95019,-0.90329 8.89491,-3.13417c1.10435,-0.83438 2.36336,-1.37172 3.70857,-1.74387c1.16056,-1.6598 3.71239,-2.73559 6.2965,-1.43934c2.21236,1.11044 2.65675,2.3818 2.77135,4.37605c0.12085,2.08884 -2.2902,3.39016 -4.60895,3.51968c-5.05996,0.28064 -7.66601,4.44273 -13.37809,4.29456c-1.90155,-0.05046 -5.23094,1.59252 -7.23777,1.92267c-3.85652,0.63373 -8.57558,1.32973 -11.7775,3.28654c-1.51247,0.92341 -3.37595,0.98011 -4.79005,-0.12978c-3.67848,-2.88532 -11.5205,1.18378 -16.16583,0.71852c-3.65023,-0.36629 -7.44405,-0.74766 -10.96387,-1.63658c-3.78922,-0.95807 -4.23296,-2.31739 -8.82599,-1.39268c-2.96578,0.59644 -4.45314,0.14331 -6.57417,-1.58301z" data-paper-data="{&quot;index&quot;:null}" fill="#fdfdfd" stroke="#000000" stroke-width="0.25"/><path d="M143.09349,267.58207c0.11715,-3.1844 4.56043,-5.03928 7.94529,-3.4127c-0.14716,-0.0417 -0.29463,-0.08263 -0.44524,-0.12349c0.77145,0.26934 1.43045,0.67982 1.95697,1.17349c-0.42814,-1.30074 6.1456,2.19092 7.25742,2.98275c1.37899,0.98099 2.39926,2.03617 3.22778,3.17953c9.44374,0.43659 18.79878,10.0907 25.9068,13.66887c8.42322,4.23969 21.29518,4.23819 30.72558,6.38416c5.34964,1.21658 10.32437,1.83595 15.8661,2.10982c4.96853,0.24378 9.57579,1.97276 14.62522,0.95555c6.86236,-1.37859 13.53643,-0.53995 20.39237,-1.42873c1.73761,-0.22466 7.25678,1.37729 8.49083,0.55884c1.69192,-1.12342 3.76449,-2.2543 6.09023,-2.21339c2.99979,0.05262 4.8518,1.63923 7.80623,0.27776c3.16188,-1.46089 6.66578,-0.83265 9.85855,-2.17562c4.36955,-1.83921 9.58253,-3.71199 14.61529,-3.5003c3.09299,-1.65271 6.07609,-0.46845 10.73706,-1.94396c2.54371,-0.80669 4.84574,-0.89446 7.51937,-0.77652c3.1791,0.13937 5.04924,-1.32817 7.89963,-1.74509c2.48417,-0.36446 4.60287,2.14942 2.45044,3.61543c-1.32869,0.90649 -2.76011,3.96911 -7.06042,5.06496c-4.75802,1.21132 -10.68336,1.7564 -16.00493,1.93317c-1.27124,1.38738 -3.2449,1.98231 -5.3623,1.55041c-2.66216,-0.54333 -6.25431,1.80521 -8.64581,2.45943c-4.11052,1.1186 -9.77525,-0.7824 -13.16065,1.52976c-4.22129,2.88458 -8.92746,-0.7609 -12.38591,1.81817c-4.2675,3.18283 -8.59359,-0.05707 -13.04432,1.25319c-2.44493,0.72142 -4.38543,1.26055 -6.92538,1.25185c-2.7129,1.00537 -5.22548,1.75076 -6.95318,1.25047c-0.93672,-0.27123 -4.15585,0.80316 -8.30097,0.08509c-15.39711,-0.77156 -30.65915,-6.24318 -45.49397,-9.49264c-7.46559,-1.63569 -14.6126,-3.09407 -21.08957,-6.56269c-2.22855,-1.19244 -6.66185,-1.84997 -9.27805,-2.89946c-2.52123,-1.00776 -6.71341,-5.20506 -9.93318,-3.53432c-3.52027,1.82613 -7.29188,-0.44124 -8.53732,-3.0265c-2.15258,-4.45897 -10.94378,-4.77093 -10.74997,-10.26731z" data-paper-data="{&quot;index&quot;:null}" fill="#fdfdfd" stroke="#000000" stroke-width="0.25"/><path d="M306.4204,262.46594c0,3.43609 -2.96255,6.22241 -6.61766,6.22241c-3.65511,0 -6.61742,-2.78515 -6.61742,-6.22241c0,-3.43608 2.96207,-5.0322 6.61742,-5.0322c3.65488,-0.00023 6.61766,1.59635 6.61766,5.0322z" fill="#ec1c2c" stroke="none" stroke-width="1"/><g stroke="none"><path d="M307.16145,262.3995c0,3.82139 -3.29417,6.91947 -7.35823,6.91947c-4.06337,0 -7.35777,-3.09808 -7.35777,-6.91947c0,-3.36773 2.5595,-4.88389 5.94852,-5.19705c0,0 1.07101,-0.13719 2.16094,-0.04471c3.70975,0.17266 6.60654,1.65974 6.60654,5.24176z" fill="#0300e3" stroke-width="0.5"/><path d="M301.92088,259.31135c-0.84394,0.04281 -1.6524,0.0641 -2.498,0.15895c-0.5646,0.06339 -1.10862,0.06836 -1.52681,-0.35811c-0.09083,-0.09343 0.02791,-0.25451 0.14145,-0.18284c0.27958,0.17527 0.56129,0.24623 0.84465,0.25995c0.01845,0.01514 1.01093,-0.1159 1.46412,-0.25971c0.54686,-0.14902 1.09419,-0.27201 1.63892,-0.09201c0.26042,0.0861 0.21004,0.45934 -0.06433,0.47377z" fill="none" stroke-width="1"/></g><path d="M296.59465,260.18809c-0.60904,0.53634 -0.81351,1.29946 -1.11584,0.95615c-0.30232,-0.34331 -0.05346,-1.05602 0.55558,-1.59235c0.60887,-0.53618 1.34733,-0.69292 1.64966,-0.34961c0.30232,0.34331 -0.48071,0.44979 -1.0894,0.98582z" fill="#ffffff" stroke="none" stroke-width="1"/><path d="M301.81363,258.30485c0,0 -1.1617,-0.13398 -1.16666,-0.05025c0,0 -0.21796,0.98801 -0.56779,0.85508l-0.39603,-0.9583c-0.47433,-0.18273 -1.04787,0.68553 -1.18789,0.42985c-0.06694,-0.12205 0.33742,-1.6864 -0.485,-2.41751c-0.14097,-0.12465 0.91757,-1.27307 1.06824,-1.36365c0.76441,-0.06383 -0.34993,0.35378 0.077,0.09738c0.13719,-0.08208 1.64722,0.70133 1.74017,0.82504c1.30754,1.7404 0.95791,2.40238 0.91794,2.58237z" fill="#e2c500" stroke="none" stroke-width="1"/><path d="M195.9204,226.46598c0,3.43608 -2.96255,6.22241 -6.61766,6.22241c-3.65511,0 -6.61742,-2.78515 -6.61742,-6.22241c0,-3.43608 2.96207,-5.0322 6.61742,-5.0322c3.65488,-0.00024 6.61766,1.59635 6.61766,5.0322z" fill="#ec1c2c" stroke="none" stroke-width="1"/><g stroke="none"><path d="M196.66145,226.39951c0,3.82139 -3.29417,6.91947 -7.35823,6.91947c-4.06337,0 -7.35776,-3.09808 -7.35776,-6.91947c0,-3.36773 2.5595,-4.88389 5.94851,-5.19705c0,0 1.07101,-0.13719 2.16094,-0.04471c3.70975,0.17266 6.60654,1.65974 6.60654,5.24176z" fill="#0300e3" stroke-width="0.5"/><path d="M191.42088,223.31136c-0.84394,0.04281 -1.65241,0.0641 -2.49801,0.15895c-0.5646,0.06339 -1.10862,0.06836 -1.5268,-0.35811c-0.09083,-0.09343 0.02791,-0.25451 0.14145,-0.18284c0.27958,0.17527 0.56129,0.24623 0.84465,0.25995c0.01845,0.01514 1.01093,-0.1159 1.46412,-0.25971c0.54686,-0.14901 1.09419,-0.27201 1.63892,-0.09201c0.26042,0.0861 0.21004,0.45934 -0.06433,0.47377z" fill="none" stroke-width="1"/></g><path d="M186.09465,224.1881c-0.60905,0.53634 -0.81351,1.29946 -1.11584,0.95615c-0.30232,-0.34331 -0.05346,-1.05602 0.55558,-1.59235c0.60887,-0.53618 1.34733,-0.69293 1.64966,-0.34961c0.30232,0.34331 -0.48071,0.44979 -1.0894,0.98582z" fill="#ffffff" stroke="none" stroke-width="1"/><path d="M191.31365,222.30486c0,0 -1.1617,-0.13398 -1.16666,-0.05025c0,0 -0.21796,0.988 -0.56779,0.85507l-0.39602,-0.9583c-0.47433,-0.18273 -1.04787,0.68553 -1.18789,0.42985c-0.06694,-0.12205 0.33742,-1.6864 -0.485,-2.41751c-0.14097,-0.12465 0.91757,-1.27307 1.06824,-1.36365c0.76442,-0.06383 -0.34993,0.35378 0.07701,0.09738c0.13719,-0.08208 1.64722,0.70133 1.74017,0.82504c1.30754,1.7404 0.95792,2.40238 0.91794,2.58238z" fill="#e2c500" stroke="none" stroke-width="1"/><path d="M271.9204,171.46598c0,3.43608 -2.96255,6.22241 -6.61766,6.22241c-3.65511,0 -6.61742,-2.78515 -6.61742,-6.22241c0,-3.43608 2.96207,-5.0322 6.61742,-5.0322c3.65488,-0.00024 6.61766,1.59635 6.61766,5.0322z" fill="#ec1c2c" stroke="none" stroke-width="1"/><g stroke="none"><path d="M272.66145,171.39951c0,3.82139 -3.29417,6.91947 -7.35823,6.91947c-4.06337,0 -7.35777,-3.09808 -7.35777,-6.91947c0,-3.36773 2.5595,-4.88389 5.94852,-5.19705c0,0 1.07101,-0.13719 2.16094,-0.04471c3.70975,0.17266 6.60654,1.65974 6.60654,5.24176z" fill="#0300e3" stroke-width="0.5"/><path d="M267.42088,168.31136c-0.84394,0.04281 -1.6524,0.0641 -2.498,0.15895c-0.5646,0.06339 -1.10862,0.06836 -1.52681,-0.35811c-0.09083,-0.09343 0.02791,-0.25451 0.14145,-0.18284c0.27958,0.17527 0.56129,0.24623 0.84465,0.25995c0.01845,0.01514 1.01093,-0.1159 1.46412,-0.25971c0.54686,-0.14901 1.09419,-0.27201 1.63892,-0.09201c0.26042,0.0861 0.21004,0.45934 -0.06433,0.47377z" fill="none" stroke-width="1"/></g><path d="M262.09465,169.1881c-0.60904,0.53634 -0.81351,1.29946 -1.11584,0.95615c-0.30232,-0.34331 -0.05346,-1.05602 0.55558,-1.59235c0.60887,-0.53618 1.34733,-0.69293 1.64966,-0.34961c0.30232,0.34331 -0.48071,0.44979 -1.0894,0.98582z" fill="#ffffff" stroke="none" stroke-width="1"/><path d="M267.31363,167.30486c0,0 -1.1617,-0.13398 -1.16666,-0.05025c0,0 -0.21796,0.988 -0.56779,0.85507l-0.39602,-0.9583c-0.47433,-0.18273 -1.04787,0.68553 -1.1879,0.42985c-0.06694,-0.12205 0.33742,-1.6864 -0.485,-2.41751c-0.14097,-0.12465 0.91757,-1.27307 1.06824,-1.36365c0.76442,-0.06383 -0.34994,0.35378 0.07701,0.09738c0.13719,-0.08208 1.64721,0.70133 1.74017,0.82504c1.30754,1.7404 0.95792,2.40238 0.91794,2.58238z" fill="#e2c500" stroke="none" stroke-width="1"/><path d="M262.9204,128.46597c0,3.43608 -2.96255,6.22241 -6.61766,6.22241c-3.65511,0 -6.61742,-2.78515 -6.61742,-6.22241c0,-3.43608 2.96207,-5.0322 6.61742,-5.0322c3.65488,-0.00024 6.61766,1.59635 6.61766,5.0322z" fill="#ec1c2c" stroke="none" stroke-width="1"/><g stroke="none"><path d="M263.66145,128.39951c0,3.82139 -3.29416,6.91947 -7.35823,6.91947c-4.06337,0 -7.35777,-3.09808 -7.35777,-6.91947c0,-3.36773 2.5595,-4.88389 5.94851,-5.19705c0,0 1.07101,-0.13719 2.16094,-0.04471c3.70975,0.17266 6.60654,1.65974 6.60654,5.24176z" fill="#0300e3" stroke-width="0.5"/><path d="M258.42088,125.31136c-0.84394,0.04281 -1.65241,0.0641 -2.49801,0.15895c-0.5646,0.06339 -1.10862,0.06836 -1.5268,-0.35811c-0.09083,-0.09343 0.02791,-0.25451 0.14144,-0.18284c0.27958,0.17527 0.56129,0.24623 0.84465,0.25995c0.01845,0.01514 1.01093,-0.1159 1.46412,-0.25971c0.54686,-0.14901 1.09419,-0.27201 1.63892,-0.09201c0.26042,0.0861 0.21004,0.45934 -0.06433,0.47377z" fill="none" stroke-width="1"/></g><path d="M253.09464,126.1881c-0.60904,0.53634 -0.81351,1.29946 -1.11584,0.95615c-0.30232,-0.34331 -0.05346,-1.05602 0.55558,-1.59236c0.60887,-0.53618 1.34733,-0.69293 1.64966,-0.34961c0.30232,0.34331 -0.48071,0.44979 -1.0894,0.98582z" fill="#ffffff" stroke="none" stroke-width="1"/><path d="M258.31364,124.30486c0,0 -1.1617,-0.13398 -1.16666,-0.05025c0,0 -0.21796,0.988 -0.56779,0.85507l-0.39603,-0.9583c-0.47433,-0.18273 -1.04787,0.68553 -1.18789,0.42985c-0.06694,-0.12205 0.33742,-1.6864 -0.485,-2.41751c-0.14097,-0.12465 0.91757,-1.27307 1.06824,-1.36365c0.76441,-0.06383 -0.34993,0.35378 0.077,0.09738c0.13719,-0.08208 1.64722,0.70133 1.74017,0.82504c1.30754,1.7404 0.95791,2.40238 0.91794,2.58238z" fill="#e2c500" stroke="none" stroke-width="1"/><path d="M224.9204,272.46594c0,3.43609 -2.96255,6.22242 -6.61766,6.22242c-3.65511,0 -6.61742,-2.78515 -6.61742,-6.22242c0,-3.43608 2.96207,-5.0322 6.61742,-5.0322c3.65488,-0.00024 6.61766,1.59635 6.61766,5.0322z" fill="#ec1c2c" stroke="none" stroke-width="1"/><g stroke="none"><path d="M225.66145,272.3995c0,3.82139 -3.29417,6.91947 -7.35823,6.91947c-4.06337,0 -7.35777,-3.09808 -7.35777,-6.91947c0,-3.36773 2.5595,-4.88389 5.94851,-5.19705c0,0 1.07101,-0.13719 2.16094,-0.04471c3.70975,0.17266 6.60654,1.65974 6.60654,5.24176z" fill="#0300e3" stroke-width="0.5"/><path d="M220.42088,269.31136c-0.84394,0.04281 -1.65241,0.0641 -2.49801,0.15895c-0.5646,0.06339 -1.10862,0.06836 -1.5268,-0.35811c-0.09083,-0.09343 0.02791,-0.25451 0.14144,-0.18284c0.27958,0.17527 0.56129,0.24623 0.84465,0.25995c0.01845,0.01514 1.01093,-0.1159 1.46412,-0.25971c0.54686,-0.14902 1.09419,-0.27201 1.63892,-0.09201c0.26042,0.0861 0.21004,0.45934 -0.06433,0.47377z" fill="none" stroke-width="1"/></g><path d="M215.09464,270.18809c-0.60904,0.53634 -0.81351,1.29946 -1.11584,0.95615c-0.30232,-0.34331 -0.05346,-1.05602 0.55558,-1.59235c0.60887,-0.53618 1.34733,-0.69292 1.64965,-0.34961c0.30232,0.34331 -0.48071,0.44979 -1.0894,0.98582z" fill="#ffffff" stroke="none" stroke-width="1"/><path d="M220.31365,268.30485c0,0 -1.1617,-0.13398 -1.16666,-0.05025c0,0 -0.21796,0.988 -0.56779,0.85507l-0.39603,-0.9583c-0.47433,-0.18273 -1.04787,0.68554 -1.18789,0.42985c-0.06694,-0.12205 0.33742,-1.6864 -0.485,-2.41751c-0.14097,-0.12465 0.91757,-1.27307 1.06824,-1.36365c0.76441,-0.06383 -0.34993,0.35378 0.077,0.09738c0.13719,-0.08208 1.64722,0.70133 1.74017,0.82504c1.30754,1.74039 0.95791,2.40238 0.91794,2.58238z" fill="#e2c500" stroke="none" stroke-width="1"/><path d="M250.9204,228.46598c0,3.43608 -2.96255,6.22241 -6.61766,6.22241c-3.65511,0 -6.61742,-2.78515 -6.61742,-6.22241c0,-3.43608 2.96207,-5.0322 6.61742,-5.0322c3.65488,-0.00024 6.61766,1.59635 6.61766,5.0322z" fill="#ec1c2c" stroke="none" stroke-width="1"/><g stroke="none"><path d="M251.66145,228.39951c0,3.82139 -3.29416,6.91947 -7.35823,6.91947c-4.06336,0 -7.35776,-3.09808 -7.35776,-6.91947c0,-3.36773 2.5595,-4.88389 5.94851,-5.19705c0,0 1.07101,-0.13719 2.16095,-0.04471c3.70975,0.17266 6.60654,1.65974 6.60654,5.24176z" fill="#0300e3" stroke-width="0.5"/><path d="M246.42088,225.31136c-0.84394,0.04281 -1.65241,0.0641 -2.49801,0.15895c-0.5646,0.06339 -1.10862,0.06836 -1.5268,-0.35811c-0.09083,-0.09343 0.02791,-0.25451 0.14144,-0.18284c0.27958,0.17527 0.56129,0.24623 0.84465,0.25995c0.01845,0.01514 1.01093,-0.1159 1.46413,-0.25971c0.54686,-0.14901 1.09419,-0.27201 1.63892,-0.09201c0.26042,0.0861 0.21004,0.45934 -0.06434,0.47377z" fill="none" stroke-width="1"/></g><path d="M241.09464,226.1881c-0.60904,0.53634 -0.81351,1.29946 -1.11584,0.95615c-0.30232,-0.34331 -0.05346,-1.05602 0.55558,-1.59235c0.60887,-0.53618 1.34733,-0.69293 1.64966,-0.34961c0.30232,0.34331 -0.48071,0.44979 -1.08941,0.98582z" fill="#ffffff" stroke="none" stroke-width="1"/><path d="M246.31365,224.30485c0,0 -1.1617,-0.13398 -1.16666,-0.05025c0,0 -0.21796,0.988 -0.56779,0.85507l-0.39603,-0.9583c-0.47433,-0.18273 -1.04787,0.68553 -1.18789,0.42985c-0.06694,-0.12205 0.33742,-1.6864 -0.485,-2.41751c-0.14097,-0.12465 0.91757,-1.27307 1.06824,-1.36365c0.76441,-0.06383 -0.34993,0.35378 0.077,0.09738c0.13719,-0.08208 1.64722,0.70133 1.74017,0.82504c1.30754,1.7404 0.95791,2.40238 0.91794,2.58238z" fill="#e2c500" stroke="none" stroke-width="1"/><path d="M228.84487,193.36246c0,3.78632 -3.26452,6.85666 -7.29219,6.85666c-4.02767,0 -7.29193,-3.06904 -7.29193,-6.85666c0,-3.78632 3.264,-5.54513 7.29193,-5.54513c4.02742,-0.00026 7.29219,1.75907 7.29219,5.54513z" fill="#ec1c2c" stroke="none" stroke-width="1"/><g stroke="none"><path d="M229.66145,193.28922c0,4.2109 -3.62994,7.62478 -8.10826,7.62478c-4.47754,0 -8.10774,-3.41387 -8.10774,-7.62477c0,-3.71099 2.82039,-5.3817 6.55485,-5.72679c0,0 1.18018,-0.15117 2.38121,-0.04926c4.08789,0.19027 7.27994,1.82891 7.27994,5.77605z" fill="#ae1f1f" stroke-width="0.5"/><path d="M223.8867,189.8863c-0.92996,0.04718 -1.82083,0.07064 -2.75262,0.17515c-0.62215,0.06985 -1.22163,0.07532 -1.68243,-0.39461c-0.10008,-0.10296 0.03076,-0.28045 0.15587,-0.20147c0.30807,0.19314 0.6185,0.27133 0.93075,0.28644c0.02033,0.01668 1.11398,-0.12771 1.61336,-0.28618c0.6026,-0.16421 1.20572,-0.29973 1.80597,-0.10139c0.28697,0.09488 0.23145,0.50617 -0.0709,0.52206z" fill="none" stroke-width="1"/></g><path d="M218.01757,190.8524c-0.67113,0.591 -0.89643,1.43192 -1.22958,1.05361c-0.33314,-0.37831 -0.05891,-1.16367 0.61221,-1.75467c0.67093,-0.59083 1.48467,-0.76355 1.81781,-0.38525c0.33314,0.37831 -0.52971,0.49564 -1.20045,1.0863z" fill="#ffffff" stroke="none" stroke-width="1"/><path d="M223.76855,188.77719c0,0 -1.28011,-0.14764 -1.28558,-0.05537c0,0 -0.24017,1.08872 -0.62566,0.94224l-0.43639,-1.05597c-0.52269,-0.20136 -1.15467,0.75541 -1.30897,0.47366c-0.07376,-0.13449 0.37181,-1.85828 -0.53444,-2.66393c-0.15534,-0.13736 1.0111,-1.40282 1.17713,-1.50265c0.84233,-0.07034 -0.3856,0.38983 0.08485,0.1073c0.15117,-0.09044 1.81512,0.77282 1.91755,0.90914c1.44082,1.91779 1.05556,2.64724 1.0115,2.84559z" fill="#e2c500" stroke="none" stroke-width="1"/><path d="M291.34487,216.86246c0,3.78632 -3.26452,6.85666 -7.29219,6.85666c-4.02767,0 -7.29193,-3.06904 -7.29193,-6.85666c0,-3.78632 3.264,-5.54513 7.29193,-5.54513c4.02742,-0.00026 7.29219,1.75907 7.29219,5.54513z" fill="#ec1c2c" stroke="none" stroke-width="1"/><g stroke="none"><path d="M292.16145,216.78922c0,4.2109 -3.62994,7.62478 -8.10826,7.62478c-4.47754,0 -8.10774,-3.41387 -8.10774,-7.62477c0,-3.71099 2.82039,-5.3817 6.55485,-5.72679c0,0 1.18018,-0.15117 2.38121,-0.04926c4.08789,0.19027 7.27994,1.82891 7.27994,5.77605z" fill="#ae1f1f" stroke-width="0.5"/><path d="M286.38669,213.3863c-0.92996,0.04718 -1.82083,0.07064 -2.75262,0.17515c-0.62215,0.06985 -1.22163,0.07532 -1.68243,-0.39461c-0.10008,-0.10296 0.03076,-0.28045 0.15587,-0.20147c0.30807,0.19314 0.6185,0.27133 0.93075,0.28644c0.02033,0.01668 1.11398,-0.12771 1.61336,-0.28618c0.6026,-0.16421 1.20572,-0.29973 1.80597,-0.10139c0.28697,0.09488 0.23145,0.50617 -0.0709,0.52206z" fill="none" stroke-width="1"/></g><path d="M280.51757,214.3524c-0.67113,0.591 -0.89643,1.43192 -1.22958,1.05361c-0.33314,-0.37831 -0.05891,-1.16367 0.61221,-1.75467c0.67093,-0.59083 1.48467,-0.76355 1.81781,-0.38525c0.33314,0.37831 -0.52971,0.49564 -1.20045,1.0863z" fill="#ffffff" stroke="none" stroke-width="1"/><path d="M286.26855,212.27719c0,0 -1.28011,-0.14764 -1.28558,-0.05537c0,0 -0.24017,1.08872 -0.62566,0.94224l-0.43639,-1.05597c-0.52269,-0.20136 -1.15467,0.75541 -1.30897,0.47366c-0.07376,-0.13449 0.37181,-1.85828 -0.53444,-2.66393c-0.15534,-0.13736 1.0111,-1.40282 1.17713,-1.50265c0.84233,-0.07034 -0.3856,0.38983 0.08485,0.1073c0.15117,-0.09044 1.81512,0.77282 1.91755,0.90914c1.44082,1.91779 1.05556,2.64724 1.0115,2.84559z" fill="#e2c500" stroke="none" stroke-width="1"/><path d="M268.84487,271.36242c0,3.78632 -3.26452,6.85666 -7.29219,6.85666c-4.02767,0 -7.29193,-3.06904 -7.29193,-6.85666c0,-3.78632 3.264,-5.54512 7.29193,-5.54512c4.02742,-0.00026 7.29219,1.75906 7.29219,5.54512z" fill="#ec1c2c" stroke="none" stroke-width="1"/><g stroke="none"><path d="M269.66145,271.28918c0,4.21091 -3.62994,7.62478 -8.10826,7.62478c-4.47754,0 -8.10774,-3.41387 -8.10774,-7.62477c0,-3.711 2.82039,-5.3817 6.55485,-5.72679c0,0 1.18018,-0.15117 2.38121,-0.04926c4.08789,0.19027 7.27994,1.82891 7.27994,5.77605z" fill="#ae1f1f" stroke-width="0.5"/><path d="M263.88669,267.88626c-0.92996,0.04717 -1.82083,0.07063 -2.75262,0.17515c-0.62215,0.06985 -1.22163,0.07533 -1.68243,-0.39461c-0.10008,-0.10296 0.03076,-0.28045 0.15587,-0.20148c0.30807,0.19313 0.6185,0.27133 0.93075,0.28645c0.02033,0.01668 1.11398,-0.12771 1.61336,-0.28618c0.6026,-0.1642 1.20572,-0.29973 1.80597,-0.10139c0.28697,0.09488 0.23145,0.50617 -0.0709,0.52206z" fill="none" stroke-width="1"/></g><path d="M258.01757,268.8524c-0.67113,0.591 -0.89643,1.43192 -1.22958,1.05361c-0.33314,-0.37831 -0.05891,-1.16366 0.61221,-1.75466c0.67093,-0.59084 1.48467,-0.76355 1.81781,-0.38525c0.33314,0.37831 -0.52971,0.49564 -1.20045,1.0863z" fill="#ffffff" stroke="none" stroke-width="1"/><path d="M263.76855,266.77718c0,0 -1.28011,-0.14764 -1.28558,-0.05538c0,0 -0.24017,1.08871 -0.62566,0.94223l-0.43639,-1.05597c-0.52269,-0.20135 -1.15467,0.75541 -1.30897,0.47366c-0.07376,-0.13449 0.37181,-1.85829 -0.53444,-2.66393c-0.15534,-0.13736 1.0111,-1.40282 1.17713,-1.50265c0.84233,-0.07034 -0.3856,0.38984 0.08485,0.1073c0.15117,-0.09044 1.81512,0.77282 1.91755,0.90913c1.44082,1.91779 1.05556,2.64724 1.0115,2.84559z" fill="#e2c500" stroke="none" stroke-width="1"/><path d="M191.84487,286.36242c0,3.78632 -3.26452,6.85666 -7.2922,6.85666c-4.02767,0 -7.29193,-3.06904 -7.29193,-6.85666c0,-3.78632 3.264,-5.54512 7.29193,-5.54512c4.02741,-0.00026 7.2922,1.75906 7.2922,5.54512z" fill="#ec1c2c" stroke="none" stroke-width="1"/><g stroke="none"><path d="M192.66145,286.28918c0,4.21091 -3.62994,7.62478 -8.10826,7.62478c-4.47754,0 -8.10774,-3.41387 -8.10774,-7.62477c0,-3.711 2.82039,-5.3817 6.55485,-5.72679c0,0 1.18018,-0.15117 2.38121,-0.04926c4.08789,0.19027 7.27994,1.82891 7.27994,5.77605z" fill="#ae1f1f" stroke-width="0.5"/><path d="M186.8867,282.88626c-0.92997,0.04717 -1.82083,0.07063 -2.75262,0.17515c-0.62215,0.06985 -1.22162,0.07533 -1.68243,-0.39461c-0.10009,-0.10296 0.03076,-0.28045 0.15587,-0.20148c0.30808,0.19313 0.6185,0.27133 0.93075,0.28645c0.02033,0.01668 1.11398,-0.12771 1.61336,-0.28618c0.6026,-0.1642 1.20572,-0.29973 1.80598,-0.10139c0.28697,0.09488 0.23145,0.50617 -0.0709,0.52206z" fill="none" stroke-width="1"/></g><path d="M181.01757,283.8524c-0.67112,0.591 -0.89643,1.43192 -1.22957,1.05361c-0.33314,-0.37831 -0.05891,-1.16366 0.61221,-1.75466c0.67093,-0.59084 1.48467,-0.76355 1.8178,-0.38525c0.33314,0.37831 -0.52971,0.49564 -1.20045,1.0863z" fill="#ffffff" stroke="none" stroke-width="1"/><path d="M186.76855,281.77718c0,0 -1.2801,-0.14764 -1.28558,-0.05538c0,0 -0.24018,1.08871 -0.62566,0.94223l-0.43639,-1.05597c-0.52268,-0.20135 -1.15467,0.75541 -1.30898,0.47366c-0.07376,-0.13449 0.37181,-1.85829 -0.53444,-2.66393c-0.15534,-0.13736 1.0111,-1.40282 1.17713,-1.50265c0.84233,-0.07034 -0.3856,0.38984 0.08485,0.1073c0.15117,-0.09044 1.81512,0.77282 1.91755,0.90913c1.44082,1.91779 1.05555,2.64724 1.0115,2.84559z" fill="#e2c500" stroke="none" stroke-width="1"/><path d="M246.34487,140.86246c0,3.78632 -3.26452,6.85666 -7.29219,6.85666c-4.02767,0 -7.29193,-3.06904 -7.29193,-6.85666c0,-3.78632 3.264,-5.54513 7.29193,-5.54513c4.02742,-0.00026 7.29219,1.75907 7.29219,5.54513z" fill="#ec1c2c" stroke="none" stroke-width="1"/><g stroke="none"><path d="M247.16145,140.78922c0,4.2109 -3.62994,7.62478 -8.10826,7.62478c-4.47754,0 -8.10774,-3.41387 -8.10774,-7.62477c0,-3.71099 2.82039,-5.3817 6.55485,-5.72679c0,0 1.18018,-0.15117 2.38121,-0.04926c4.08789,0.19027 7.27994,1.82891 7.27994,5.77605z" fill="#ae1f1f" stroke-width="0.5"/><path d="M241.3867,137.38628c-0.92996,0.04718 -1.82083,0.07064 -2.75262,0.17515c-0.62215,0.06985 -1.22163,0.07532 -1.68243,-0.39461c-0.10008,-0.10296 0.03076,-0.28045 0.15587,-0.20147c0.30807,0.19314 0.6185,0.27133 0.93075,0.28644c0.02033,0.01668 1.11398,-0.12771 1.61336,-0.28618c0.6026,-0.16421 1.20572,-0.29973 1.80597,-0.10139c0.28697,0.09488 0.23145,0.50617 -0.0709,0.52206z" fill="none" stroke-width="1"/></g><path d="M235.51757,138.3524c-0.67113,0.591 -0.89643,1.43192 -1.22958,1.05361c-0.33314,-0.37831 -0.05891,-1.16367 0.61221,-1.75467c0.67093,-0.59083 1.48467,-0.76355 1.81781,-0.38525c0.33314,0.37831 -0.52971,0.49564 -1.20045,1.0863z" fill="#ffffff" stroke="none" stroke-width="1"/><path d="M241.26855,136.27719c0,0 -1.28011,-0.14764 -1.28558,-0.05537c0,0 -0.24017,1.08872 -0.62566,0.94224l-0.43639,-1.05597c-0.52269,-0.20136 -1.15467,0.75541 -1.30897,0.47366c-0.07376,-0.13449 0.37181,-1.85828 -0.53444,-2.66393c-0.15534,-0.13736 1.0111,-1.40282 1.17713,-1.50265c0.84233,-0.07034 -0.3856,0.38983 0.08485,0.1073c0.15117,-0.09044 1.81512,0.77282 1.91755,0.90914c1.44082,1.91779 1.05556,2.64724 1.0115,2.84559z" fill="#e2c500" stroke="none" stroke-width="1"/><path d="M294.84487,166.36245c0,3.78632 -3.26452,6.85666 -7.29219,6.85666c-4.02767,0 -7.29193,-3.06904 -7.29193,-6.85666c0,-3.78632 3.264,-5.54513 7.29193,-5.54513c4.02742,-0.00026 7.29219,1.75907 7.29219,5.54513z" fill="#ec1c2c" stroke="none" stroke-width="1"/><g stroke="none"><path d="M295.66145,166.28921c0,4.2109 -3.62994,7.62478 -8.10826,7.62478c-4.47754,0 -8.10774,-3.41387 -8.10774,-7.62477c0,-3.71099 2.82039,-5.3817 6.55485,-5.72679c0,0 1.18018,-0.15117 2.38121,-0.04926c4.08789,0.19027 7.27994,1.82891 7.27994,5.77605z" fill="#ae1f1f" stroke-width="0.5"/><path d="M289.88669,162.88628c-0.92997,0.04718 -1.82083,0.07064 -2.75262,0.17515c-0.62215,0.06985 -1.22162,0.07532 -1.68243,-0.39461c-0.10009,-0.10296 0.03076,-0.28045 0.15587,-0.20147c0.30807,0.19314 0.6185,0.27133 0.93075,0.28644c0.02033,0.01668 1.11398,-0.12771 1.61336,-0.28618c0.6026,-0.16421 1.20572,-0.29973 1.80597,-0.10139c0.28697,0.09488 0.23145,0.50617 -0.07089,0.52206z" fill="none" stroke-width="1"/></g><path d="M284.01757,163.8524c-0.67113,0.591 -0.89643,1.43192 -1.22958,1.05361c-0.33314,-0.37831 -0.05891,-1.16367 0.61221,-1.75467c0.67093,-0.59083 1.48467,-0.76355 1.8178,-0.38525c0.33314,0.37831 -0.52971,0.49564 -1.20044,1.0863z" fill="#ffffff" stroke="none" stroke-width="1"/><path d="M289.76855,161.77719c0,0 -1.28011,-0.14764 -1.28558,-0.05537c0,0 -0.24018,1.08872 -0.62566,0.94224l-0.43639,-1.05597c-0.52269,-0.20136 -1.15467,0.75541 -1.30898,0.47366c-0.07376,-0.13449 0.37181,-1.85828 -0.53444,-2.66393c-0.15534,-0.13736 1.0111,-1.40282 1.17713,-1.50265c0.84233,-0.07034 -0.3856,0.38983 0.08485,0.1073c0.15117,-0.09044 1.81512,0.77282 1.91755,0.90914c1.44082,1.91779 1.05556,2.64724 1.01151,2.84559z" fill="#e2c500" stroke="none" stroke-width="1"/><path d="M328.84487,259.61244c0,3.78632 -3.26452,6.85666 -7.29219,6.85666c-4.02767,0 -7.29193,-3.06904 -7.29193,-6.85666c0,-3.78632 3.264,-5.54513 7.29193,-5.54513c4.02742,-0.00026 7.29219,1.75907 7.29219,5.54513z" fill="#ec1c2c" stroke="none" stroke-width="1"/><g stroke="none"><path d="M329.16145,259.5392c0,4.21091 -3.62994,7.62478 -8.10826,7.62478c-4.47754,0 -8.10774,-3.41387 -8.10774,-7.62477c0,-3.711 2.82039,-5.3817 6.55485,-5.72679c0,0 1.18018,-0.15117 2.38121,-0.04926c4.08789,0.19027 7.27994,1.82891 7.27994,5.77605z" fill="#ae1f1f" stroke-width="0.5"/><path d="M323.38669,256.13629c-0.92996,0.04717 -1.82083,0.07063 -2.75262,0.17515c-0.62215,0.06985 -1.22163,0.07532 -1.68243,-0.39461c-0.10008,-0.10296 0.03076,-0.28045 0.15587,-0.20147c0.30808,0.19313 0.6185,0.27133 0.93075,0.28644c0.02033,0.01668 1.11398,-0.12771 1.61336,-0.28618c0.6026,-0.1642 1.20572,-0.29973 1.80598,-0.10139c0.28696,0.09488 0.23145,0.50617 -0.0709,0.52206z" fill="none" stroke-width="1"/></g><path d="M339.01757,267.3524c-0.67113,0.591 -0.89644,1.43192 -1.22958,1.05361c-0.33314,-0.37831 -0.05891,-1.16367 0.61221,-1.75467c0.67093,-0.59083 1.48467,-0.76355 1.81781,-0.38525c0.33314,0.37831 -0.52971,0.49564 -1.20045,1.0863z" fill="#ffffff" stroke="none" stroke-width="1"/><path d="M322.26855,255.52719c0,0 -1.28011,-0.14764 -1.28558,-0.05537c0,0 -0.24017,1.08872 -0.62566,0.94224l-0.43639,-1.05597c-0.52268,-0.20136 -1.15467,0.75541 -1.30897,0.47366c-0.07376,-0.13449 0.37181,-1.85829 -0.53444,-2.66393c-0.15534,-0.13735 1.0111,-1.40282 1.17713,-1.50265c0.84233,-0.07034 -0.38561,0.38984 0.08485,0.1073c0.15117,-0.09044 1.81512,0.77282 1.91755,0.90914c1.44082,1.91779 1.05556,2.64724 1.0115,2.84559z" fill="#e2c500" stroke="none" stroke-width="1"/><path d="M277.35026,248.59653c0,4.05109 -3.4928,7.33614 -7.80212,7.33614c-4.30932,0 -7.80184,-3.28365 -7.80184,-7.33614c0,-4.05109 3.49224,-5.93288 7.80184,-5.93288c4.30904,-0.00028 7.80212,1.88207 7.80212,5.93288z" fill="#ec1c2c" stroke="none" stroke-width="1"/><g stroke="none"><path d="M278.22397,248.51816c0,4.50537 -3.88377,8.15796 -8.67525,8.15796c-4.79065,0 -8.6747,-3.65259 -8.6747,-8.15796c0,-3.9705 3.01761,-5.75803 7.01321,-6.12725c0,0 1.26271,-0.16174 2.54772,-0.05271c4.37374,0.20357 7.78902,1.95681 7.78902,6.17996z" fill="#e3cb29" stroke-width="0.5"/><path d="M272.04541,244.87729c-0.99499,0.05048 -1.94816,0.07557 -2.94511,0.1874c-0.66565,0.07474 -1.30705,0.08059 -1.80008,-0.4222c-0.10708,-0.11015 0.03291,-0.30006 0.16676,-0.21556c0.32962,0.20664 0.66176,0.2903 0.99583,0.30647c0.02175,0.01784 1.19187,-0.13664 1.72618,-0.30619c0.64474,-0.17568 1.29003,-0.3207 1.93227,-0.10848c0.30703,0.10151 0.24763,0.54156 -0.07585,0.55857z" fill="none" stroke-width="1"/></g><path d="M265.76586,245.91095c-0.71805,0.63233 -0.95912,1.53205 -1.31556,1.12729c-0.35643,-0.40476 -0.06302,-1.24504 0.65503,-1.87736c0.71785,-0.63215 1.58848,-0.81695 1.94492,-0.41218c0.35643,0.40476 -0.56675,0.5303 -1.28439,1.16226z" fill="#ffffff" stroke="none" stroke-width="1"/><path d="M271.91899,243.69063c0,0 -1.36962,-0.15797 -1.37547,-0.05925c0,0 -0.25697,1.16485 -0.66941,1.00812l-0.46691,-1.12982c-0.55924,-0.21544 -1.23542,0.80823 -1.40051,0.50678c-0.07892,-0.14389 0.39781,-1.98823 -0.57181,-2.8502c-0.1662,-0.14696 1.08181,-1.50092 1.25945,-1.60773c0.90123,-0.07525 -0.41257,0.4171 0.09078,0.11481c0.16174,-0.09677 1.94204,0.82686 2.05164,0.9727c1.54157,2.0519 1.12937,2.83237 1.08224,3.04458z" fill="#93831a" stroke="none" stroke-width="1"/><path d="M223.9217,222.45367c0,4.05109 -3.4928,7.33614 -7.80212,7.33614c-4.30932,0 -7.80184,-3.28365 -7.80184,-7.33614c0,-4.05109 3.49224,-5.93288 7.80184,-5.93288c4.30904,-0.00028 7.80212,1.88207 7.80212,5.93288z" fill="#ec1c2c" stroke="none" stroke-width="1"/><g stroke="none"><path d="M224.79539,222.37531c0,4.50537 -3.88377,8.15796 -8.67525,8.15796c-4.79064,0 -8.67469,-3.65259 -8.67469,-8.15796c0,-3.9705 3.01761,-5.75803 7.01321,-6.12725c0,0 1.2627,-0.16174 2.54772,-0.05271c4.37374,0.20357 7.78901,1.95681 7.78901,6.17996z" fill="#e3cb29" stroke-width="0.5"/><path d="M218.61684,218.73443c-0.995,0.05048 -1.94817,0.07557 -2.94511,0.1874c-0.66566,0.07474 -1.30705,0.08059 -1.80008,-0.4222c-0.10709,-0.11015 0.0329,-0.30006 0.16676,-0.21556c0.32962,0.20664 0.66175,0.2903 0.99583,0.30647c0.02175,0.01784 1.19187,-0.13664 1.72618,-0.30619c0.64474,-0.17568 1.29003,-0.3207 1.93226,-0.10848c0.30703,0.10151 0.24764,0.54156 -0.07585,0.55857z" fill="none" stroke-width="1"/></g><path d="M212.33729,219.76809c-0.71806,0.63233 -0.95913,1.53205 -1.31556,1.12729c-0.35644,-0.40476 -0.06303,-1.24504 0.65503,-1.87736c0.71785,-0.63215 1.58848,-0.81695 1.94491,-0.41218c0.35644,0.40476 -0.56675,0.5303 -1.28439,1.16226z" fill="#ffffff" stroke="none" stroke-width="1"/><path d="M218.49042,217.54777c0,0 -1.36962,-0.15797 -1.37547,-0.05925c0,0 -0.25697,1.16485 -0.66941,1.00812l-0.46691,-1.12982c-0.55924,-0.21544 -1.23542,0.80823 -1.40051,0.50678c-0.07892,-0.14389 0.39782,-1.98823 -0.5718,-2.8502c-0.1662,-0.14696 1.0818,-1.50092 1.25944,-1.60773c0.90123,-0.07525 -0.41257,0.4171 0.09079,0.11481c0.16174,-0.09677 1.94204,0.82686 2.05163,0.9727c1.54157,2.0519 1.12937,2.83237 1.08224,3.04458z" fill="#93831a" stroke="none" stroke-width="1"/><path d="M261.9217,192.45367c0,4.05109 -3.4928,7.33614 -7.80212,7.33614c-4.30932,0 -7.80184,-3.28365 -7.80184,-7.33614c0,-4.05109 3.49224,-5.93288 7.80184,-5.93288c4.30904,-0.00028 7.80212,1.88207 7.80212,5.93288z" fill="#ec1c2c" stroke="none" stroke-width="1"/><g stroke="none"><path d="M262.7954,192.37531c0,4.50537 -3.88377,8.15796 -8.67525,8.15796c-4.79064,0 -8.67469,-3.65259 -8.67469,-8.15796c0,-3.9705 3.01761,-5.75803 7.01321,-6.12725c0,0 1.2627,-0.16174 2.54772,-0.05271c4.37374,0.20357 7.78901,1.95681 7.78901,6.17996z" fill="#e3cb29" stroke-width="0.5"/><path d="M256.61684,188.73443c-0.995,0.05048 -1.94817,0.07557 -2.94511,0.1874c-0.66566,0.07474 -1.30705,0.08059 -1.80008,-0.4222c-0.10709,-0.11015 0.0329,-0.30006 0.16676,-0.21556c0.32962,0.20664 0.66175,0.2903 0.99583,0.30647c0.02175,0.01784 1.19187,-0.13664 1.72618,-0.30619c0.64474,-0.17568 1.29003,-0.3207 1.93226,-0.10848c0.30703,0.10151 0.24764,0.54156 -0.07585,0.55857z" fill="none" stroke-width="1"/></g><path d="M250.33729,189.76809c-0.71805,0.63233 -0.95912,1.53205 -1.31556,1.12729c-0.35644,-0.40476 -0.06303,-1.24504 0.65503,-1.87736c0.71785,-0.63215 1.58848,-0.81695 1.94491,-0.41218c0.35643,0.40476 -0.56675,0.5303 -1.28439,1.16226z" fill="#ffffff" stroke="none" stroke-width="1"/><path d="M256.49042,187.54777c0,0 -1.36962,-0.15797 -1.37547,-0.05925c0,0 -0.25697,1.16485 -0.66941,1.00812l-0.46691,-1.12982c-0.55924,-0.21544 -1.23542,0.80823 -1.40051,0.50678c-0.07892,-0.14389 0.39782,-1.98823 -0.5718,-2.8502c-0.1662,-0.14696 1.0818,-1.50092 1.25944,-1.60773c0.90123,-0.07525 -0.41257,0.4171 0.09079,0.11481c0.16174,-0.09677 1.94204,0.82686 2.05163,0.9727c1.54157,2.0519 1.12937,2.83237 1.08224,3.04458z" fill="#93831a" stroke="none" stroke-width="1"/><path d="M239.92171,294.95367c0,4.05109 -3.4928,7.33614 -7.80212,7.33614c-4.30932,0 -7.80184,-3.28365 -7.80184,-7.33614c0,-4.05109 3.49224,-5.93288 7.80184,-5.93288c4.30904,-0.00028 7.80212,1.88207 7.80212,5.93288z" fill="#ec1c2c" stroke="none" stroke-width="1"/><g stroke="none"><path d="M240.7954,294.87531c0,4.50537 -3.88377,8.15796 -8.67525,8.15796c-4.79064,0 -8.67469,-3.65259 -8.67469,-8.15796c0,-3.9705 3.01761,-5.75803 7.01321,-6.12725c0,0 1.2627,-0.16174 2.54772,-0.0527c4.37374,0.20357 7.78901,1.9568 7.78901,6.17995z" fill="#e3cb29" stroke-width="0.5"/><path d="M234.61684,291.2344c-0.995,0.05048 -1.94817,0.07557 -2.94511,0.18739c-0.66566,0.07473 -1.30705,0.08059 -1.80008,-0.4222c-0.10709,-0.11015 0.0329,-0.30006 0.16676,-0.21556c0.32962,0.20664 0.66175,0.2903 0.99583,0.30647c0.02175,0.01784 1.19187,-0.13664 1.72618,-0.3062c0.64474,-0.17568 1.29003,-0.3207 1.93226,-0.10848c0.30703,0.1015 0.24764,0.54156 -0.07585,0.55857z" fill="none" stroke-width="1"/></g><path d="M228.33729,292.26806c-0.71805,0.63233 -0.95913,1.53205 -1.31556,1.12729c-0.35643,-0.40476 -0.06302,-1.24504 0.65503,-1.87737c0.71785,-0.63215 1.58848,-0.81694 1.94492,-0.41218c0.35644,0.40476 -0.56675,0.5303 -1.28439,1.16226z" fill="#ffffff" stroke="none" stroke-width="1"/><path d="M234.49042,290.04777c0,0 -1.36962,-0.15797 -1.37547,-0.05925c0,0 -0.25697,1.16485 -0.66941,1.00812l-0.46691,-1.12982c-0.55924,-0.21544 -1.23542,0.80823 -1.40051,0.50678c-0.07892,-0.14389 0.39782,-1.98823 -0.5718,-2.85021c-0.1662,-0.14696 1.0818,-1.50092 1.25944,-1.60772c0.90123,-0.07525 -0.41257,0.4171 0.09079,0.1148c0.16174,-0.09677 1.94204,0.82686 2.05163,0.9727c1.54157,2.0519 1.12937,2.83237 1.08224,3.04458z" fill="#93831a" stroke="none" stroke-width="1"/><path d="M319.9217,288.45367c0,4.05109 -3.4928,7.33614 -7.80212,7.33614c-4.30932,0 -7.80184,-3.28365 -7.80184,-7.33614c0,-4.05109 3.49224,-5.93288 7.80184,-5.93288c4.30904,-0.00028 7.80212,1.88207 7.80212,5.93288z" fill="#ec1c2c" stroke="none" stroke-width="1"/><g stroke="none"><path d="M320.7954,288.37531c0,4.50537 -3.88377,8.15796 -8.67525,8.15796c-4.79065,0 -8.67469,-3.65259 -8.67469,-8.15796c0,-3.9705 3.01761,-5.75803 7.01321,-6.12725c0,0 1.26271,-0.16174 2.54772,-0.0527c4.37374,0.20357 7.78902,1.9568 7.78902,6.17995z" fill="#e3cb29" stroke-width="0.5"/><path d="M314.61683,284.7344c-0.99499,0.05048 -1.94816,0.07557 -2.94511,0.18739c-0.66565,0.07473 -1.30705,0.08059 -1.80008,-0.4222c-0.10708,-0.11015 0.03291,-0.30006 0.16676,-0.21556c0.32962,0.20664 0.66176,0.2903 0.99583,0.30647c0.02175,0.01784 1.19187,-0.13664 1.72618,-0.3062c0.64474,-0.17568 1.29003,-0.3207 1.93227,-0.10848c0.30703,0.1015 0.24763,0.54156 -0.07585,0.55857z" fill="none" stroke-width="1"/></g><path d="M308.33727,285.76806c-0.71805,0.63233 -0.95913,1.53205 -1.31556,1.12729c-0.35643,-0.40476 -0.06302,-1.24504 0.65503,-1.87736c0.71785,-0.63215 1.58848,-0.81694 1.94492,-0.41218c0.35644,0.40476 -0.56675,0.5303 -1.28439,1.16226z" fill="#ffffff" stroke="none" stroke-width="1"/><path d="M314.49042,283.54777c0,0 -1.36962,-0.15797 -1.37548,-0.05925c0,0 -0.25696,1.16485 -0.66941,1.00812l-0.46691,-1.12982c-0.55924,-0.21544 -1.23542,0.80823 -1.40051,0.50678c-0.07892,-0.1439 0.39781,-1.98823 -0.5718,-2.85021c-0.1662,-0.14696 1.0818,-1.50092 1.25944,-1.60772c0.90123,-0.07525 -0.41257,0.4171 0.09079,0.1148c0.16174,-0.09677 1.94204,0.82686 2.05163,0.9727c1.54158,2.0519 1.12937,2.83237 1.08224,3.04458z" fill="#93831a" stroke="none" stroke-width="1"/><path d="M229.92171,155.45367c0,4.05109 -3.4928,7.33614 -7.80212,7.33614c-4.30932,0 -7.80184,-3.28365 -7.80184,-7.33614c0,-4.05109 3.49224,-5.93288 7.80184,-5.93288c4.30904,-0.00028 7.80212,1.88207 7.80212,5.93288z" fill="#ec1c2c" stroke="none" stroke-width="1"/><g stroke="none"><path d="M230.7954,155.37527c0,4.50537 -3.88377,8.15796 -8.67525,8.15796c-4.79064,0 -8.67469,-3.65259 -8.67469,-8.15796c0,-3.9705 3.01761,-5.75803 7.01321,-6.12725c0,0 1.2627,-0.16174 2.54772,-0.05271c4.37374,0.20357 7.78901,1.95681 7.78901,6.17996z" fill="#e3cb29" stroke-width="0.5"/><path d="M224.61684,151.73442c-0.995,0.05048 -1.94817,0.07557 -2.94511,0.1874c-0.66566,0.07474 -1.30705,0.08059 -1.80008,-0.4222c-0.10709,-0.11015 0.0329,-0.30006 0.16676,-0.21556c0.32962,0.20664 0.66175,0.2903 0.99583,0.30647c0.02175,0.01784 1.19187,-0.13664 1.72618,-0.30619c0.64474,-0.17568 1.29004,-0.3207 1.93226,-0.10848c0.30703,0.10151 0.24764,0.54156 -0.07585,0.55857z" fill="none" stroke-width="1"/></g><path d="M218.33729,152.76809c-0.71806,0.63233 -0.95913,1.53205 -1.31556,1.12729c-0.35644,-0.40476 -0.06303,-1.24504 0.65503,-1.87736c0.71785,-0.63215 1.58848,-0.81695 1.94491,-0.41218c0.35644,0.40476 -0.56675,0.5303 -1.28439,1.16226z" fill="#ffffff" stroke="none" stroke-width="1"/><path d="M224.49042,150.54773c0,0 -1.36962,-0.15797 -1.37547,-0.05925c0,0 -0.25697,1.16485 -0.66941,1.00812l-0.46691,-1.12982c-0.55924,-0.21544 -1.23542,0.80823 -1.40051,0.50678c-0.07892,-0.14389 0.39782,-1.98823 -0.5718,-2.8502c-0.1662,-0.14696 1.0818,-1.50092 1.25944,-1.60773c0.90123,-0.07525 -0.41257,0.4171 0.09079,0.11481c0.16174,-0.09677 1.94204,0.82686 2.05163,0.9727c1.54157,2.0519 1.12937,2.83237 1.08224,3.04458z" fill="#93831a" stroke="none" stroke-width="1"/><path d="M322.73449,240.07638c0,3.88213 -3.34711,7.03015 -7.4767,7.03015c-4.12959,0 -7.47644,-3.14669 -7.47644,-7.03015c0,-3.88213 3.34659,-5.68543 7.47644,-5.68543c4.12932,-0.00027 7.4767,1.80357 7.4767,5.68543z" fill="#ec1c2c" stroke="none" stroke-width="1"/><g stroke="none"><path d="M323.57175,240.00129c0,4.31745 -3.72179,7.8177 -8.31342,7.8177c-4.59083,0 -8.31288,-3.50025 -8.31288,-7.8177c0,-3.80489 2.89175,-5.51787 6.72069,-5.87169c0,0 1.21004,-0.155 2.44146,-0.05051c4.19131,0.19508 7.46415,1.87519 7.46415,5.9222z" fill="#afafaf" stroke-width="0.5"/><path d="M317.65089,236.51227c-0.95349,0.04837 -1.86691,0.07242 -2.82227,0.17958c-0.63789,0.07162 -1.25254,0.07723 -1.72501,-0.4046c-0.10262,-0.10556 0.03153,-0.28754 0.15981,-0.20657c0.31587,0.19802 0.63415,0.27819 0.9543,0.29369c0.02085,0.0171 1.14216,-0.13094 1.65418,-0.29342c0.61785,-0.16836 1.23623,-0.30732 1.85167,-0.10396c0.29422,0.09727 0.23731,0.51898 -0.07268,0.53528z" fill="none" stroke-width="1"/></g><path d="M311.63326,237.50281c-0.68811,0.60596 -0.91912,1.46814 -1.26069,1.08027c-0.34157,-0.38788 -0.0604,-1.19311 0.62771,-1.79906c0.68791,-0.60578 1.52222,-0.78287 1.86379,-0.39499c0.34157,0.38788 -0.54311,0.50818 -1.23082,1.11379z" fill="#ffffff" stroke="none" stroke-width="1"/><path d="M317.52975,235.3751c0,0 -1.3125,-0.15138 -1.31811,-0.05678c0,0 -0.24625,1.11626 -0.64149,0.96607l-0.44744,-1.0827c-0.53591,-0.20645 -1.18389,0.77453 -1.34209,0.48565c-0.07563,-0.13789 0.38122,-1.9053 -0.54796,-2.73132c-0.15927,-0.14084 1.03668,-1.43832 1.20691,-1.54067c0.86364,-0.07211 -0.39536,0.3997 0.087,0.11002c0.15499,-0.09273 1.86104,0.79237 1.96607,0.93214c1.47728,1.96632 1.08226,2.71422 1.0371,2.91759z" fill="#e2c500" stroke="none" stroke-width="1"/><path d="M266.23449,152.57638c0,3.88213 -3.34711,7.03015 -7.4767,7.03015c-4.12959,0 -7.47644,-3.14669 -7.47644,-7.03015c0,-3.88213 3.34659,-5.68543 7.47644,-5.68543c4.12932,-0.00027 7.4767,1.80357 7.4767,5.68543z" fill="#ec1c2c" stroke="none" stroke-width="1"/><g stroke="none"><path d="M267.07175,152.50125c0,4.31745 -3.72179,7.8177 -8.31342,7.8177c-4.59083,0 -8.31288,-3.50025 -8.31288,-7.8177c0,-3.80489 2.89175,-5.51787 6.72069,-5.87169c0,0 1.21004,-0.155 2.44146,-0.05051c4.19131,0.19508 7.46415,1.87519 7.46415,5.9222z" fill="#afafaf" stroke-width="0.5"/><path d="M261.15089,149.01227c-0.95349,0.04837 -1.86691,0.07242 -2.82227,0.17958c-0.63789,0.07162 -1.25254,0.07723 -1.72501,-0.4046c-0.10262,-0.10556 0.03153,-0.28754 0.15981,-0.20657c0.31587,0.19802 0.63415,0.27819 0.9543,0.29369c0.02085,0.0171 1.14216,-0.13094 1.65418,-0.29342c0.61785,-0.16836 1.23623,-0.30732 1.85167,-0.10396c0.29422,0.09727 0.23731,0.51898 -0.07268,0.53528z" fill="none" stroke-width="1"/></g><path d="M255.13325,150.00278c-0.68811,0.60596 -0.91912,1.46814 -1.26069,1.08027c-0.34157,-0.38788 -0.0604,-1.19311 0.62771,-1.79906c0.68791,-0.60578 1.52222,-0.78287 1.86379,-0.39499c0.34157,0.38788 -0.54311,0.50818 -1.23082,1.11379z" fill="#ffffff" stroke="none" stroke-width="1"/><path d="M261.02975,147.87509c0,0 -1.3125,-0.15138 -1.31811,-0.05678c0,0 -0.24625,1.11626 -0.64149,0.96607l-0.44744,-1.0827c-0.53591,-0.20645 -1.18389,0.77453 -1.34209,0.48565c-0.07563,-0.13789 0.38122,-1.9053 -0.54796,-2.73132c-0.15927,-0.14084 1.03668,-1.43832 1.20691,-1.54067c0.86364,-0.07211 -0.39536,0.3997 0.087,0.11002c0.15499,-0.09273 1.86104,0.79237 1.96607,0.93214c1.47728,1.96632 1.08226,2.71422 1.0371,2.91759z" fill="#e2c500" stroke="none" stroke-width="1"/><path d="M204.2345,251.57638c0,3.88213 -3.34711,7.03016 -7.4767,7.03016c-4.12958,0 -7.47644,-3.14669 -7.47644,-7.03016c0,-3.88213 3.34659,-5.68543 7.47644,-5.68543c4.12932,-0.00027 7.4767,1.80357 7.4767,5.68543z" fill="#ec1c2c" stroke="none" stroke-width="1"/><g stroke="none"><path d="M205.07175,251.50129c0,4.31745 -3.72179,7.8177 -8.31342,7.8177c-4.59083,0 -8.31288,-3.50025 -8.31288,-7.8177c0,-3.80489 2.89175,-5.51787 6.72069,-5.87169c0,0 1.21004,-0.155 2.44146,-0.05051c4.19131,0.19508 7.46415,1.87519 7.46415,5.9222z" fill="#afafaf" stroke-width="0.5"/><path d="M199.15089,248.01227c-0.95349,0.04837 -1.86691,0.07242 -2.82227,0.17958c-0.63789,0.07162 -1.25254,0.07723 -1.72501,-0.4046c-0.10262,-0.10556 0.03153,-0.28754 0.15981,-0.20657c0.31587,0.19802 0.63415,0.27819 0.9543,0.29369c0.02085,0.0171 1.14216,-0.13094 1.65418,-0.29342c0.61785,-0.16836 1.23623,-0.30732 1.85167,-0.10396c0.29422,0.09727 0.23731,0.51898 -0.07268,0.53528z" fill="none" stroke-width="1"/></g><path d="M193.13325,249.00281c-0.68811,0.60596 -0.91912,1.46814 -1.26069,1.08027c-0.34157,-0.38788 -0.06039,-1.19311 0.62771,-1.79906c0.68791,-0.60578 1.52222,-0.78287 1.86379,-0.39499c0.34157,0.38788 -0.54311,0.50818 -1.23082,1.11379z" fill="#ffffff" stroke="none" stroke-width="1"/><path d="M199.02975,246.8751c0,0 -1.3125,-0.15138 -1.31811,-0.05678c0,0 -0.24625,1.11626 -0.64149,0.96607l-0.44744,-1.0827c-0.53591,-0.20645 -1.18389,0.77453 -1.34209,0.48565c-0.07563,-0.13789 0.38122,-1.9053 -0.54796,-2.73132c-0.15927,-0.14084 1.03668,-1.43832 1.20691,-1.54067c0.86364,-0.07211 -0.39536,0.3997 0.087,0.11002c0.15499,-0.09273 1.86104,0.79237 1.96607,0.93214c1.47728,1.96632 1.08226,2.71422 1.0371,2.91759z" fill="#e2c500" stroke="none" stroke-width="1"/><path d="M282.73449,293.07635c0,3.88212 -3.34711,7.03016 -7.4767,7.03016c-4.12959,0 -7.47644,-3.1467 -7.47644,-7.03016c0,-3.88212 3.34659,-5.68543 7.47644,-5.68543c4.12932,-0.00027 7.4767,1.80357 7.4767,5.68543z" fill="#ec1c2c" stroke="none" stroke-width="1"/><g stroke="none"><path d="M283.57175,293.00129c0,4.31745 -3.72179,7.8177 -8.31342,7.8177c-4.59083,0 -8.31288,-3.50025 -8.31288,-7.8177c0,-3.80489 2.89175,-5.51787 6.72069,-5.87169c0,0 1.21004,-0.155 2.44146,-0.05051c4.19131,0.19508 7.46415,1.87519 7.46415,5.9222z" fill="#afafaf" stroke-width="0.5"/><path d="M277.65089,289.51223c-0.95349,0.04837 -1.86691,0.07242 -2.82227,0.17958c-0.63789,0.07162 -1.25254,0.07723 -1.72501,-0.40459c-0.10262,-0.10556 0.03153,-0.28754 0.15981,-0.20657c0.31587,0.19802 0.63415,0.27819 0.9543,0.29369c0.02085,0.01711 1.14216,-0.13094 1.65418,-0.29343c0.61785,-0.16836 1.23623,-0.30732 1.85167,-0.10395c0.29422,0.09728 0.23731,0.51898 -0.07268,0.53528z" fill="none" stroke-width="1"/></g><path d="M271.63325,290.50281c-0.68811,0.60596 -0.91912,1.46814 -1.26069,1.08027c-0.34157,-0.38788 -0.0604,-1.19311 0.62771,-1.79906c0.68791,-0.60578 1.52222,-0.78287 1.86379,-0.39499c0.34157,0.38788 -0.54311,0.50818 -1.23082,1.11379z" fill="#ffffff" stroke="none" stroke-width="1"/><path d="M277.52975,288.37507c0,0 -1.3125,-0.15137 -1.31811,-0.05677c0,0 -0.24625,1.11626 -0.64149,0.96607l-0.44744,-1.0827c-0.53591,-0.20645 -1.18389,0.77452 -1.34209,0.48564c-0.07563,-0.1379 0.38122,-1.9053 -0.54796,-2.73132c-0.15927,-0.14083 1.03668,-1.43833 1.20691,-1.54068c0.86364,-0.07211 -0.39536,0.39971 0.087,0.11002c0.15499,-0.09273 1.86104,0.79237 1.96607,0.93213c1.47728,1.96632 1.08226,2.71422 1.0371,2.91759z" fill="#e2c500" stroke="none" stroke-width="1"/><path d="M288.73449,190.07638c0,3.88213 -3.34711,7.03015 -7.4767,7.03015c-4.12959,0 -7.47644,-3.14669 -7.47644,-7.03015c0,-3.88213 3.34659,-5.68543 7.47644,-5.68543c4.12932,-0.00027 7.4767,1.80357 7.4767,5.68543z" fill="#ec1c2c" stroke="none" stroke-width="1"/><g stroke="none"><path d="M289.57175,190.00129c0,4.31745 -3.72179,7.8177 -8.31342,7.8177c-4.59083,0 -8.31288,-3.50025 -8.31288,-7.8177c0,-3.80489 2.89175,-5.51787 6.72069,-5.87169c0,0 1.21004,-0.155 2.44146,-0.05051c4.19131,0.19508 7.46415,1.87519 7.46415,5.9222z" fill="#afafaf" stroke-width="0.5"/><path d="M283.65089,186.51227c-0.95349,0.04837 -1.86691,0.07242 -2.82227,0.17958c-0.63789,0.07162 -1.25254,0.07723 -1.72501,-0.4046c-0.10262,-0.10556 0.03153,-0.28754 0.15981,-0.20657c0.31587,0.19802 0.63415,0.27819 0.9543,0.29369c0.02085,0.0171 1.14216,-0.13094 1.65418,-0.29342c0.61785,-0.16836 1.23623,-0.30732 1.85167,-0.10396c0.29422,0.09727 0.23731,0.51898 -0.07268,0.53528z" fill="none" stroke-width="1"/></g><path d="M277.63326,187.50281c-0.68811,0.60596 -0.91912,1.46814 -1.26069,1.08027c-0.34157,-0.38788 -0.0604,-1.19311 0.62771,-1.79906c0.68791,-0.60578 1.52222,-0.78287 1.86379,-0.39499c0.34157,0.38788 -0.54311,0.50818 -1.23082,1.11379z" fill="#ffffff" stroke="none" stroke-width="1"/><path d="M283.52975,185.3751c0,0 -1.3125,-0.15138 -1.31811,-0.05678c0,0 -0.24625,1.11626 -0.64149,0.96607l-0.44744,-1.0827c-0.53591,-0.20645 -1.18389,0.77453 -1.34209,0.48565c-0.07563,-0.13789 0.38122,-1.9053 -0.54796,-2.73132c-0.15927,-0.14084 1.03668,-1.43832 1.20691,-1.54067c0.86364,-0.07211 -0.39536,0.3997 0.087,0.11002c0.15499,-0.09273 1.86104,0.79237 1.96607,0.93214c1.47728,1.96632 1.08226,2.71422 1.0371,2.91759z" fill="#e2c500" stroke="none" stroke-width="1"/><path d="M99.70479,176.94572c-0.62521,0.55057 -0.83511,1.33395 -1.14546,0.98153c-0.31035,-0.35242 -0.05488,-1.08406 0.57034,-1.63463c0.62503,-0.55041 1.38309,-0.71132 1.69344,-0.35889c0.31035,0.35242 -0.49347,0.46173 -1.11832,1.01199z" fill="#ffffff" stroke="none" stroke-width="1"/><path d="M205.79137,300.28406c0,3.5273 -3.04119,6.38759 -6.79332,6.38759c-3.75214,0 -6.79309,-2.85908 -6.79309,-6.38759c0,-3.5273 3.04071,-5.16577 6.79309,-5.16577c3.75189,-0.00025 6.79332,1.63872 6.79332,5.16577z" fill="#ec1c2c" stroke="none" stroke-width="1"/><g stroke="none"><path d="M206.55209,300.21584c0,3.92283 -3.38161,7.10315 -7.55356,7.10315c-4.17122,0 -7.55308,-3.18032 -7.55308,-7.10315c0,-3.45713 2.62744,-5.01353 6.10642,-5.33501c0,0 1.09944,-0.14083 2.2183,-0.04589c3.80822,0.17725 6.78192,1.7038 6.78192,5.3809z" fill="#177d29" stroke-width="0.5"/><path d="M201.17241,297.04571c-0.86635,0.04395 -1.69627,0.0658 -2.56432,0.16317c-0.57959,0.06508 -1.13805,0.07017 -1.56734,-0.36762c-0.09324,-0.09591 0.02865,-0.26126 0.1452,-0.18769c0.287,0.17992 0.57619,0.25276 0.86707,0.26685c0.01894,0.01554 1.03776,-0.11898 1.50299,-0.2666c0.56137,-0.15297 1.12324,-0.27923 1.68243,-0.09445c0.26734,0.08839 0.21562,0.47154 -0.06604,0.48635z" fill="none" stroke-width="1"/></g><path d="M195.70478,297.9457c-0.62521,0.55058 -0.83511,1.33396 -1.14546,0.98153c-0.31035,-0.35242 -0.05488,-1.08405 0.57034,-1.63462c0.62503,-0.55041 1.3831,-0.71132 1.69344,-0.35889c0.31035,0.35243 -0.49347,0.46173 -1.11832,1.01198z" fill="#ffffff" stroke="none" stroke-width="1"/><path d="M201.06233,296.01249c0,0 -1.19252,-0.13755 -1.19762,-0.05159c0,0 -0.22375,1.01424 -0.58286,0.87778l-0.40654,-0.98374c-0.48692,-0.18758 -1.07568,0.70373 -1.21943,0.44126c-0.06871,-0.12529 0.34637,-1.73116 -0.49788,-2.48168c-0.14471,-0.12796 0.94194,-1.30686 1.09661,-1.39986c0.7847,-0.06552 -0.35923,0.36317 0.07904,0.09996c0.14083,-0.08425 1.69094,0.71994 1.78637,0.84693c1.34225,1.7866 0.98334,2.46615 0.94231,2.65093z" fill="#e2c500" stroke="none" stroke-width="1"/><path d="M200.70478,172.44572c-0.62521,0.55058 -0.83511,1.33396 -1.14546,0.98153c-0.31035,-0.35243 -0.05488,-1.08406 0.57033,-1.63462c0.62503,-0.55041 1.3831,-0.71132 1.69344,-0.35889c0.31035,0.35243 -0.49347,0.46173 -1.11832,1.01198z" fill="#ffffff" stroke="none" stroke-width="1"/><g stroke="none"><path d="M155.51362,283.56199c0,3.92283 -3.38161,7.10315 -7.55356,7.10315c-4.17122,0 -7.55308,-3.18032 -7.55308,-7.10315c0,-3.45712 2.62744,-5.01353 6.10642,-5.33501c0,0 1.09944,-0.14083 2.2183,-0.04589c3.80822,0.17725 6.78192,1.70379 6.78192,5.3809z" fill="#177d29" stroke-width="0.5"/><path d="M150.13395,280.39186c-0.86635,0.04395 -1.69627,0.0658 -2.56432,0.16317c-0.57959,0.06508 -1.13805,0.07017 -1.56734,-0.36762c-0.09324,-0.09591 0.02865,-0.26126 0.1452,-0.18769c0.287,0.17992 0.57619,0.25276 0.86707,0.26685c0.01894,0.01554 1.03776,-0.11898 1.50299,-0.2666c0.56137,-0.15297 1.12324,-0.27923 1.68243,-0.09445c0.26734,0.08838 0.21562,0.47153 -0.06604,0.48635z" fill="none" stroke-width="1"/></g><path d="M311.20479,207.44572c-0.62522,0.55058 -0.83511,1.33396 -1.14546,0.98153c-0.31035,-0.35243 -0.05488,-1.08406 0.57034,-1.63462c0.62503,-0.55041 1.3831,-0.71132 1.69345,-0.35889c0.31035,0.35243 -0.49347,0.46173 -1.11832,1.01198z" fill="#ffffff" stroke="none" stroke-width="1"/><path d="M150.02387,279.35864c0,0 -1.19253,-0.13755 -1.19763,-0.05159c0,0 -0.22375,1.01424 -0.58286,0.87778l-0.40654,-0.98373c-0.48692,-0.18758 -1.07568,0.70373 -1.21943,0.44125c-0.06871,-0.12529 0.34637,-1.73115 -0.49788,-2.48168c-0.14471,-0.12796 0.94194,-1.30686 1.09661,-1.39986c0.78471,-0.06552 -0.35922,0.36317 0.07905,0.09996c0.14083,-0.08426 1.69094,0.71994 1.78636,0.84694c1.34225,1.7866 0.98334,2.46615 0.94231,2.65093z" fill="#e2c500" stroke="none" stroke-width="1"/><path d="M339.29137,287.28406c0,3.52729 -3.04119,6.3876 -6.79332,6.3876c-3.75214,0 -6.79309,-2.85909 -6.79309,-6.3876c0,-3.52729 3.04071,-5.16577 6.79309,-5.16577c3.75189,-0.00025 6.79332,1.63872 6.79332,5.16577z" fill="#ec1c2c" stroke="none" stroke-width="1"/><g stroke="none"><path d="M340.05209,287.21584c0,3.92283 -3.3816,7.10315 -7.55356,7.10315c-4.17123,0 -7.55308,-3.18032 -7.55308,-7.10315c0,-3.45712 2.62744,-5.01353 6.10642,-5.33501c0,0 1.09944,-0.14083 2.21831,-0.04589c3.80822,0.17725 6.78191,1.70379 6.78191,5.3809z" fill="#177d29" stroke-width="0.5"/><path d="M334.67241,284.04571c-0.86634,0.04395 -1.69627,0.06581 -2.56431,0.16317c-0.57959,0.06507 -1.13805,0.07017 -1.56734,-0.36762c-0.09324,-0.09591 0.02865,-0.26126 0.1452,-0.18769c0.287,0.17992 0.57619,0.25276 0.86707,0.26684c0.01894,0.01554 1.03777,-0.11897 1.50299,-0.26661c0.56137,-0.15297 1.12323,-0.27923 1.68243,-0.09445c0.26734,0.08838 0.21562,0.47153 -0.06604,0.48634z" fill="none" stroke-width="1"/></g><path d="M329.20479,284.9457c-0.62522,0.55057 -0.83511,1.33396 -1.14546,0.98153c-0.31035,-0.35243 -0.05488,-1.08406 0.57034,-1.63463c0.62503,-0.55041 1.3831,-0.71132 1.69345,-0.35889c0.31035,0.35242 -0.49347,0.46173 -1.11832,1.01198z" fill="#ffffff" stroke="none" stroke-width="1"/><path d="M334.56233,283.01249c0,0 -1.19252,-0.13754 -1.19762,-0.05159c0,0 -0.22375,1.01423 -0.58286,0.87777l-0.40654,-0.98373c-0.48692,-0.18758 -1.07568,0.70373 -1.21943,0.44125c-0.06871,-0.12529 0.34637,-1.73115 -0.49788,-2.48168c-0.14471,-0.12796 0.94194,-1.30686 1.09661,-1.39986c0.7847,-0.06552 -0.35923,0.36317 0.07904,0.09996c0.14083,-0.08425 1.69094,0.71994 1.78637,0.84694c1.34225,1.78659 0.98334,2.46614 0.94231,2.65092z" fill="#e2c500" stroke="none" stroke-width="1"/><path d="M236.60181,250.42512c0,4.71006 -4.06096,8.52946 -9.07125,8.52946c-5.0103,0 -9.07092,-3.81778 -9.07092,-8.52946c0,-4.71006 4.0603,-6.89795 9.07092,-6.89795c5.00997,-0.00033 9.07125,2.18822 9.07125,6.89795z" fill="#ec1c2c" stroke="none" stroke-width="1"/><g stroke="none"><path d="M237.61761,250.33401c0,5.23823 -4.51552,9.48497 -10.08641,9.48497c-5.56991,0 -10.08576,-4.24674 -10.08576,-9.48497c0,-4.61635 3.50847,-6.69465 8.15401,-7.12393c0,0 1.4681,-0.18806 2.96214,-0.06128c5.08519,0.23668 9.05601,2.2751 9.05601,7.18522z" fill="#ae1f1f" stroke-width="0.5"/><path d="M230.43402,246.10089c-1.15685,0.05868 -2.26506,0.08787 -3.42417,0.21788c-0.77393,0.08689 -1.51966,0.0937 -2.09289,-0.49089c-0.1245,-0.12807 0.03825,-0.34886 0.19388,-0.25062c0.38324,0.24025 0.7694,0.33752 1.15782,0.35632c0.02529,0.02075 1.38575,-0.15887 2.00697,-0.356c0.74962,-0.20426 1.49988,-0.37286 2.24658,-0.12613c0.35698,0.11802 0.28791,0.62965 -0.08819,0.64943z" fill="none" stroke-width="1"/></g><path d="M223.13301,247.30269c-0.83486,0.73519 -1.11514,1.78125 -1.52956,1.31065c-0.41441,-0.4706 -0.07328,-1.44756 0.76158,-2.18275c0.83462,-0.73497 1.84687,-0.94983 2.26128,-0.47923c0.41441,0.4706 -0.65893,0.61657 -1.49331,1.35133z" fill="#ffffff" stroke="none" stroke-width="1"/><path d="M230.28704,244.72121c0,0 -1.5924,-0.18366 -1.59921,-0.06888c0,0 -0.29877,1.35432 -0.7783,1.17211l-0.54286,-1.3136c-0.6502,-0.25048 -1.43637,0.93971 -1.62832,0.58922c-0.09176,-0.1673 0.46252,-2.31164 -0.66482,-3.31384c-0.19324,-0.17087 1.25778,-1.74507 1.46431,-1.86925c1.04783,-0.08749 -0.47968,0.48494 0.10555,0.13348c0.18805,-0.1125 2.25795,0.96136 2.38537,1.13093c1.79233,2.38567 1.31308,3.29309 1.25828,3.53983z" fill="#e2c500" stroke="none" stroke-width="1"/></g></g></svg>