<svg version="1.1" xmlns="http://www.w3.org/2000/svg" xmlns:xlink="http://www.w3.org/1999/xlink" width="204.06619" height="301.72574" viewBox="0,0,204.06619,301.72574"><g transform="translate(-137.96849,-88.81199)"><g data-paper-data="{&quot;isPaintingLayer&quot;:true}" fill-rule="nonzero" stroke-linecap="butt" stroke-linejoin="miter" stroke-miterlimit="10" stroke-dasharray="" stroke-dashoffset="0" style="mix-blend-mode: normal"><g data-paper-data="{&quot;index&quot;:null}" stroke="none" stroke-width="0"><path d="M288.14419,310.95347v-14.69127h11.65149v14.69127z" fill="#af4a05"/><path d="M261.73098,310.59542l24.12134,17.77134l-5.43014,7.37041l-24.12133,-17.77135z" fill="#af4a05"/><path d="M310.38963,389.52626l-21.70035,-20.65803l6.31218,-6.63067l21.70035,20.65803z" fill="#af4a05"/><path d="M280.38304,372.25598v-65.19285h33.01255v65.19285z" fill="#ed731a"/><path d="M293.42161,309.8373v-14.69126h11.65149v14.69126z" fill="#ed731a"/><path d="M280.9765,349.46018l-28.60242,-8.91969l2.72546,-8.73963l28.60242,8.91969z" fill="#ed731a"/><path d="M274.18311,384.0706l21.16515,-21.20603l6.47962,6.46713l-21.16516,21.20603z" fill="#ed731a"/><path d="M284.26687,340.3531v-25.24489h7.76766v25.24489z" fill="#ffffff"/></g><g data-paper-data="{&quot;index&quot;:null}" stroke="none" stroke-width="0.5"><path d="M257.26978,307.93009c0.30161,1.20165 0.64657,2.38916 1.14315,3.52088c1.13521,2.60303 2.19869,5.33 2.84428,8.0359c0.57334,2.7334 1.31799,5.45012 2.53219,8.04643c0.58139,1.25602 0.76101,2.53794 1.31189,3.79403c0.10899,0.24847 0.61293,1.00373 0.51875,1.24626c-0.38527,0.99221 -3.03049,0.92643 -3.98237,0.96667c-3.52996,0.10052 -6.93892,-0.1673 -10.46798,-0.13083c-3.44095,0.03422 -7.05455,-0.47849 -10.41233,-0.76913c-1.99839,-0.17298 -3.99059,-0.14635 -5.97743,-0.35212c-0.26871,-0.02783 -1.46035,-0.00767 -1.62347,-0.12169c-0.49952,-0.34911 -0.2358,-2.05449 -0.2186,-2.54069c0.09705,-2.7445 0.19025,-5.59445 -0.09409,-8.32799c-0.28949,-2.78304 -0.11934,-5.56798 -0.45992,-8.34412c-0.33481,-2.73566 0.29603,-5.57267 -0.25388,-8.32643c-0.54013,-2.73474 -0.92651,-5.52843 -1.47984,-8.2152c-0.53893,-2.72881 -1.89751,-5.40865 -2.10859,-8.16545c0.05099,-0.57647 -0.40714,-1.52395 -0.20742,-2.01997c0.56198,-1.39569 5.94342,-1.92626 7.51422,-2.38669c3.28917,-0.96334 6.78071,-1.61597 10.26041,-1.90063c2.38732,-0.195 9.11871,-1.78062 9.89684,0.67186c1.21782,2.71766 0.99567,5.47592 0.74056,8.30679c0.4289,2.72911 0.00214,5.6591 0.5835,8.18357c-0.3054,2.83248 0.31881,5.52097 -0.01159,8.32059c-0.02224,0.16966 -0.03811,0.33899 -0.04829,0.508zM257.76238,310.32113c0.02096,0.13126 0.04347,0.26236 0.06718,0.39329c-0.18263,-0.32721 -0.39297,-0.64492 -0.62982,-0.95067c-0.03283,-0.25428 -0.05816,-0.50902 -0.07342,-0.76413c0.43379,-1.25608 0.46214,-2.54636 0.13344,-3.76736c-0.04516,-1.98477 -0.32125,-3.9452 -0.07998,-5.98835c-0.486,-2.54855 -0.168,-5.44089 -0.58368,-8.18806c0.23635,-2.80269 0.48317,-5.50906 -0.71911,-8.20146c-0.65632,-2.05901 -7.28516,-0.56213 -9.36738,-0.39154c-3.43758,0.2812 -6.88991,0.92508 -10.1388,1.8782c-1.71748,0.50342 -3.49439,0.93247 -5.25278,1.33647c-0.5389,0.12381 -1.74689,0.25713 -1.95752,0.79684c-0.16931,0.43381 0.27895,1.3736 0.2308,1.90208c0.19399,2.72954 1.55468,5.39902 2.10236,8.10024c0.52451,2.68649 0.93506,5.48388 1.47995,8.21575c0.5452,2.76329 -0.07814,5.60633 0.25765,8.34998c0.33922,2.77832 0.17089,5.56495 0.46058,8.34988c0.2858,2.74745 0.19315,5.61344 0.0956,8.37209c-0.01088,0.3072 -0.22422,2.0602 0.04247,2.22596c0.1492,0.09274 1.56782,0.0547 1.86367,0.09017c1.79753,0.21554 3.6492,0.13388 5.46756,0.29127c3.33701,0.28884 6.93149,0.80084 10.35207,0.76683c3.52516,-0.03373 6.92694,0.23146 10.45203,0.13119c0.68156,-0.02883 3.24677,0.0382 3.52682,-0.68633c0.07237,-0.18721 -0.58458,-1.14867 -0.67454,-1.38231c-0.42573,-1.10562 -0.62438,-2.29696 -1.1469,-3.40144c-1.22451,-2.61834 -1.97789,-5.35887 -2.55585,-8.11546c-0.64129,-2.68703 -1.69677,-5.38988 -2.82437,-7.9752c-0.00459,-0.0106 -0.00918,-0.0212 -0.01375,-0.0318c-0.05341,-0.14249 -0.1118,-0.28375 -0.17506,-0.4236c-0.12194,-0.3077 -0.23433,-0.61879 -0.3392,-0.93251z" fill="#000000"/><path d="M257.96745,310.64235c-0.02153,-0.13116 -0.04123,-0.26421 -0.06001,-0.39568c0.09966,0.3148 0.20538,0.63076 0.32221,0.93971c0.06093,0.14051 0.11623,0.28384 0.16728,0.42688c0.00439,0.01065 0.00875,0.02139 0.01316,0.03204c1.08464,2.59694 2.08264,5.32468 2.67936,8.0182c0.53223,2.76242 1.2332,5.51476 2.41421,8.14575c0.50417,1.10989 0.68134,2.30403 1.0887,3.41402c0.08608,0.23456 0.72667,1.20301 0.65121,1.38946c-0.29203,0.72153 -2.86047,0.62932 -3.54245,0.65099c-3.52643,0.0632 -6.93835,-0.23468 -10.46376,-0.23801c-3.42085,-0.00195 -7.02317,-0.5526 -10.35511,-0.87651c-1.8156,-0.1765 -3.67645,-0.11641 -5.47025,-0.35083c-0.29524,-0.03859 -1.71679,-0.01636 -1.86445,-0.11065c-0.26392,-0.16855 -0.02337,-1.9199 -0.00741,-2.22695c0.14325,-2.75739 0.27395,-5.62747 0.03371,-8.37769c-0.24351,-2.78773 -0.04229,-5.5877 -0.33545,-8.36934c-0.29029,-2.74694 0.37914,-5.60955 -0.12023,-8.37833c-0.49959,-2.73736 -0.8528,-5.55379 -1.33274,-8.24556c-0.50288,-2.70674 -1.8118,-5.39552 -1.96054,-8.12687c0.05692,-0.52794 -0.3742,-1.47319 -0.19772,-1.90518c0.21957,-0.53747 1.43246,-0.65945 1.97335,-0.77758c1.76495,-0.38547 3.55636,-0.79864 5.28204,-1.28397c3.26439,-0.91887 6.74285,-1.52886 10.1848,-1.77391c2.08486,-0.14867 8.75217,-1.57448 9.37432,0.49126c1.15758,2.70482 0.87236,5.41006 0.58958,8.21002c0.37012,2.75132 0.01704,5.64617 0.46077,8.19961c-0.2751,2.04044 -0.01703,4.01936 -0.00475,6.00441c0.30843,1.22435 0.2621,2.53333 -0.19246,3.78475c0.01102,0.25525 0.03135,0.51421 0.05995,0.76882c0.23178,0.30822 0.43551,0.63206 0.61272,0.96115z" data-paper-data="{&quot;noHover&quot;:false,&quot;origItem&quot;:[&quot;Path&quot;,{&quot;applyMatrix&quot;:true,&quot;segments&quot;:[[[206.22528,311.10278],[-0.076,0.14772],[-0.23313,0.33435]],[[205.50647,312.08719],[0.2466,-0.3214],[-0.11945,0.1434]],[[205.16023,312.52721],[0.11133,-0.14989],[-0.00884,0.01095]],[[205.13368,312.56003],[0.00886,-0.01093],[-2.16874,2.66525]],[[199.05819,321.00527],[1.75534,-2.95141],[-1.72565,3.05512]],[[193.17492,329.70773],[2.27399,-2.67111],[-0.96485,1.12469]],[[190.63795,333.32935],[0.87437,-1.1591],[-0.18477,0.24494]],[[189.41105,334.72993],[0.0123,-0.24563],[-0.0476,0.95059]],[[192.43121,336.74476],[-0.62818,-0.26689],[3.26993,1.32272]],[[202.31051,340.1611],[-3.29854,-1.24425],[3.20014,1.20884]],[[212.36854,342.79328],[-3.2601,-0.79933],[1.77645,0.43556]],[[217.63201,344.3177],[-1.78182,-0.35984],[0.29327,0.05923]],[[219.42221,344.84806],[-0.18001,0.05845],[0.32174,-0.10447]],[[220.41698,342.2361],[-0.12157,0.36618],[1.09168,-3.28836]],[[224.09815,332.39022],[-1.44715,3.14418],[1.46689,-3.18706]],[[228.11281,322.69526],[-1.51061,3.16233],[1.49251,-3.12261]],[[231.93678,312.93084],[-1.69774,3.07423],[1.68398,-3.03725]],[[236.85193,303.74244],[-1.64535,2.99067],[1.67345,-3.00014]],[[242.30248,294.90297],[-1.35319,3.15442],[0.18144,-0.64004]],[[243.33531,292.73749],[-0.02697,0.56971],[0.03356,-0.7088]],[[241.83741,291.12844],[0.45334,0.33021],[-1.47927,-1.07748]],[[237.47404,287.75677],[1.39817,1.18082],[-2.64453,-2.23467]],[[228.75106,282.07649],[3.11009,1.50633],[-1.88374,-0.91271]],[[219.77944,279.33794],[1.50008,-2.20526],[-2.28487,2.76608]],[[215.58548,288.76945],[0.98011,-3.38775],[-1.5691,3.09947]],[[211.52455,298.23142],[1.54999,-2.84108],[-0.64969,2.49322]],[[208.8806,305.26997],[0.89383,-2.32645],[-0.83268,1.3284]],[[207.38995,309.7608],[0.13113,-1.63031],[-0.12377,0.2958]],[[206.99317,310.63735],[0.13993,-0.28883],[-0.35376,0.27984]],[[205.99345,311.54388],[0.31201,-0.32368],[0.07845,-0.14639]]],&quot;closed&quot;:true}]}" fill="#4f4200"/></g><path d="M248.87033,91.31578c20.80042,54.48613 42.66687,74.63664 42.66591,74.63642c-3.8463,2.07188 -16.91144,-0.04515 -16.91144,-0.04515c6.16875,26.85973 35.45449,53.74928 35.45449,53.74928c-4.70431,0.87077 -19.73247,-0.71859 -19.73247,-0.71859c3.79789,9.86624 34.32842,25.10341 34.32842,25.10341c-2.28563,4.43459 -28.01849,11.3736 -28.01849,11.3736c18.73122,15.03939 39.41818,23.20296 39.41818,23.20296c-31.85335,11.2115 -60.31359,15.26497 -84.89417,15.20583c-0.05068,-0.00298 -0.10135,-0.00563 -0.15199,-0.008c-0.39327,-0.01828 -0.78514,-0.01779 -1.17377,0.0008c-65.74448,-0.55533 -103.35223,-30.47209 -103.35223,-30.47209c20.88977,-6.47704 42.85436,-25.14076 42.85436,-25.14076c-9.29194,-0.22089 -22.57559,-5.3761 -22.57559,-5.3761c24.57439,-6.09672 41.35115,-27.99024 41.35115,-27.99024c-9.97839,1.60504 -20.2185,-0.83351 -20.2185,-0.83351c22.95609,-10.96134 34.09603,-41.40906 34.09603,-41.40906c-6.70743,2.88445 -10.77142,0.66466 -10.77142,0.66466c28.5422,-21.08276 37.63148,-71.94348 37.63148,-71.94348z" data-paper-data="{&quot;index&quot;:null}" fill="#13600f" stroke="#000000" stroke-width="0.25"/><path d="M257.6219,165.02378c-0.50249,-0.25185 -0.14448,-0.92478 0.435,-0.76682c4.13033,1.13656 8.69151,1.06968 12.98713,0.45905c2.39493,-0.34081 5.041,-1.66766 7.556,-1.06874c2.42493,0.57746 1.39279,1.8896 3.35231,0.99035c1.8837,-0.8641 3.90807,-0.53749 5.87103,-0.05839c0.01225,-0.01039 0.01914,-0.02038 0.02851,-0.03145c0.34137,-0.39506 0.76486,-0.69741 1.23576,-0.91199c-0.65326,-0.65935 -0.48003,-1.84931 0.55679,-2.19515c4.56313,-1.51794 8.3303,0.45825 8.63116,4.38647c0.26035,3.35494 -2.88915,4.19609 -5.94318,3.70409c-0.87719,0.9716 -2.19977,1.45306 -3.86763,1.13321c-1.12329,-0.21347 -3.3993,-1.28504 -4.54363,-0.88915c-1.17909,0.40506 -2.28051,0.79786 -3.59716,0.77695c-2.29002,-0.04155 -3.55254,-1.76379 -4.00549,-3.30987c0.08145,0.27795 -7.84637,0.04606 -8.07261,0.04539c-3.69471,-0.00029 -7.48757,-0.68736 -10.624,-2.26394z" data-paper-data="{&quot;index&quot;:null}" fill="#fdfdfd" stroke="#000000" stroke-width="0.25"/><path d="M207.27912,163.97317c-2.51947,-2.20529 -0.33705,-5.20546 3.04125,-5.41603c5.91529,-0.36542 11.95456,1.00209 17.52059,-1.03269c3.03204,-1.1094 5.90725,-1.43396 9.19937,-1.37324c3.73627,0.06756 6.00192,0.80246 9.85705,-0.27803c2.83835,-0.79638 4.41307,-0.43137 7.06546,0.61345c0.65976,0.26103 0.1536,1.109 -0.5283,0.92916c-6.33789,-1.67307 -5.92088,1.97356 -10.68848,2.2066c-2.83224,0.13775 -5.39275,-0.07295 -8.21566,0.41535c-3.48195,0.60072 -6.8197,3.03062 -10.23774,4.06723c-3.15099,0.95636 -6.94976,0.60207 -10.45544,0.65428c-1.09573,0.91708 -2.84176,1.30602 -4.72829,0.42031c-0.70947,-0.33438 -1.274,-0.72404 -1.82982,-1.2064z" data-paper-data="{&quot;index&quot;:null}" fill="#fdfdfd" stroke="#000000" stroke-width="0.25"/><path d="M245.56287,139.41664c-0.32285,-0.21322 -0.02119,-0.66098 0.36149,-0.64051c3.82839,0.20588 6.17582,-1.19291 9.60833,-1.88438c2.50019,-0.50448 4.91105,0.06881 7.44042,-0.54677c2.64082,-0.64556 5.60345,-0.17698 8.02281,0.952c0.85226,-0.2518 1.80779,-0.24205 2.59181,0.1051c1.09318,0.02674 2.12193,0.54772 2.46709,1.7331c0.33159,1.13809 0.28777,1.83595 0.04851,2.97943c-0.14231,0.67108 -0.60061,1.10232 -1.18572,1.36535c-1.31556,1.39428 -4.70379,1.46448 -5.80814,-0.30656c-0.97345,-1.56362 -4.38507,-1.67857 -6.29132,-2.14748c-2.45505,-0.60293 -4.44343,-2.41571 -7.26438,-1.73241c-3.65297,0.88671 -6.76421,2.24327 -9.99094,0.12311z" data-paper-data="{&quot;index&quot;:null}" fill="#fdfdfd" stroke="#000000" stroke-width="0.25"/><path d="M245.27007,91.64474c-0.8441,-2.82304 4.55281,-3.85393 5.47772,-1.05986c1.28761,3.90216 4.13749,7.21533 5.91052,10.95875c1.47238,3.10402 0.90663,6.15165 1.9281,9.2863c0.34741,1.06537 -1.07901,1.61771 -2.13796,1.23003c-1.84796,-0.67701 -2.62998,-1.86084 -3.06633,-3.20926c-0.89381,0.35412 -2.02792,0.31682 -2.89292,-0.40127c-0.10797,-0.1712 -0.20985,-0.31684 -0.30925,-0.45523c-0.02231,0.01216 -0.04586,0.02483 -0.06653,0.0382c-0.23825,-0.35518 -0.51415,-0.64618 -0.80439,-0.90733c-0.32955,-0.12586 -0.5437,0.14155 -0.63359,0.82595c-0.78513,2.10835 -5.20708,1.66802 -4.90077,-0.61338c0.55274,-4.0974 2.44519,-7.5374 2.11114,-11.73871c-0.03323,-0.40363 0.07223,-0.73183 0.26483,-0.99191c-0.26613,-0.95374 -0.5715,-1.93095 -0.88056,-2.96225z" data-paper-data="{&quot;index&quot;:null}" fill="#fdfdfd" stroke="#000000" stroke-width="0.25"/><path d="M186.36292,205.38918c-4.45832,-0.6826 -3.06025,-6.11167 1.20306,-6.09402l1.23474,0.00556c1.13791,0.00495 1.99595,0.34395 2.61213,0.849c4.99738,1.3181 10.75415,2.82367 15.59366,1.1895c2.12869,-0.71597 5.49769,-1.83325 7.83885,-1.06041c4.21529,1.39122 8.39054,1.93825 12.984,2.76692c0.06243,-0.10236 0.14288,-0.19709 0.19849,-0.30356c0.41274,-0.64076 1.5074,-1.07675 2.39326,-1.02874c2.66763,0.14229 5.55464,1.46576 8.08774,0.76795c0.37869,-0.10518 0.87409,-0.00965 1.20043,0.15536c4.78023,2.38039 5.54665,3.23877 10.83077,2.81698c0.65922,-0.05168 0.83908,0.751 0.29175,0.96898c-2.86199,1.13741 -6.14367,1.89973 -9.10885,0.31737c-2.88401,-1.53725 -1.86841,-1.52069 -4.43246,-0.4179c-1.39419,0.59992 -3.58036,0.17326 -5.38462,-0.07517c-0.13398,0.18175 -0.24709,0.35518 -0.40577,0.54434c-0.76328,0.90729 -1.91851,1.15426 -3.20797,0.96359c-5.75256,-0.84948 -11.48047,1.9864 -15.71006,-2.42266c-1.06584,-1.11176 -8.89526,1.11645 -10.9497,1.28978c-5.18392,0.43567 -10.20953,-0.45684 -15.26949,-1.23284z" data-paper-data="{&quot;index&quot;:null}" fill="#fdfdfd" stroke="#000000" stroke-width="0.25"/><path d="M268.61895,216.25254c-0.88901,-0.62905 0.34227,-1.77655 1.31017,-1.26589c4.29746,2.26791 6.61801,-1.38939 10.79818,-0.39393c1.66229,0.39586 2.4295,0.96013 3.3858,2.0217c-0.00135,-0.00198 4.37249,0.34126 4.70552,0.4106c6.8101,1.42721 14.85934,-0.90826 21.94867,-0.10539c1.85394,0.20787 3.55026,0.9635 3.97999,2.54644c0.02991,0.10938 0.06106,0.21824 0.08907,0.32715c0.34756,1.27908 -0.3427,2.62024 -1.81462,3.24654c-2.93943,1.252 -7.60952,-0.30406 -10.79004,-0.51194c-3.63611,-0.23989 -7.51503,-0.00804 -11.05036,-0.81669c-3.26744,-0.74652 -8.72836,-0.46825 -10.75358,-2.98648c-1.4423,-1.79664 -5.66587,-0.34916 -7.93985,-0.5224c-1.56531,-0.11754 -2.78876,-1.18203 -3.86894,-1.94971z" data-paper-data="{&quot;index&quot;:null}" fill="#fdfdfd" stroke="#000000" stroke-width="0.25"/><path d="M236.11852,185.23389c-1.14106,-0.23847 -0.84359,-1.65656 0.32145,-1.62105c2.99217,0.09236 6.06135,1.40602 8.94241,0.11768c0.75992,-0.33946 2.19603,-0.46717 2.94697,-0.221c4.00238,1.31891 6.21245,3.49209 11.76113,1.45067c2.47069,-0.90971 4.12749,-2.91274 7.15103,-2.85945c1.31734,0.0219 2.83052,0.77049 3.7822,1.4078c2.46623,1.65475 3.53089,-0.76448 5.15598,-1.46237c3.11787,-1.34085 5.69156,0.05266 7.44239,1.9394c4.35399,0.49066 6.90785,3.51637 5.19999,7.20981c-0.83166,1.80131 -3.94081,1.60626 -4.4658,-0.10661c-0.01465,0.00566 -0.02681,0.01024 -0.04251,0.01316c-0.67262,-0.26575 -1.34963,-0.53088 -2.02473,-0.79558c-1.76584,0.336 -3.66149,-0.32243 -4.52072,-1.60363c-0.48734,-0.72874 -5.49603,-0.01192 -7.5934,-0.76411c-5.02275,-1.7955 -8.38676,1.0297 -13.35361,1.40981c-3.48655,0.26543 -6.47758,-1.37878 -8.94118,-3.07114c-0.97769,-0.67094 -3.81557,0.68587 -4.81096,0.66831c-2.28649,-0.03987 -4.75001,-1.25419 -6.95067,-1.71174z" data-paper-data="{&quot;index&quot;:null}" fill="#fdfdfd" stroke="#000000" stroke-width="0.25"/><path d="M165.38282,235.41646c-4.78978,-2.75259 0.21495,-9.03118 4.85926,-6.18021c0.73583,0.84529 1.69797,1.17666 2.89074,0.99931c1.74371,-0.65802 4.03102,-0.55642 5.35746,0.69803c4.4669,4.2328 15.38808,3.36105 21.81415,5.169c2.94063,0.82748 4.35409,-1.13624 7.31815,-1.08299c1.7495,0.03004 6.11343,2.94393 7.35213,1.92124c0.9369,-0.77202 2.9242,-1.01121 4.02021,-0.30794c2.449,1.57001 13.48782,5.44826 16.38525,3.33497c0.40663,-0.29639 1.0953,0.02391 0.92206,0.45485c-0.99142,2.46327 -2.41096,3.48944 -5.78233,3.15048c-3.90053,-0.39181 -8.28666,-0.59667 -12.18483,-1.57318c-1.62128,1.3273 -3.41271,1.80934 -6.33641,1.38163c-2.34296,-0.34264 -3.09355,-2.82252 -5.83384,-1.30862c-1.33071,0.73392 -3.23032,1.01479 -4.79781,0.76954c-5.67005,-0.88303 -10.96558,-2.0352 -16.76875,-2.58581c-3.83777,-0.36441 -7.35053,-1.11363 -10.30132,-2.84552c-3.14735,0.638 -5.63666,-0.11274 -8.91416,-1.99476z" data-paper-data="{&quot;index&quot;:null}" fill="#fdfdfd" stroke="#000000" stroke-width="0.25"/><path d="M246.04651,254.14501c-0.18725,-0.15182 0.01785,-0.45631 0.2849,-0.36694c4.02225,1.34108 7.89033,-1.76478 11.97272,-1.48761c1.02246,0.07058 1.80236,0.83741 2.52034,1.31598c2.19448,1.46948 6.37736,0.53355 8.88163,0.23789c4.77228,-0.56529 9.66314,-4.54407 14.31272,-4.22079c3.60172,0.25083 5.85277,1.35552 7.9033,3.16399c1.3903,-0.4005 2.80097,-0.49103 4.57406,-0.36809c5.40125,0.37841 8.04167,-3.54437 12.20124,-5.33299c3.05441,-1.31356 5.95019,-0.90329 8.89491,-3.13417c1.10435,-0.83438 2.36336,-1.37172 3.70857,-1.74387c1.16056,-1.6598 3.71239,-2.73559 6.2965,-1.43934c2.21236,1.11044 2.65675,2.3818 2.77135,4.37605c0.12085,2.08884 -2.2902,3.39016 -4.60895,3.51968c-5.05996,0.28064 -7.66601,4.44273 -13.37809,4.29456c-1.90155,-0.05046 -5.23094,1.59252 -7.23777,1.92267c-3.85652,0.63373 -8.57558,1.32973 -11.7775,3.28654c-1.51247,0.92341 -3.37595,0.98011 -4.79005,-0.12978c-3.67848,-2.88532 -11.5205,1.18378 -16.16583,0.71852c-3.65023,-0.36629 -7.44405,-0.74766 -10.96387,-1.63658c-3.78922,-0.95807 -4.23296,-2.31739 -8.82599,-1.39268c-2.96578,0.59644 -4.45314,0.14331 -6.57417,-1.58301z" data-paper-data="{&quot;index&quot;:null}" fill="#fdfdfd" stroke="#000000" stroke-width="0.25"/><path d="M138.09349,262.58208c0.11715,-3.1844 4.56043,-5.03928 7.94529,-3.4127c-0.14716,-0.0417 -0.29463,-0.08263 -0.44524,-0.12349c0.77145,0.26934 1.43045,0.67982 1.95697,1.17349c-0.42814,-1.30074 6.1456,2.19092 7.25742,2.98275c1.37899,0.98099 2.39926,2.03617 3.22778,3.17953c9.44374,0.43659 18.79878,10.0907 25.9068,13.66887c8.42322,4.23969 21.29518,4.23819 30.72558,6.38416c5.34964,1.21658 10.32437,1.83595 15.8661,2.10982c4.96853,0.24378 9.57579,1.97276 14.62522,0.95555c6.86236,-1.37859 13.53643,-0.53995 20.39237,-1.42873c1.73761,-0.22466 7.25678,1.37729 8.49083,0.55884c1.69192,-1.12342 3.76449,-2.2543 6.09023,-2.21339c2.99979,0.05262 4.8518,1.63923 7.80623,0.27776c3.16188,-1.46089 6.66578,-0.83265 9.85855,-2.17562c4.36955,-1.83921 9.58253,-3.71199 14.61529,-3.5003c3.09299,-1.65271 6.07609,-0.46845 10.73706,-1.94396c2.54371,-0.80669 4.84574,-0.89446 7.51937,-0.77652c3.1791,0.13937 5.04924,-1.32817 7.89963,-1.74509c2.48417,-0.36446 4.60287,2.14942 2.45044,3.61543c-1.32869,0.90649 -2.76011,3.96911 -7.06042,5.06496c-4.75802,1.21132 -10.68336,1.7564 -16.00493,1.93317c-1.27124,1.38738 -3.2449,1.98231 -5.3623,1.55041c-2.66216,-0.54333 -6.25431,1.80521 -8.64581,2.45943c-4.11052,1.1186 -9.77525,-0.7824 -13.16065,1.52976c-4.22129,2.88458 -8.92746,-0.7609 -12.38591,1.81817c-4.2675,3.18283 -8.59359,-0.05707 -13.04432,1.25319c-2.44493,0.72142 -4.38543,1.26055 -6.92538,1.25185c-2.7129,1.00537 -5.22548,1.75076 -6.95318,1.25047c-0.93672,-0.27123 -4.15585,0.80316 -8.30097,0.08509c-15.39711,-0.77156 -30.65915,-6.24318 -45.49397,-9.49264c-7.46559,-1.63569 -14.6126,-3.09407 -21.08957,-6.56269c-2.22855,-1.19244 -6.66185,-1.84997 -9.27805,-2.89946c-2.52123,-1.00776 -6.71341,-5.20506 -9.93318,-3.53432c-3.52027,1.82613 -7.29188,-0.44124 -8.53732,-3.0265c-2.15258,-4.45897 -10.94378,-4.77093 -10.74997,-10.26731z" data-paper-data="{&quot;index&quot;:null}" fill="#fdfdfd" stroke="#000000" stroke-width="0.25"/></g></g></svg>