<svg version="1.1" xmlns="http://www.w3.org/2000/svg" xmlns:xlink="http://www.w3.org/1999/xlink" width="262.77406" height="308.52545" viewBox="0,0,262.77406,308.52545"><g transform="translate(-161.76062,-79.22866)"><g data-paper-data="{&quot;isPaintingLayer&quot;:true}" fill-rule="nonzero" stroke-linecap="butt" stroke-linejoin="miter" stroke-miterlimit="10" stroke-dasharray="" stroke-dashoffset="0" style="mix-blend-mode: normal"><g stroke="none" stroke-width="0"><path d="M263.71297,308.16985v-14.69127h11.65149v14.69127z" fill="#af4a05"/><path d="M307.2078,315.1822l-24.12133,17.77135l-5.43014,-7.37041l24.12134,-17.77134z" fill="#af4a05"/><path d="M246.80684,380.11197l21.70035,-20.65803l6.31218,6.63067l-21.70035,20.65803z" fill="#af4a05"/><path d="M250.11306,369.47236v-65.19285h33.01255v65.19285z" fill="#ed731a"/><path d="M258.43555,307.05368v-14.69126h11.65149v14.69126z" fill="#ed731a"/><path d="M279.80669,337.93693l28.60242,-8.91969l2.72546,8.73963l-28.60242,8.91969z" fill="#ed731a"/><path d="M282.84593,387.75411l-21.16516,-21.20603l6.47962,-6.46713l21.16515,21.20603z" fill="#ed731a"/><path d="M271.47412,337.56948v-25.24489h7.76766v25.24489z" fill="#ffffff"/></g><g stroke="none" stroke-width="0.5"><path d="M305.23023,305.06091c-0.01018,-0.17419 -0.02605,-0.34871 -0.04829,-0.52357c-0.3304,-2.88545 0.29381,-5.65637 -0.01159,-8.5757c0.58136,-2.60187 0.1546,-5.62169 0.5835,-8.43447c-0.25511,-2.91766 -0.47726,-5.76049 0.74056,-8.56147c0.77813,-2.52767 7.50952,-0.89343 9.89684,-0.69245c3.4797,0.29338 6.97124,0.96602 10.26041,1.9589c1.5708,0.47455 6.95224,1.02138 7.51422,2.45986c0.19972,0.51123 -0.25841,1.48776 -0.20742,2.0819c-0.21108,2.84132 -1.56966,5.60332 -2.10859,8.4158c-0.55333,2.76915 -0.93971,5.64849 -1.47984,8.46707c-0.54991,2.83819 0.08093,5.76218 -0.25388,8.58171c-0.34058,2.86125 -0.17043,5.73158 -0.45992,8.59995c-0.28434,2.81735 -0.19114,5.75468 -0.09409,8.58332c0.0172,0.50111 0.28092,2.25877 -0.2186,2.61859c-0.16312,0.11751 -1.35476,0.09674 -1.62347,0.12542c-1.98684,0.21208 -3.97904,0.18463 -5.97743,0.36292c-3.35778,0.29955 -6.97138,0.82798 -10.41233,0.79271c-3.52906,-0.03759 -6.93802,0.23844 -10.46798,0.13484c-0.95188,-0.04148 -3.5971,0.02632 -3.98237,-0.99631c-0.09418,-0.24996 0.40976,-1.02838 0.51875,-1.28447c0.55088,-1.29461 0.7305,-2.61583 1.31189,-3.91036c1.2142,-2.67591 1.95885,-5.47592 2.53219,-8.29313c0.64559,-2.78886 1.70907,-5.59944 2.84428,-8.28227c0.49658,-1.16642 0.84154,-2.39034 1.14315,-3.62883zM304.7376,307.52522c-0.10487,0.32334 -0.21726,0.64397 -0.3392,0.9611c-0.06326,0.14414 -0.12165,0.28974 -0.17506,0.43659c-0.00457,0.01093 -0.00916,0.02185 -0.01375,0.03278c-1.1276,2.66458 -2.18308,5.4503 -2.82437,8.21971c-0.57796,2.8411 -1.33134,5.66565 -2.55585,8.36427c-0.52252,1.13835 -0.72117,2.3662 -1.1469,3.50572c-0.08996,0.2408 -0.74691,1.23174 -0.67454,1.42469c0.28005,0.74674 2.84526,0.67765 3.52682,0.70737c3.52509,0.10334 6.92687,-0.16998 10.45203,-0.13521c3.42058,0.03505 7.01506,-0.49264 10.35207,-0.79034c1.81836,-0.16222 3.67003,-0.07805 5.46756,-0.3002c0.29585,-0.03656 1.71447,0.00264 1.86367,-0.09294c0.26669,-0.17084 0.05335,-1.97758 0.04247,-2.2942c-0.09755,-2.84322 -0.1902,-5.79709 0.0956,-8.62877c0.28969,-2.87032 0.12136,-5.74238 0.46058,-8.60588c0.33579,-2.82777 -0.28755,-5.75797 0.25765,-8.60598c0.54489,-2.81563 0.95544,-5.69878 1.47995,-8.46764c0.54768,-2.78404 1.90837,-5.53536 2.10236,-8.34859c-0.04815,-0.54469 0.40011,-1.51328 0.2308,-1.9604c-0.21063,-0.55626 -1.41862,-0.69367 -1.95752,-0.82127c-1.75839,-0.41639 -3.5353,-0.85859 -5.25278,-1.37745c-3.24889,-0.98234 -6.70122,-1.64595 -10.1388,-1.93578c-2.08222,-0.17582 -8.71106,-1.71859 -9.36738,0.40355c-1.20228,2.77495 -0.95546,5.5643 -0.71911,8.45291c-0.41568,2.8314 -0.09768,5.81241 -0.58368,8.4391c0.24127,2.10579 -0.03482,4.12633 -0.07998,6.17195c-0.3287,1.25843 -0.30035,2.58827 0.13344,3.88286c-0.01526,0.26293 -0.04059,0.52548 -0.07342,0.78756c-0.23685,0.31513 -0.44719,0.64258 -0.62982,0.97982c0.02371,-0.13494 0.04622,-0.27006 0.06718,-0.40535z" fill="#000000"/><path d="M304.53251,307.85632c0.17721,-0.33918 0.38094,-0.67295 0.61272,-0.99062c0.0286,-0.26242 0.04893,-0.52932 0.05995,-0.79239c-0.45456,-1.28978 -0.50089,-2.6389 -0.19246,-3.90078c0.01228,-2.04591 0.27035,-4.08551 -0.00475,-6.1885c0.44373,-2.63173 0.09065,-5.61533 0.46077,-8.45101c-0.28278,-2.8858 -0.568,-5.67398 0.58958,-8.46173c0.62215,-2.12907 7.28946,-0.65955 9.37432,-0.50632c3.44195,0.25256 6.92041,0.88125 10.1848,1.8283c1.72568,0.5002 3.51709,0.92604 5.28204,1.32333c0.54089,0.12175 1.75378,0.24747 1.97335,0.80142c0.17648,0.44523 -0.25464,1.41947 -0.19772,1.96359c-0.14874,2.81509 -1.45766,5.58631 -1.96054,8.37603c-0.47994,2.77429 -0.83315,5.67708 -1.33274,8.49836c-0.49937,2.85367 0.17006,5.80405 -0.12023,8.6352c-0.29316,2.86692 -0.09194,5.75274 -0.33545,8.62594c-0.24024,2.83454 -0.10954,5.79261 0.03371,8.63454c0.01596,0.31646 0.25651,2.12151 -0.00741,2.29523c-0.14766,0.09718 -1.56921,0.07427 -1.86445,0.11404c-1.7938,0.24161 -3.65465,0.17967 -5.47025,0.36159c-3.33194,0.33384 -6.93426,0.90137 -10.35511,0.90338c-3.52541,0.00343 -6.93733,0.31045 -10.46376,0.24531c-0.68198,-0.02234 -3.25042,0.0727 -3.54245,-0.67095c-0.07546,-0.19216 0.56513,-1.1903 0.65121,-1.43205c0.40736,-1.14403 0.58453,-2.37477 1.0887,-3.51869c1.18101,-2.71166 1.88198,-5.54838 2.41421,-8.3955c0.59672,-2.77611 1.59472,-5.58747 2.67936,-8.26403c0.00441,-0.01098 0.00877,-0.02205 0.01316,-0.03303c0.05105,-0.14743 0.10635,-0.29515 0.16728,-0.43997c0.11683,-0.31843 0.22255,-0.64407 0.32221,-0.96852c-0.01878,0.1355 -0.03848,0.27263 -0.06001,0.40781z" data-paper-data="{&quot;noHover&quot;:false,&quot;origItem&quot;:[&quot;Path&quot;,{&quot;applyMatrix&quot;:true,&quot;segments&quot;:[[[206.22528,311.10278],[-0.076,0.14772],[-0.23313,0.33435]],[[205.50647,312.08719],[0.2466,-0.3214],[-0.11945,0.1434]],[[205.16023,312.52721],[0.11133,-0.14989],[-0.00884,0.01095]],[[205.13368,312.56003],[0.00886,-0.01093],[-2.16874,2.66525]],[[199.05819,321.00527],[1.75534,-2.95141],[-1.72565,3.05512]],[[193.17492,329.70773],[2.27399,-2.67111],[-0.96485,1.12469]],[[190.63795,333.32935],[0.87437,-1.1591],[-0.18477,0.24494]],[[189.41105,334.72993],[0.0123,-0.24563],[-0.0476,0.95059]],[[192.43121,336.74476],[-0.62818,-0.26689],[3.26993,1.32272]],[[202.31051,340.1611],[-3.29854,-1.24425],[3.20014,1.20884]],[[212.36854,342.79328],[-3.2601,-0.79933],[1.77645,0.43556]],[[217.63201,344.3177],[-1.78182,-0.35984],[0.29327,0.05923]],[[219.42221,344.84806],[-0.18001,0.05845],[0.32174,-0.10447]],[[220.41698,342.2361],[-0.12157,0.36618],[1.09168,-3.28836]],[[224.09815,332.39022],[-1.44715,3.14418],[1.46689,-3.18706]],[[228.11281,322.69526],[-1.51061,3.16233],[1.49251,-3.12261]],[[231.93678,312.93084],[-1.69774,3.07423],[1.68398,-3.03725]],[[236.85193,303.74244],[-1.64535,2.99067],[1.67345,-3.00014]],[[242.30248,294.90297],[-1.35319,3.15442],[0.18144,-0.64004]],[[243.33531,292.73749],[-0.02697,0.56971],[0.03356,-0.7088]],[[241.83741,291.12844],[0.45334,0.33021],[-1.47927,-1.07748]],[[237.47404,287.75677],[1.39817,1.18082],[-2.64453,-2.23467]],[[228.75106,282.07649],[3.11009,1.50633],[-1.88374,-0.91271]],[[219.77944,279.33794],[1.50008,-2.20526],[-2.28487,2.76608]],[[215.58548,288.76945],[0.98011,-3.38775],[-1.5691,3.09947]],[[211.52455,298.23142],[1.54999,-2.84108],[-0.64969,2.49322]],[[208.8806,305.26997],[0.89383,-2.32645],[-0.83268,1.3284]],[[207.38995,309.7608],[0.13113,-1.63031],[-0.12377,0.2958]],[[206.99317,310.63735],[0.13993,-0.28883],[-0.35376,0.27984]],[[205.99345,311.54388],[0.31201,-0.32368],[0.07845,-0.14639]]],&quot;closed&quot;:true}]}" fill="#4f4200"/></g><path d="M313.62972,81.80536c0,0 9.08928,52.42006 37.63148,74.1492c0,0 -4.06399,2.28784 -10.77142,-0.68504c0,0 11.13994,31.38122 34.09603,42.67863c0,0 -10.24011,2.51331 -20.2185,0.85906c0,0 16.77676,22.56475 41.35115,28.84839c0,0 -13.28365,5.31327 -22.57559,5.54093c0,0 21.96459,19.23593 42.85436,25.91155c0,0 -37.60775,30.83398 -103.35223,31.40634c-0.38863,-0.01916 -0.7805,-0.01967 -1.17377,-0.00083c-0.05064,0.00244 -0.10131,0.00517 -0.15199,0.00824c-24.58058,0.06095 -53.04082,-4.11679 -84.89417,-15.67203c0,0 20.68696,-8.41385 39.41818,-23.91434c0,0 -25.73286,-7.15175 -28.01849,-11.7223c0,0 30.53053,-15.70433 34.32842,-25.87305c0,0 -15.02816,1.6381 -19.73247,0.74063c0,0 29.28574,-27.71396 35.45449,-55.39719c0,0 -13.06514,2.18193 -16.91144,0.04653c-0.00096,0.00023 21.86549,-20.76808 42.66591,-76.9247z" fill="#13600f" stroke="#000000" stroke-width="0.25"/><path d="M304.87811,157.77318c-3.13643,1.62491 -6.92929,2.33305 -10.624,2.33335c-0.22624,0.00069 -8.15406,0.23969 -8.07261,-0.04678c-0.45295,1.59349 -1.71547,3.36853 -4.00549,3.41135c-1.31665,0.02156 -2.41807,-0.38329 -3.59716,-0.80077c-1.14433,-0.40803 -3.42034,0.69639 -4.54363,0.91641c-1.66786,0.32967 -2.99044,-0.16656 -3.86763,-1.16795c-3.05403,0.50709 -6.20353,-0.35985 -5.94318,-3.81765c0.30086,-4.04866 4.06803,-6.08543 8.63116,-4.52096c1.03682,0.35644 1.21005,1.58288 0.55679,2.26245c0.4709,0.22116 0.89439,0.53278 1.23576,0.93995c0.00937,0.01141 0.01626,0.02171 0.02851,0.03242c1.96296,-0.49378 3.98733,-0.83041 5.87103,0.06018c1.95952,0.92682 0.92738,-0.42555 3.35231,-1.02072c2.515,-0.61727 5.16107,0.75026 7.556,1.10151c4.29562,0.62935 8.8568,0.69828 12.98713,-0.47312c0.57948,-0.1628 0.93749,0.53077 0.435,0.79033z" fill="#fdfdfd" stroke="#000000" stroke-width="0.25"/><path d="M355.22089,156.69036c-0.55582,0.49714 -1.12035,0.89875 -1.82982,1.24338c-1.88653,0.91286 -3.63256,0.512 -4.72829,-0.4332c-3.50568,-0.0538 -7.30445,0.31134 -10.45544,-0.67434c-3.41804,-1.06839 -6.75579,-3.57279 -10.23774,-4.19192c-2.82291,-0.50327 -5.38342,-0.28611 -8.21566,-0.42809c-4.7676,-0.24018 -4.35059,-3.99861 -10.68848,-2.27425c-0.6819,0.18536 -1.18806,-0.68861 -0.5283,-0.95764c2.65239,-1.07685 4.22711,-1.45305 7.06546,-0.63226c3.85513,1.11361 6.12078,0.35618 9.85705,0.28655c3.29212,-0.06258 6.16733,0.27193 9.19937,1.41534c5.56603,2.09717 11.6053,0.68773 17.52059,1.06436c3.3783,0.21702 5.56072,3.30917 3.04125,5.58208z" fill="#fdfdfd" stroke="#000000" stroke-width="0.25"/><path d="M316.93717,131.38094c-3.22673,2.18517 -6.33797,0.78702 -9.99094,-0.12688c-2.82095,-0.70425 -4.80933,1.16411 -7.26438,1.78553c-1.90625,0.48328 -5.31787,0.60176 -6.29132,2.21332c-1.10435,1.82533 -4.49258,1.75299 -5.80814,0.31596c-0.58511,-0.27109 -1.04341,-0.71556 -1.18572,-1.40721c-0.23926,-1.17854 -0.28308,-1.8978 0.04851,-3.07078c0.34516,-1.22172 1.37391,-1.75867 2.46709,-1.78623c0.78402,-0.35779 1.73955,-0.36784 2.59181,-0.10832c2.41936,-1.1636 5.38199,-1.64654 8.02281,-0.98119c2.52937,0.63445 4.94023,0.04358 7.44042,0.56353c3.43251,0.71267 5.77994,2.15434 9.60833,1.94215c0.38268,-0.0211 0.68434,0.44038 0.36149,0.66014z" fill="#fdfdfd" stroke="#000000" stroke-width="0.25"/><path d="M317.22992,82.14442c-0.30906,1.06292 -0.61443,2.07009 -0.88056,3.05307c0.1926,0.26805 0.29806,0.60631 0.26483,1.02232c-0.33405,4.33013 1.5584,7.87559 2.11114,12.09861c0.30631,2.35135 -4.11564,2.80518 -4.90077,0.63219c-0.08989,-0.70538 -0.30404,-0.98098 -0.63359,-0.85127c-0.29024,0.26916 -0.56614,0.56908 -0.80439,0.93515c-0.02067,-0.01378 -0.04422,-0.02684 -0.06653,-0.03937c-0.0994,0.14263 -0.20128,0.29274 -0.30925,0.46919c-0.865,0.74011 -1.99911,0.77855 -2.89292,0.41357c-0.43635,1.38976 -1.21837,2.60989 -3.06633,3.30765c-1.05895,0.39957 -2.48537,-0.16971 -2.13796,-1.26774c1.02147,-3.23075 0.45572,-6.37182 1.9281,-9.571c1.77303,-3.85819 4.62291,-7.27294 5.91052,-11.29473c0.92491,-2.87973 6.32182,-1.81723 5.47772,1.09236z" fill="#fdfdfd" stroke="#000000" stroke-width="0.25"/><path d="M376.13712,199.37618c-5.05996,0.79979 -10.08557,1.71966 -15.26949,1.27064c-2.05444,-0.17865 -9.88386,-2.47517 -10.9497,-1.32932c-4.22959,4.54424 -9.9575,1.62141 -15.71006,2.49694c-1.28946,0.19652 -2.44469,-0.05802 -3.20797,-0.99313c-0.15868,-0.19496 -0.27179,-0.3737 -0.40577,-0.56103c-1.80426,0.25605 -3.99043,0.69579 -5.38462,0.07748c-2.56405,-1.13661 -1.54845,-1.15366 -4.43246,0.43071c-2.96518,1.63087 -6.24686,0.84518 -9.10885,-0.3271c-0.54733,-0.22467 -0.36747,-1.05195 0.29175,-0.99869c5.28412,0.43472 6.05054,-0.44998 10.83077,-2.90335c0.32634,-0.17006 0.82174,-0.26852 1.20043,-0.16012c2.5331,0.71921 5.42011,-0.64484 8.08774,-0.79149c0.88586,-0.04949 1.98052,0.39987 2.39326,1.06028c0.05561,0.10973 0.13606,0.20737 0.19849,0.31287c4.59346,-0.85408 8.76871,-1.41788 12.984,-2.85175c2.34116,-0.79653 5.71016,0.355 7.83885,1.09292c4.83951,1.68427 10.59628,0.13254 15.59366,-1.22597c0.61618,-0.52053 1.47422,-0.86993 2.61213,-0.87503l1.23474,-0.00573c4.26331,-0.01818 5.66138,5.57733 1.20306,6.28086z" fill="#fdfdfd" stroke="#000000" stroke-width="0.25"/><path d="M293.88104,210.57259c-1.08018,0.79121 -2.30363,1.88834 -3.86894,2.00948c-2.27398,0.17855 -6.49755,-1.31331 -7.93985,0.53842c-2.02522,2.59543 -7.48614,2.30863 -10.75358,3.07804c-3.53533,0.83344 -7.41425,0.59449 -11.05036,0.84173c-3.18052,0.21426 -7.85061,1.81803 -10.79004,0.52764c-1.47192,-0.64551 -2.16218,-2.02779 -1.81462,-3.34608c0.02801,-0.11225 0.05916,-0.22445 0.08907,-0.33718c0.42973,-1.63147 2.12605,-2.41027 3.97999,-2.62452c7.08933,-0.82748 15.13857,1.57959 21.94867,0.10862c0.33303,-0.07146 4.70687,-0.42523 4.70552,-0.42318c0.9563,-1.09411 1.72351,-1.67569 3.3858,-2.08368c4.18017,-1.02599 6.50072,2.74344 10.79818,0.406c0.9679,-0.52632 2.19918,0.65636 1.31017,1.3047z" fill="#fdfdfd" stroke="#000000" stroke-width="0.25"/><path d="M326.38151,178.60289c-2.20066,0.47158 -4.66418,1.72313 -6.95067,1.76422c-0.99539,0.0181 -3.83327,-1.38031 -4.81096,-0.6888c-2.4636,1.74424 -5.45463,3.43886 -8.94118,3.1653c-4.96685,-0.39177 -8.33086,-3.30359 -13.35361,-1.45304c-2.09737,0.77525 -7.10606,0.03645 -7.5934,0.78753c-0.85923,1.32048 -2.75488,1.99909 -4.52072,1.65279c-0.6751,0.27281 -1.35211,0.54607 -2.02473,0.81997c-0.0157,-0.003 -0.02786,-0.00773 -0.04251,-0.01356c-0.52499,1.76539 -3.63414,1.96642 -4.4658,0.10988c-1.70786,-3.80668 0.846,-6.92515 5.19999,-7.43086c1.75083,-1.94459 4.32452,-3.38082 7.44239,-1.99886c1.62509,0.71929 2.68975,3.21269 5.15598,1.50721c0.95168,-0.65685 2.46486,-1.42839 3.7822,-1.45096c3.02354,-0.05492 4.68034,2.00952 7.15103,2.94712c5.54868,2.104 7.75875,-0.1358 11.76113,-1.49515c0.75094,-0.25371 2.18705,-0.12209 2.94697,0.22778c2.88106,1.32784 5.95024,-0.0261 8.94241,-0.12129c1.16504,-0.0366 1.46251,1.42496 0.32145,1.67075z" fill="#fdfdfd" stroke="#000000" stroke-width="0.25"/><path d="M397.11722,230.32405c-3.2775,1.93972 -5.76681,2.71349 -8.91416,2.05592c-2.95079,1.78499 -6.46355,2.55718 -10.30132,2.93276c-5.80317,0.56749 -11.0987,1.75498 -16.76875,2.66509c-1.56749,0.25277 -3.4671,-0.03671 -4.79781,-0.79313c-2.74029,-1.56032 -3.49088,0.9956 -5.83384,1.34874c-2.9237,0.44083 -4.71513,-0.05599 -6.33641,-1.42398c-3.89817,1.00646 -8.2843,1.21759 -12.18483,1.62142c-3.37137,0.34935 -4.79091,-0.70828 -5.78233,-3.24707c-0.17324,-0.44415 0.51543,-0.77427 0.92206,-0.46879c2.89743,2.17808 13.93625,-1.81908 16.38525,-3.43722c1.09601,-0.72483 3.08331,-0.4783 4.02021,0.31738c1.2387,1.05405 5.60263,-1.94918 7.35213,-1.98014c2.96406,-0.05489 4.37752,1.96904 7.31815,1.11619c6.42607,-1.86338 17.34725,-0.9649 21.81415,-5.32748c1.32644,-1.29291 3.61375,-1.39763 5.35746,-0.71943c1.19277,0.18279 2.15491,-0.15875 2.89074,-1.02995c4.64431,-2.93837 9.64904,3.53271 4.85926,6.36969z" fill="#fdfdfd" stroke="#000000" stroke-width="0.25"/><path d="M316.45347,249.62681c-2.12103,1.77925 -3.60839,2.24628 -6.57417,1.63155c-4.59303,-0.95306 -5.03677,0.44794 -8.82599,1.43538c-3.51982,0.91617 -7.31364,1.30924 -10.96387,1.68675c-4.64533,0.47953 -12.48735,-3.71433 -16.16583,-0.74054c-1.4141,1.14392 -3.27758,1.08548 -4.79005,0.13376c-3.20192,-2.0168 -7.92098,-2.73415 -11.7775,-3.38731c-2.00683,-0.34028 -5.33622,-2.03363 -7.23777,-1.98162c-5.71208,0.15272 -8.31813,-4.13698 -13.37809,-4.42622c-2.31875,-0.13349 -4.7298,-1.47471 -4.60895,-3.62759c0.1146,-2.05539 0.55899,-3.36572 2.77135,-4.51021c2.58411,-1.33599 5.13594,-0.22722 6.2965,1.48347c1.34521,0.38357 2.60422,0.93738 3.70857,1.79734c2.94472,2.29928 5.8405,1.87643 8.89491,3.23026c4.15957,1.84346 6.79999,5.88651 12.20124,5.4965c1.77309,-0.12672 3.18376,-0.0334 4.57406,0.37937c2.05053,-1.86392 4.30158,-3.00248 7.9033,-3.261c4.64958,-0.3332 9.54044,3.76757 14.31272,4.3502c2.50427,0.30473 6.68715,1.26935 8.88163,-0.24518c0.71798,-0.49324 1.49788,-1.28358 2.52034,-1.35632c4.08239,-0.28567 7.95047,2.91542 11.97272,1.53322c0.26705,-0.09211 0.47215,0.22171 0.2849,0.37819z" fill="#fdfdfd" stroke="#000000" stroke-width="0.25"/><path d="M424.40652,258.32251c0.19381,5.66488 -8.59739,5.98641 -10.74997,10.58209c-1.24544,2.66453 -5.01705,5.00141 -8.53732,3.11929c-3.21977,-1.72196 -7.41195,2.60403 -9.93318,3.64268c-2.6162,1.08167 -7.0495,1.75936 -9.27805,2.98836c-6.47697,3.57497 -13.62398,5.07807 -21.08957,6.7639c-14.83482,3.34908 -30.09686,8.98845 -45.49397,9.78367c-4.14512,0.74008 -7.36425,-0.36725 -8.30097,-0.0877c-1.7277,0.51562 -4.24028,-0.25262 -6.95318,-1.28881c-2.53995,0.00896 -4.48045,-0.54669 -6.92538,-1.29023c-4.45073,-1.35043 -8.77682,1.9888 -13.04432,-1.29161c-3.45845,-2.65815 -8.16462,1.09911 -12.38591,-1.87391c-3.3854,-2.38305 -9.05013,-0.42377 -13.16065,-1.57666c-2.3915,-0.67428 -5.98365,-3.09483 -8.64581,-2.53484c-2.1174,0.44514 -4.09106,-0.16803 -5.3623,-1.59795c-5.32157,-0.18219 -11.24691,-0.74398 -16.00493,-1.99244c-4.30031,-1.12945 -5.73173,-4.28597 -7.06042,-5.22025c-2.15243,-1.51095 -0.03373,-4.10191 2.45044,-3.72627c2.85039,0.4297 4.72053,1.94224 7.89963,1.7986c2.67363,-0.12155 4.97566,-0.03109 7.51937,0.80033c4.66097,1.52076 7.64407,0.30019 10.73706,2.00356c5.03276,-0.21818 10.24574,1.71202 14.61529,3.60762c3.19277,1.38414 6.69667,0.73664 9.85855,2.24232c2.95443,1.40322 4.80644,-0.23204 7.80623,-0.28627c2.32574,-0.04216 4.39831,1.12338 6.09023,2.28125c1.23405,0.84354 6.75322,-0.80752 8.49083,-0.57597c6.85594,0.91603 13.53001,0.05168 20.39237,1.47253c5.04943,1.0484 9.65669,-0.73358 14.62522,-0.98484c5.54173,-0.28227 10.51646,-0.92062 15.8661,-2.1745c9.4304,-2.21176 22.30236,-2.21021 30.72558,-6.57989c7.10802,-3.68787 16.46306,-13.63798 25.9068,-14.08795c0.82852,-1.17842 1.84879,-2.26595 3.22778,-3.27702c1.11182,-0.81611 7.68556,-4.41482 7.25742,-3.0742c0.52652,-0.50881 1.18552,-0.93187 1.95697,-1.20947c-0.15061,0.04211 -0.29808,0.08429 -0.44524,0.12728c3.38486,-1.67645 7.82814,0.2353 7.94529,3.51733z" fill="#fdfdfd" stroke="#000000" stroke-width="0.25"/><path d="M369.75372,258.29927c0,3.43609 -2.96255,6.22241 -6.61766,6.22241c-3.65511,0 -6.61742,-2.78515 -6.61742,-6.22241c0,-3.43608 2.96207,-5.0322 6.61742,-5.0322c3.65488,-0.00023 6.61766,1.59635 6.61766,5.0322z" fill="#ec1c2c" stroke="none" stroke-width="1"/><g stroke="none"><path d="M370.49477,258.2328c0,3.82139 -3.29417,6.91947 -7.35823,6.91947c-4.06337,0 -7.35777,-3.09808 -7.35777,-6.91947c0,-3.36773 2.5595,-4.88389 5.94852,-5.19705c0,0 1.07101,-0.13719 2.16094,-0.04471c3.70975,0.17266 6.60654,1.65974 6.60654,5.24176z" fill="#0300e3" stroke-width="0.5"/><path d="M365.2542,255.14465c-0.84394,0.04281 -1.6524,0.0641 -2.498,0.15895c-0.5646,0.06339 -1.10862,0.06836 -1.52681,-0.35811c-0.09083,-0.09343 0.02791,-0.25451 0.14145,-0.18284c0.27958,0.17527 0.56129,0.24623 0.84465,0.25995c0.01845,0.01514 1.01093,-0.1159 1.46412,-0.25971c0.54686,-0.14902 1.09419,-0.27201 1.63892,-0.09201c0.26042,0.0861 0.21004,0.45934 -0.06433,0.47377z" fill="none" stroke-width="1"/></g><path d="M359.92797,256.02139c-0.60904,0.53634 -0.81351,1.29946 -1.11584,0.95615c-0.30232,-0.34331 -0.05346,-1.05602 0.55558,-1.59235c0.60887,-0.53618 1.34733,-0.69292 1.64966,-0.34961c0.30232,0.34331 -0.48071,0.44979 -1.0894,0.98582z" fill="#ffffff" stroke="none" stroke-width="1"/><path d="M365.14697,254.13814c0,0 -1.1617,-0.13398 -1.16666,-0.05025c0,0 -0.21796,0.98801 -0.56779,0.85508l-0.39603,-0.9583c-0.47433,-0.18273 -1.04787,0.68553 -1.18789,0.42985c-0.06694,-0.12205 0.33742,-1.6864 -0.485,-2.41751c-0.14097,-0.12465 0.91757,-1.27307 1.06824,-1.36365c0.76441,-0.06383 -0.34993,0.35378 0.077,0.09738c0.13719,-0.08208 1.64722,0.70133 1.74017,0.82504c1.30754,1.7404 0.95791,2.40238 0.91794,2.58237z" fill="#e2c500" stroke="none" stroke-width="1"/><path d="M259.25372,222.29927c0,3.43608 -2.96255,6.22241 -6.61766,6.22241c-3.65511,0 -6.61742,-2.78515 -6.61742,-6.22241c0,-3.43608 2.96207,-5.0322 6.61742,-5.0322c3.65488,-0.00024 6.61766,1.59635 6.61766,5.0322z" fill="#ec1c2c" stroke="none" stroke-width="1"/><g stroke="none"><path d="M259.99477,222.2328c0,3.82139 -3.29417,6.91947 -7.35823,6.91947c-4.06337,0 -7.35776,-3.09808 -7.35776,-6.91947c0,-3.36773 2.5595,-4.88389 5.94851,-5.19705c0,0 1.07101,-0.13719 2.16094,-0.04471c3.70975,0.17266 6.60654,1.65974 6.60654,5.24176z" fill="#0300e3" stroke-width="0.5"/><path d="M254.7542,219.14465c-0.84394,0.04281 -1.65241,0.0641 -2.49801,0.15895c-0.5646,0.06339 -1.10862,0.06836 -1.5268,-0.35811c-0.09083,-0.09343 0.02791,-0.25451 0.14145,-0.18284c0.27958,0.17527 0.56129,0.24623 0.84465,0.25995c0.01845,0.01514 1.01093,-0.1159 1.46412,-0.25971c0.54686,-0.14901 1.09419,-0.27201 1.63892,-0.09201c0.26042,0.0861 0.21004,0.45934 -0.06433,0.47377z" fill="none" stroke-width="1"/></g><path d="M249.42797,220.02139c-0.60905,0.53634 -0.81351,1.29946 -1.11584,0.95615c-0.30232,-0.34331 -0.05346,-1.05602 0.55558,-1.59235c0.60887,-0.53618 1.34733,-0.69293 1.64966,-0.34961c0.30232,0.34331 -0.48071,0.44979 -1.0894,0.98582z" fill="#ffffff" stroke="none" stroke-width="1"/><path d="M254.64697,218.13815c0,0 -1.1617,-0.13398 -1.16666,-0.05025c0,0 -0.21796,0.988 -0.56779,0.85507l-0.39602,-0.9583c-0.47433,-0.18273 -1.04787,0.68553 -1.18789,0.42985c-0.06694,-0.12205 0.33742,-1.6864 -0.485,-2.41751c-0.14097,-0.12465 0.91757,-1.27307 1.06824,-1.36365c0.76442,-0.06383 -0.34993,0.35378 0.07701,0.09738c0.13719,-0.08208 1.64722,0.70133 1.74017,0.82504c1.30754,1.7404 0.95792,2.40238 0.91794,2.58238z" fill="#e2c500" stroke="none" stroke-width="1"/><path d="M335.25372,167.29927c0,3.43608 -2.96255,6.22241 -6.61766,6.22241c-3.65511,0 -6.61742,-2.78515 -6.61742,-6.22241c0,-3.43608 2.96207,-5.0322 6.61742,-5.0322c3.65488,-0.00024 6.61766,1.59635 6.61766,5.0322z" fill="#ec1c2c" stroke="none" stroke-width="1"/><g stroke="none"><path d="M335.99477,167.2328c0,3.82139 -3.29417,6.91947 -7.35823,6.91947c-4.06337,0 -7.35777,-3.09808 -7.35777,-6.91947c0,-3.36773 2.5595,-4.88389 5.94852,-5.19705c0,0 1.07101,-0.13719 2.16094,-0.04471c3.70975,0.17266 6.60654,1.65974 6.60654,5.24176z" fill="#0300e3" stroke-width="0.5"/><path d="M330.7542,164.14465c-0.84394,0.04281 -1.6524,0.0641 -2.498,0.15895c-0.5646,0.06339 -1.10862,0.06836 -1.52681,-0.35811c-0.09083,-0.09343 0.02791,-0.25451 0.14145,-0.18284c0.27958,0.17527 0.56129,0.24623 0.84465,0.25995c0.01845,0.01514 1.01093,-0.1159 1.46412,-0.25971c0.54686,-0.14901 1.09419,-0.27201 1.63892,-0.09201c0.26042,0.0861 0.21004,0.45934 -0.06433,0.47377z" fill="none" stroke-width="1"/></g><path d="M325.42797,165.02139c-0.60904,0.53634 -0.81351,1.29946 -1.11584,0.95615c-0.30232,-0.34331 -0.05346,-1.05602 0.55558,-1.59235c0.60887,-0.53618 1.34733,-0.69293 1.64966,-0.34961c0.30232,0.34331 -0.48071,0.44979 -1.0894,0.98582z" fill="#ffffff" stroke="none" stroke-width="1"/><path d="M330.64697,163.13815c0,0 -1.1617,-0.13398 -1.16666,-0.05025c0,0 -0.21796,0.988 -0.56779,0.85507l-0.39602,-0.9583c-0.47433,-0.18273 -1.04787,0.68553 -1.1879,0.42985c-0.06694,-0.12205 0.33742,-1.6864 -0.485,-2.41751c-0.14097,-0.12465 0.91757,-1.27307 1.06824,-1.36365c0.76442,-0.06383 -0.34994,0.35378 0.07701,0.09738c0.13719,-0.08208 1.64721,0.70133 1.74017,0.82504c1.30754,1.7404 0.95792,2.40238 0.91794,2.58238z" fill="#e2c500" stroke="none" stroke-width="1"/><path d="M326.25372,124.29927c0,3.43608 -2.96255,6.22241 -6.61766,6.22241c-3.65511,0 -6.61742,-2.78515 -6.61742,-6.22241c0,-3.43608 2.96207,-5.0322 6.61742,-5.0322c3.65488,-0.00024 6.61766,1.59635 6.61766,5.0322z" fill="#ec1c2c" stroke="none" stroke-width="1"/><g stroke="none"><path d="M326.99477,124.2328c0,3.82139 -3.29416,6.91947 -7.35823,6.91947c-4.06337,0 -7.35777,-3.09808 -7.35777,-6.91947c0,-3.36773 2.5595,-4.88389 5.94851,-5.19705c0,0 1.07101,-0.13719 2.16094,-0.04471c3.70975,0.17266 6.60654,1.65974 6.60654,5.24176z" fill="#0300e3" stroke-width="0.5"/><path d="M321.7542,121.14465c-0.84394,0.04281 -1.65241,0.0641 -2.49801,0.15895c-0.5646,0.06339 -1.10862,0.06836 -1.5268,-0.35811c-0.09083,-0.09343 0.02791,-0.25451 0.14144,-0.18284c0.27958,0.17527 0.56129,0.24623 0.84465,0.25995c0.01845,0.01514 1.01093,-0.1159 1.46412,-0.25971c0.54686,-0.14901 1.09419,-0.27201 1.63892,-0.09201c0.26042,0.0861 0.21004,0.45934 -0.06433,0.47377z" fill="none" stroke-width="1"/></g><path d="M316.42796,122.02139c-0.60904,0.53634 -0.81351,1.29946 -1.11584,0.95615c-0.30232,-0.34331 -0.05346,-1.05602 0.55558,-1.59236c0.60887,-0.53618 1.34733,-0.69293 1.64966,-0.34961c0.30232,0.34331 -0.48071,0.44979 -1.0894,0.98582z" fill="#ffffff" stroke="none" stroke-width="1"/><path d="M321.64697,120.13815c0,0 -1.1617,-0.13398 -1.16666,-0.05025c0,0 -0.21796,0.988 -0.56779,0.85507l-0.39603,-0.9583c-0.47433,-0.18273 -1.04787,0.68553 -1.18789,0.42985c-0.06694,-0.12205 0.33742,-1.6864 -0.485,-2.41751c-0.14097,-0.12465 0.91757,-1.27307 1.06824,-1.36365c0.76441,-0.06383 -0.34993,0.35378 0.077,0.09738c0.13719,-0.08208 1.64722,0.70133 1.74017,0.82504c1.30754,1.7404 0.95791,2.40238 0.91794,2.58238z" fill="#e2c500" stroke="none" stroke-width="1"/><path d="M288.25372,268.29927c0,3.43609 -2.96255,6.22242 -6.61766,6.22242c-3.65511,0 -6.61742,-2.78515 -6.61742,-6.22242c0,-3.43608 2.96207,-5.0322 6.61742,-5.0322c3.65488,-0.00024 6.61766,1.59635 6.61766,5.0322z" fill="#ec1c2c" stroke="none" stroke-width="1"/><g stroke="none"><path d="M288.99477,268.2328c0,3.82139 -3.29417,6.91947 -7.35823,6.91947c-4.06337,0 -7.35777,-3.09808 -7.35777,-6.91947c0,-3.36773 2.5595,-4.88389 5.94851,-5.19705c0,0 1.07101,-0.13719 2.16094,-0.04471c3.70975,0.17266 6.60654,1.65974 6.60654,5.24176z" fill="#0300e3" stroke-width="0.5"/><path d="M283.7542,265.14465c-0.84394,0.04281 -1.65241,0.0641 -2.49801,0.15895c-0.5646,0.06339 -1.10862,0.06836 -1.5268,-0.35811c-0.09083,-0.09343 0.02791,-0.25451 0.14144,-0.18284c0.27958,0.17527 0.56129,0.24623 0.84465,0.25995c0.01845,0.01514 1.01093,-0.1159 1.46412,-0.25971c0.54686,-0.14902 1.09419,-0.27201 1.63892,-0.09201c0.26042,0.0861 0.21004,0.45934 -0.06433,0.47377z" fill="none" stroke-width="1"/></g><path d="M278.42796,266.02139c-0.60904,0.53634 -0.81351,1.29946 -1.11584,0.95615c-0.30232,-0.34331 -0.05346,-1.05602 0.55558,-1.59235c0.60887,-0.53618 1.34733,-0.69292 1.64965,-0.34961c0.30232,0.34331 -0.48071,0.44979 -1.0894,0.98582z" fill="#ffffff" stroke="none" stroke-width="1"/><path d="M283.64697,264.13815c0,0 -1.1617,-0.13398 -1.16666,-0.05025c0,0 -0.21796,0.988 -0.56779,0.85507l-0.39603,-0.9583c-0.47433,-0.18273 -1.04787,0.68554 -1.18789,0.42985c-0.06694,-0.12205 0.33742,-1.6864 -0.485,-2.41751c-0.14097,-0.12465 0.91757,-1.27307 1.06824,-1.36365c0.76441,-0.06383 -0.34993,0.35378 0.077,0.09738c0.13719,-0.08208 1.64722,0.70133 1.74017,0.82504c1.30754,1.74039 0.95791,2.40238 0.91794,2.58238z" fill="#e2c500" stroke="none" stroke-width="1"/><path d="M314.25372,224.29927c0,3.43608 -2.96255,6.22241 -6.61766,6.22241c-3.65511,0 -6.61742,-2.78515 -6.61742,-6.22241c0,-3.43608 2.96207,-5.0322 6.61742,-5.0322c3.65488,-0.00024 6.61766,1.59635 6.61766,5.0322z" fill="#ec1c2c" stroke="none" stroke-width="1"/><g stroke="none"><path d="M314.99477,224.2328c0,3.82139 -3.29416,6.91947 -7.35823,6.91947c-4.06336,0 -7.35776,-3.09808 -7.35776,-6.91947c0,-3.36773 2.5595,-4.88389 5.94851,-5.19705c0,0 1.07101,-0.13719 2.16095,-0.04471c3.70975,0.17266 6.60654,1.65974 6.60654,5.24176z" fill="#0300e3" stroke-width="0.5"/><path d="M309.7542,221.14465c-0.84394,0.04281 -1.65241,0.0641 -2.49801,0.15895c-0.5646,0.06339 -1.10862,0.06836 -1.5268,-0.35811c-0.09083,-0.09343 0.02791,-0.25451 0.14144,-0.18284c0.27958,0.17527 0.56129,0.24623 0.84465,0.25995c0.01845,0.01514 1.01093,-0.1159 1.46413,-0.25971c0.54686,-0.14901 1.09419,-0.27201 1.63892,-0.09201c0.26042,0.0861 0.21004,0.45934 -0.06434,0.47377z" fill="none" stroke-width="1"/></g><path d="M304.42796,222.02139c-0.60904,0.53634 -0.81351,1.29946 -1.11584,0.95615c-0.30232,-0.34331 -0.05346,-1.05602 0.55558,-1.59235c0.60887,-0.53618 1.34733,-0.69293 1.64966,-0.34961c0.30232,0.34331 -0.48071,0.44979 -1.08941,0.98582z" fill="#ffffff" stroke="none" stroke-width="1"/><path d="M309.64697,220.13814c0,0 -1.1617,-0.13398 -1.16666,-0.05025c0,0 -0.21796,0.988 -0.56779,0.85507l-0.39603,-0.9583c-0.47433,-0.18273 -1.04787,0.68553 -1.18789,0.42985c-0.06694,-0.12205 0.33742,-1.6864 -0.485,-2.41751c-0.14097,-0.12465 0.91757,-1.27307 1.06824,-1.36365c0.76441,-0.06383 -0.34993,0.35378 0.077,0.09738c0.13719,-0.08208 1.64722,0.70133 1.74017,0.82504c1.30754,1.7404 0.95791,2.40238 0.91794,2.58238z" fill="#e2c500" stroke="none" stroke-width="1"/><path d="M292.17819,189.19575c0,3.78632 -3.26452,6.85666 -7.29219,6.85666c-4.02767,0 -7.29193,-3.06904 -7.29193,-6.85666c0,-3.78632 3.264,-5.54513 7.29193,-5.54513c4.02742,-0.00026 7.29219,1.75907 7.29219,5.54513z" fill="#ec1c2c" stroke="none" stroke-width="1"/><g stroke="none"><path d="M292.99477,189.12251c0,4.2109 -3.62994,7.62478 -8.10826,7.62478c-4.47754,0 -8.10774,-3.41387 -8.10774,-7.62477c0,-3.71099 2.82039,-5.3817 6.55485,-5.72679c0,0 1.18018,-0.15117 2.38121,-0.04926c4.08789,0.19027 7.27994,1.82891 7.27994,5.77605z" fill="#ae1f1f" stroke-width="0.5"/><path d="M287.22002,185.71959c-0.92996,0.04718 -1.82083,0.07064 -2.75262,0.17515c-0.62215,0.06985 -1.22163,0.07532 -1.68243,-0.39461c-0.10008,-0.10296 0.03076,-0.28045 0.15587,-0.20147c0.30807,0.19314 0.6185,0.27133 0.93075,0.28644c0.02033,0.01668 1.11398,-0.12771 1.61336,-0.28618c0.6026,-0.16421 1.20572,-0.29973 1.80597,-0.10139c0.28697,0.09488 0.23145,0.50617 -0.0709,0.52206z" fill="none" stroke-width="1"/></g><path d="M281.35089,186.68569c-0.67113,0.591 -0.89643,1.43192 -1.22958,1.05361c-0.33314,-0.37831 -0.05891,-1.16367 0.61221,-1.75467c0.67093,-0.59083 1.48467,-0.76355 1.81781,-0.38525c0.33314,0.37831 -0.52971,0.49564 -1.20045,1.0863z" fill="#ffffff" stroke="none" stroke-width="1"/><path d="M287.10187,184.61048c0,0 -1.28011,-0.14764 -1.28558,-0.05537c0,0 -0.24017,1.08872 -0.62566,0.94224l-0.43639,-1.05597c-0.52269,-0.20136 -1.15467,0.75541 -1.30897,0.47366c-0.07376,-0.13449 0.37181,-1.85828 -0.53444,-2.66393c-0.15534,-0.13736 1.0111,-1.40282 1.17713,-1.50265c0.84233,-0.07034 -0.3856,0.38983 0.08485,0.1073c0.15117,-0.09044 1.81512,0.77282 1.91755,0.90914c1.44082,1.91779 1.05556,2.64724 1.0115,2.84559z" fill="#e2c500" stroke="none" stroke-width="1"/><path d="M354.67819,212.69575c0,3.78632 -3.26452,6.85666 -7.29219,6.85666c-4.02767,0 -7.29193,-3.06904 -7.29193,-6.85666c0,-3.78632 3.264,-5.54513 7.29193,-5.54513c4.02742,-0.00026 7.29219,1.75907 7.29219,5.54513z" fill="#ec1c2c" stroke="none" stroke-width="1"/><g stroke="none"><path d="M355.49477,212.62251c0,4.2109 -3.62994,7.62478 -8.10826,7.62478c-4.47754,0 -8.10774,-3.41387 -8.10774,-7.62477c0,-3.71099 2.82039,-5.3817 6.55485,-5.72679c0,0 1.18018,-0.15117 2.38121,-0.04926c4.08789,0.19027 7.27994,1.82891 7.27994,5.77605z" fill="#ae1f1f" stroke-width="0.5"/><path d="M349.72002,209.21959c-0.92996,0.04718 -1.82083,0.07064 -2.75262,0.17515c-0.62215,0.06985 -1.22163,0.07532 -1.68243,-0.39461c-0.10008,-0.10296 0.03076,-0.28045 0.15587,-0.20147c0.30807,0.19314 0.6185,0.27133 0.93075,0.28644c0.02033,0.01668 1.11398,-0.12771 1.61336,-0.28618c0.6026,-0.16421 1.20572,-0.29973 1.80597,-0.10139c0.28697,0.09488 0.23145,0.50617 -0.0709,0.52206z" fill="none" stroke-width="1"/></g><path d="M343.85089,210.18569c-0.67113,0.591 -0.89643,1.43192 -1.22958,1.05361c-0.33314,-0.37831 -0.05891,-1.16367 0.61221,-1.75467c0.67093,-0.59083 1.48467,-0.76355 1.81781,-0.38525c0.33314,0.37831 -0.52971,0.49564 -1.20045,1.0863z" fill="#ffffff" stroke="none" stroke-width="1"/><path d="M349.60187,208.11048c0,0 -1.28011,-0.14764 -1.28558,-0.05537c0,0 -0.24017,1.08872 -0.62566,0.94224l-0.43639,-1.05597c-0.52269,-0.20136 -1.15467,0.75541 -1.30897,0.47366c-0.07376,-0.13449 0.37181,-1.85828 -0.53444,-2.66393c-0.15534,-0.13736 1.0111,-1.40282 1.17713,-1.50265c0.84233,-0.07034 -0.3856,0.38983 0.08485,0.1073c0.15117,-0.09044 1.81512,0.77282 1.91755,0.90914c1.44082,1.91779 1.05556,2.64724 1.0115,2.84559z" fill="#e2c500" stroke="none" stroke-width="1"/><path d="M332.17819,267.19575c0,3.78632 -3.26452,6.85666 -7.29219,6.85666c-4.02767,0 -7.29193,-3.06904 -7.29193,-6.85666c0,-3.78632 3.264,-5.54512 7.29193,-5.54512c4.02742,-0.00026 7.29219,1.75906 7.29219,5.54512z" fill="#ec1c2c" stroke="none" stroke-width="1"/><g stroke="none"><path d="M332.99477,267.12251c0,4.21091 -3.62994,7.62478 -8.10826,7.62478c-4.47754,0 -8.10774,-3.41387 -8.10774,-7.62477c0,-3.711 2.82039,-5.3817 6.55485,-5.72679c0,0 1.18018,-0.15117 2.38121,-0.04926c4.08789,0.19027 7.27994,1.82891 7.27994,5.77605z" fill="#ae1f1f" stroke-width="0.5"/><path d="M327.22002,263.71959c-0.92996,0.04717 -1.82083,0.07063 -2.75262,0.17515c-0.62215,0.06985 -1.22163,0.07533 -1.68243,-0.39461c-0.10008,-0.10296 0.03076,-0.28045 0.15587,-0.20148c0.30807,0.19313 0.6185,0.27133 0.93075,0.28645c0.02033,0.01668 1.11398,-0.12771 1.61336,-0.28618c0.6026,-0.1642 1.20572,-0.29973 1.80597,-0.10139c0.28697,0.09488 0.23145,0.50617 -0.0709,0.52206z" fill="none" stroke-width="1"/></g><path d="M321.35089,264.68569c-0.67113,0.591 -0.89643,1.43192 -1.22958,1.05361c-0.33314,-0.37831 -0.05891,-1.16366 0.61221,-1.75466c0.67093,-0.59084 1.48467,-0.76355 1.81781,-0.38525c0.33314,0.37831 -0.52971,0.49564 -1.20045,1.0863z" fill="#ffffff" stroke="none" stroke-width="1"/><path d="M327.10187,262.61048c0,0 -1.28011,-0.14764 -1.28558,-0.05538c0,0 -0.24017,1.08871 -0.62566,0.94223l-0.43639,-1.05597c-0.52269,-0.20135 -1.15467,0.75541 -1.30897,0.47366c-0.07376,-0.13449 0.37181,-1.85829 -0.53444,-2.66393c-0.15534,-0.13736 1.0111,-1.40282 1.17713,-1.50265c0.84233,-0.07034 -0.3856,0.38984 0.08485,0.1073c0.15117,-0.09044 1.81512,0.77282 1.91755,0.90913c1.44082,1.91779 1.05556,2.64724 1.0115,2.84559z" fill="#e2c500" stroke="none" stroke-width="1"/><path d="M255.17819,282.19575c0,3.78632 -3.26452,6.85666 -7.2922,6.85666c-4.02767,0 -7.29193,-3.06904 -7.29193,-6.85666c0,-3.78632 3.264,-5.54512 7.29193,-5.54512c4.02741,-0.00026 7.2922,1.75906 7.2922,5.54512z" fill="#ec1c2c" stroke="none" stroke-width="1"/><g stroke="none"><path d="M255.99477,282.12251c0,4.21091 -3.62994,7.62478 -8.10826,7.62478c-4.47754,0 -8.10774,-3.41387 -8.10774,-7.62477c0,-3.711 2.82039,-5.3817 6.55485,-5.72679c0,0 1.18018,-0.15117 2.38121,-0.04926c4.08789,0.19027 7.27994,1.82891 7.27994,5.77605z" fill="#ae1f1f" stroke-width="0.5"/><path d="M250.22002,278.71959c-0.92997,0.04717 -1.82083,0.07063 -2.75262,0.17515c-0.62215,0.06985 -1.22162,0.07533 -1.68243,-0.39461c-0.10009,-0.10296 0.03076,-0.28045 0.15587,-0.20148c0.30808,0.19313 0.6185,0.27133 0.93075,0.28645c0.02033,0.01668 1.11398,-0.12771 1.61336,-0.28618c0.6026,-0.1642 1.20572,-0.29973 1.80598,-0.10139c0.28697,0.09488 0.23145,0.50617 -0.0709,0.52206z" fill="none" stroke-width="1"/></g><path d="M244.35089,279.68569c-0.67112,0.591 -0.89643,1.43192 -1.22957,1.05361c-0.33314,-0.37831 -0.05891,-1.16366 0.61221,-1.75466c0.67093,-0.59084 1.48467,-0.76355 1.8178,-0.38525c0.33314,0.37831 -0.52971,0.49564 -1.20045,1.0863z" fill="#ffffff" stroke="none" stroke-width="1"/><path d="M250.10187,277.61048c0,0 -1.2801,-0.14764 -1.28558,-0.05538c0,0 -0.24018,1.08871 -0.62566,0.94223l-0.43639,-1.05597c-0.52268,-0.20135 -1.15467,0.75541 -1.30898,0.47366c-0.07376,-0.13449 0.37181,-1.85829 -0.53444,-2.66393c-0.15534,-0.13736 1.0111,-1.40282 1.17713,-1.50265c0.84233,-0.07034 -0.3856,0.38984 0.08485,0.1073c0.15117,-0.09044 1.81512,0.77282 1.91755,0.90913c1.44082,1.91779 1.05555,2.64724 1.0115,2.84559z" fill="#e2c500" stroke="none" stroke-width="1"/><path d="M309.67819,136.69575c0,3.78632 -3.26452,6.85666 -7.29219,6.85666c-4.02767,0 -7.29193,-3.06904 -7.29193,-6.85666c0,-3.78632 3.264,-5.54513 7.29193,-5.54513c4.02742,-0.00026 7.29219,1.75907 7.29219,5.54513z" fill="#ec1c2c" stroke="none" stroke-width="1"/><g stroke="none"><path d="M310.49477,136.62251c0,4.2109 -3.62994,7.62478 -8.10826,7.62478c-4.47754,0 -8.10774,-3.41387 -8.10774,-7.62477c0,-3.71099 2.82039,-5.3817 6.55485,-5.72679c0,0 1.18018,-0.15117 2.38121,-0.04926c4.08789,0.19027 7.27994,1.82891 7.27994,5.77605z" fill="#ae1f1f" stroke-width="0.5"/><path d="M304.72002,133.21958c-0.92996,0.04718 -1.82083,0.07064 -2.75262,0.17515c-0.62215,0.06985 -1.22163,0.07532 -1.68243,-0.39461c-0.10008,-0.10296 0.03076,-0.28045 0.15587,-0.20147c0.30807,0.19314 0.6185,0.27133 0.93075,0.28644c0.02033,0.01668 1.11398,-0.12771 1.61336,-0.28618c0.6026,-0.16421 1.20572,-0.29973 1.80597,-0.10139c0.28697,0.09488 0.23145,0.50617 -0.0709,0.52206z" fill="none" stroke-width="1"/></g><path d="M298.85089,134.18569c-0.67113,0.591 -0.89643,1.43192 -1.22958,1.05361c-0.33314,-0.37831 -0.05891,-1.16367 0.61221,-1.75467c0.67093,-0.59083 1.48467,-0.76355 1.81781,-0.38525c0.33314,0.37831 -0.52971,0.49564 -1.20045,1.0863z" fill="#ffffff" stroke="none" stroke-width="1"/><path d="M304.60187,132.11048c0,0 -1.28011,-0.14764 -1.28558,-0.05537c0,0 -0.24017,1.08872 -0.62566,0.94224l-0.43639,-1.05597c-0.52269,-0.20136 -1.15467,0.75541 -1.30897,0.47366c-0.07376,-0.13449 0.37181,-1.85828 -0.53444,-2.66393c-0.15534,-0.13736 1.0111,-1.40282 1.17713,-1.50265c0.84233,-0.07034 -0.3856,0.38983 0.08485,0.1073c0.15117,-0.09044 1.81512,0.77282 1.91755,0.90914c1.44082,1.91779 1.05556,2.64724 1.0115,2.84559z" fill="#e2c500" stroke="none" stroke-width="1"/><path d="M358.17819,162.19574c0,3.78632 -3.26452,6.85666 -7.29219,6.85666c-4.02767,0 -7.29193,-3.06904 -7.29193,-6.85666c0,-3.78632 3.264,-5.54513 7.29193,-5.54513c4.02742,-0.00026 7.29219,1.75907 7.29219,5.54513z" fill="#ec1c2c" stroke="none" stroke-width="1"/><g stroke="none"><path d="M358.99477,162.1225c0,4.2109 -3.62994,7.62478 -8.10826,7.62478c-4.47754,0 -8.10774,-3.41387 -8.10774,-7.62477c0,-3.71099 2.82039,-5.3817 6.55485,-5.72679c0,0 1.18018,-0.15117 2.38121,-0.04926c4.08789,0.19027 7.27994,1.82891 7.27994,5.77605z" fill="#ae1f1f" stroke-width="0.5"/><path d="M353.22002,158.71958c-0.92997,0.04718 -1.82083,0.07064 -2.75262,0.17515c-0.62215,0.06985 -1.22162,0.07532 -1.68243,-0.39461c-0.10009,-0.10296 0.03076,-0.28045 0.15587,-0.20147c0.30807,0.19314 0.6185,0.27133 0.93075,0.28644c0.02033,0.01668 1.11398,-0.12771 1.61336,-0.28618c0.6026,-0.16421 1.20572,-0.29973 1.80597,-0.10139c0.28697,0.09488 0.23145,0.50617 -0.07089,0.52206z" fill="none" stroke-width="1"/></g><path d="M347.35089,159.68569c-0.67113,0.591 -0.89643,1.43192 -1.22958,1.05361c-0.33314,-0.37831 -0.05891,-1.16367 0.61221,-1.75467c0.67093,-0.59083 1.48467,-0.76355 1.8178,-0.38525c0.33314,0.37831 -0.52971,0.49564 -1.20044,1.0863z" fill="#ffffff" stroke="none" stroke-width="1"/><path d="M353.10187,157.61048c0,0 -1.28011,-0.14764 -1.28558,-0.05537c0,0 -0.24018,1.08872 -0.62566,0.94224l-0.43639,-1.05597c-0.52269,-0.20136 -1.15467,0.75541 -1.30898,0.47366c-0.07376,-0.13449 0.37181,-1.85828 -0.53444,-2.66393c-0.15534,-0.13736 1.0111,-1.40282 1.17713,-1.50265c0.84233,-0.07034 -0.3856,0.38983 0.08485,0.1073c0.15117,-0.09044 1.81512,0.77282 1.91755,0.90914c1.44082,1.91779 1.05556,2.64724 1.01151,2.84559z" fill="#e2c500" stroke="none" stroke-width="1"/><path d="M413.17819,265.69575c0,3.78632 -3.26452,6.85666 -7.29219,6.85666c-4.02767,0 -7.29193,-3.06904 -7.29193,-6.85666c0,-3.78632 3.264,-5.54513 7.29193,-5.54513c4.02742,-0.00026 7.29219,1.75907 7.29219,5.54513z" fill="#ec1c2c" stroke="none" stroke-width="1"/><g stroke="none"><path d="M413.99477,265.6225c0,4.21091 -3.62994,7.62478 -8.10826,7.62478c-4.47754,0 -8.10774,-3.41387 -8.10774,-7.62477c0,-3.711 2.82039,-5.3817 6.55485,-5.72679c0,0 1.18018,-0.15117 2.38121,-0.04926c4.08789,0.19027 7.27994,1.82891 7.27994,5.77605z" fill="#ae1f1f" stroke-width="0.5"/><path d="M408.22002,262.21958c-0.92996,0.04717 -1.82083,0.07063 -2.75262,0.17515c-0.62215,0.06985 -1.22163,0.07532 -1.68243,-0.39461c-0.10008,-0.10296 0.03076,-0.28045 0.15587,-0.20147c0.30808,0.19313 0.6185,0.27133 0.93075,0.28644c0.02033,0.01668 1.11398,-0.12771 1.61336,-0.28618c0.6026,-0.1642 1.20572,-0.29973 1.80598,-0.10139c0.28696,0.09488 0.23145,0.50617 -0.0709,0.52206z" fill="none" stroke-width="1"/></g><path d="M402.35089,263.18569c-0.67113,0.591 -0.89644,1.43192 -1.22958,1.05361c-0.33314,-0.37831 -0.05891,-1.16367 0.61221,-1.75467c0.67093,-0.59083 1.48467,-0.76355 1.81781,-0.38525c0.33314,0.37831 -0.52971,0.49564 -1.20045,1.0863z" fill="#ffffff" stroke="none" stroke-width="1"/><path d="M408.10187,261.11048c0,0 -1.28011,-0.14764 -1.28558,-0.05537c0,0 -0.24017,1.08872 -0.62566,0.94224l-0.43639,-1.05597c-0.52268,-0.20136 -1.15467,0.75541 -1.30897,0.47366c-0.07376,-0.13449 0.37181,-1.85829 -0.53444,-2.66393c-0.15534,-0.13735 1.0111,-1.40282 1.17713,-1.50265c0.84233,-0.07034 -0.38561,0.38984 0.08485,0.1073c0.15117,-0.09044 1.81512,0.77282 1.91755,0.90914c1.44082,1.91779 1.05556,2.64724 1.0115,2.84559z" fill="#e2c500" stroke="none" stroke-width="1"/><path d="M340.6836,244.42982c0,4.05109 -3.4928,7.33614 -7.80212,7.33614c-4.30932,0 -7.80184,-3.28365 -7.80184,-7.33614c0,-4.05109 3.49224,-5.93288 7.80184,-5.93288c4.30904,-0.00028 7.80212,1.88207 7.80212,5.93288z" fill="#ec1c2c" stroke="none" stroke-width="1"/><g stroke="none"><path d="M341.55729,244.35145c0,4.50537 -3.88377,8.15796 -8.67525,8.15796c-4.79065,0 -8.6747,-3.65259 -8.6747,-8.15796c0,-3.9705 3.01761,-5.75803 7.01321,-6.12725c0,0 1.26271,-0.16174 2.54772,-0.05271c4.37374,0.20357 7.78902,1.95681 7.78902,6.17996z" fill="#e3cb29" stroke-width="0.5"/><path d="M335.37873,240.71058c-0.99499,0.05048 -1.94816,0.07557 -2.94511,0.1874c-0.66565,0.07474 -1.30705,0.08059 -1.80008,-0.4222c-0.10708,-0.11015 0.03291,-0.30006 0.16676,-0.21556c0.32962,0.20664 0.66176,0.2903 0.99583,0.30647c0.02175,0.01784 1.19187,-0.13664 1.72618,-0.30619c0.64474,-0.17568 1.29003,-0.3207 1.93227,-0.10848c0.30703,0.10151 0.24763,0.54156 -0.07585,0.55857z" fill="none" stroke-width="1"/></g><path d="M329.09918,241.74424c-0.71805,0.63233 -0.95912,1.53205 -1.31556,1.12729c-0.35643,-0.40476 -0.06302,-1.24504 0.65503,-1.87736c0.71785,-0.63215 1.58848,-0.81695 1.94492,-0.41218c0.35643,0.40476 -0.56675,0.5303 -1.28439,1.16226z" fill="#ffffff" stroke="none" stroke-width="1"/><path d="M335.25231,239.52392c0,0 -1.36962,-0.15797 -1.37547,-0.05925c0,0 -0.25697,1.16485 -0.66941,1.00812l-0.46691,-1.12982c-0.55924,-0.21544 -1.23542,0.80823 -1.40051,0.50678c-0.07892,-0.14389 0.39781,-1.98823 -0.57181,-2.8502c-0.1662,-0.14696 1.08181,-1.50092 1.25945,-1.60773c0.90123,-0.07525 -0.41257,0.4171 0.09078,0.11481c0.16174,-0.09677 1.94204,0.82686 2.05164,0.9727c1.54157,2.0519 1.12937,2.83237 1.08224,3.04458z" fill="#93831a" stroke="none" stroke-width="1"/><path d="M287.25502,218.28696c0,4.05109 -3.4928,7.33614 -7.80212,7.33614c-4.30932,0 -7.80184,-3.28365 -7.80184,-7.33614c0,-4.05109 3.49224,-5.93288 7.80184,-5.93288c4.30904,-0.00028 7.80212,1.88207 7.80212,5.93288z" fill="#ec1c2c" stroke="none" stroke-width="1"/><g stroke="none"><path d="M288.12871,218.2086c0,4.50537 -3.88377,8.15796 -8.67525,8.15796c-4.79064,0 -8.67469,-3.65259 -8.67469,-8.15796c0,-3.9705 3.01761,-5.75803 7.01321,-6.12725c0,0 1.2627,-0.16174 2.54772,-0.05271c4.37374,0.20357 7.78901,1.95681 7.78901,6.17996z" fill="#e3cb29" stroke-width="0.5"/><path d="M281.95016,214.56772c-0.995,0.05048 -1.94817,0.07557 -2.94511,0.1874c-0.66566,0.07474 -1.30705,0.08059 -1.80008,-0.4222c-0.10709,-0.11015 0.0329,-0.30006 0.16676,-0.21556c0.32962,0.20664 0.66175,0.2903 0.99583,0.30647c0.02175,0.01784 1.19187,-0.13664 1.72618,-0.30619c0.64474,-0.17568 1.29003,-0.3207 1.93226,-0.10848c0.30703,0.10151 0.24764,0.54156 -0.07585,0.55857z" fill="none" stroke-width="1"/></g><path d="M275.67061,215.60138c-0.71806,0.63233 -0.95913,1.53205 -1.31556,1.12729c-0.35644,-0.40476 -0.06303,-1.24504 0.65503,-1.87736c0.71785,-0.63215 1.58848,-0.81695 1.94491,-0.41218c0.35644,0.40476 -0.56675,0.5303 -1.28439,1.16226z" fill="#ffffff" stroke="none" stroke-width="1"/><path d="M281.82374,213.38106c0,0 -1.36962,-0.15797 -1.37547,-0.05925c0,0 -0.25697,1.16485 -0.66941,1.00812l-0.46691,-1.12982c-0.55924,-0.21544 -1.23542,0.80823 -1.40051,0.50678c-0.07892,-0.14389 0.39782,-1.98823 -0.5718,-2.8502c-0.1662,-0.14696 1.0818,-1.50092 1.25944,-1.60773c0.90123,-0.07525 -0.41257,0.4171 0.09079,0.11481c0.16174,-0.09677 1.94204,0.82686 2.05163,0.9727c1.54157,2.0519 1.12937,2.83237 1.08224,3.04458z" fill="#93831a" stroke="none" stroke-width="1"/><path d="M325.25502,188.28696c0,4.05109 -3.4928,7.33614 -7.80212,7.33614c-4.30932,0 -7.80184,-3.28365 -7.80184,-7.33614c0,-4.05109 3.49224,-5.93288 7.80184,-5.93288c4.30904,-0.00028 7.80212,1.88207 7.80212,5.93288z" fill="#ec1c2c" stroke="none" stroke-width="1"/><g stroke="none"><path d="M326.12872,188.2086c0,4.50537 -3.88377,8.15796 -8.67525,8.15796c-4.79064,0 -8.67469,-3.65259 -8.67469,-8.15796c0,-3.9705 3.01761,-5.75803 7.01321,-6.12725c0,0 1.2627,-0.16174 2.54772,-0.05271c4.37374,0.20357 7.78901,1.95681 7.78901,6.17996z" fill="#e3cb29" stroke-width="0.5"/><path d="M319.95016,184.56772c-0.995,0.05048 -1.94817,0.07557 -2.94511,0.1874c-0.66566,0.07474 -1.30705,0.08059 -1.80008,-0.4222c-0.10709,-0.11015 0.0329,-0.30006 0.16676,-0.21556c0.32962,0.20664 0.66175,0.2903 0.99583,0.30647c0.02175,0.01784 1.19187,-0.13664 1.72618,-0.30619c0.64474,-0.17568 1.29003,-0.3207 1.93226,-0.10848c0.30703,0.10151 0.24764,0.54156 -0.07585,0.55857z" fill="none" stroke-width="1"/></g><path d="M313.67061,185.60138c-0.71805,0.63233 -0.95912,1.53205 -1.31556,1.12729c-0.35644,-0.40476 -0.06303,-1.24504 0.65503,-1.87736c0.71785,-0.63215 1.58848,-0.81695 1.94491,-0.41218c0.35643,0.40476 -0.56675,0.5303 -1.28439,1.16226z" fill="#ffffff" stroke="none" stroke-width="1"/><path d="M319.82374,183.38106c0,0 -1.36962,-0.15797 -1.37547,-0.05925c0,0 -0.25697,1.16485 -0.66941,1.00812l-0.46691,-1.12982c-0.55924,-0.21544 -1.23542,0.80823 -1.40051,0.50678c-0.07892,-0.14389 0.39782,-1.98823 -0.5718,-2.8502c-0.1662,-0.14696 1.0818,-1.50092 1.25944,-1.60773c0.90123,-0.07525 -0.41257,0.4171 0.09079,0.11481c0.16174,-0.09677 1.94204,0.82686 2.05163,0.9727c1.54157,2.0519 1.12937,2.83237 1.08224,3.04458z" fill="#93831a" stroke="none" stroke-width="1"/><path d="M303.25503,290.78696c0,4.05109 -3.4928,7.33614 -7.80212,7.33614c-4.30932,0 -7.80184,-3.28365 -7.80184,-7.33614c0,-4.05109 3.49224,-5.93288 7.80184,-5.93288c4.30904,-0.00028 7.80212,1.88207 7.80212,5.93288z" fill="#ec1c2c" stroke="none" stroke-width="1"/><g stroke="none"><path d="M304.12872,290.7086c0,4.50537 -3.88377,8.15796 -8.67525,8.15796c-4.79064,0 -8.67469,-3.65259 -8.67469,-8.15796c0,-3.9705 3.01761,-5.75803 7.01321,-6.12725c0,0 1.2627,-0.16174 2.54772,-0.0527c4.37374,0.20357 7.78901,1.9568 7.78901,6.17995z" fill="#e3cb29" stroke-width="0.5"/><path d="M297.95016,287.06772c-0.995,0.05048 -1.94817,0.07557 -2.94511,0.18739c-0.66566,0.07473 -1.30705,0.08059 -1.80008,-0.4222c-0.10709,-0.11015 0.0329,-0.30006 0.16676,-0.21556c0.32962,0.20664 0.66175,0.2903 0.99583,0.30647c0.02175,0.01784 1.19187,-0.13664 1.72618,-0.3062c0.64474,-0.17568 1.29003,-0.3207 1.93226,-0.10848c0.30703,0.1015 0.24764,0.54156 -0.07585,0.55857z" fill="none" stroke-width="1"/></g><path d="M291.67061,288.10138c-0.71805,0.63233 -0.95913,1.53205 -1.31556,1.12729c-0.35643,-0.40476 -0.06302,-1.24504 0.65503,-1.87737c0.71785,-0.63215 1.58848,-0.81694 1.94492,-0.41218c0.35644,0.40476 -0.56675,0.5303 -1.28439,1.16226z" fill="#ffffff" stroke="none" stroke-width="1"/><path d="M297.82374,285.88106c0,0 -1.36962,-0.15797 -1.37547,-0.05925c0,0 -0.25697,1.16485 -0.66941,1.00812l-0.46691,-1.12982c-0.55924,-0.21544 -1.23542,0.80823 -1.40051,0.50678c-0.07892,-0.14389 0.39782,-1.98823 -0.5718,-2.85021c-0.1662,-0.14696 1.0818,-1.50092 1.25944,-1.60772c0.90123,-0.07525 -0.41257,0.4171 0.09079,0.1148c0.16174,-0.09677 1.94204,0.82686 2.05163,0.9727c1.54157,2.0519 1.12937,2.83237 1.08224,3.04458z" fill="#93831a" stroke="none" stroke-width="1"/><path d="M383.25503,284.28696c0,4.05109 -3.4928,7.33614 -7.80212,7.33614c-4.30932,0 -7.80184,-3.28365 -7.80184,-7.33614c0,-4.05109 3.49224,-5.93288 7.80184,-5.93288c4.30904,-0.00028 7.80212,1.88207 7.80212,5.93288z" fill="#ec1c2c" stroke="none" stroke-width="1"/><g stroke="none"><path d="M384.12872,284.2086c0,4.50537 -3.88377,8.15796 -8.67525,8.15796c-4.79065,0 -8.67469,-3.65259 -8.67469,-8.15796c0,-3.9705 3.01761,-5.75803 7.01321,-6.12725c0,0 1.26271,-0.16174 2.54772,-0.0527c4.37374,0.20357 7.78902,1.9568 7.78902,6.17995z" fill="#e3cb29" stroke-width="0.5"/><path d="M377.95016,280.56772c-0.99499,0.05048 -1.94816,0.07557 -2.94511,0.18739c-0.66565,0.07473 -1.30705,0.08059 -1.80008,-0.4222c-0.10708,-0.11015 0.03291,-0.30006 0.16676,-0.21556c0.32962,0.20664 0.66176,0.2903 0.99583,0.30647c0.02175,0.01784 1.19187,-0.13664 1.72618,-0.3062c0.64474,-0.17568 1.29003,-0.3207 1.93227,-0.10848c0.30703,0.1015 0.24763,0.54156 -0.07585,0.55857z" fill="none" stroke-width="1"/></g><path d="M371.67061,281.60138c-0.71805,0.63233 -0.95913,1.53205 -1.31556,1.12729c-0.35643,-0.40476 -0.06302,-1.24504 0.65503,-1.87736c0.71785,-0.63215 1.58848,-0.81694 1.94492,-0.41218c0.35644,0.40476 -0.56675,0.5303 -1.28439,1.16226z" fill="#ffffff" stroke="none" stroke-width="1"/><path d="M377.82374,279.38106c0,0 -1.36962,-0.15797 -1.37548,-0.05925c0,0 -0.25696,1.16485 -0.66941,1.00812l-0.46691,-1.12982c-0.55924,-0.21544 -1.23542,0.80823 -1.40051,0.50678c-0.07892,-0.1439 0.39781,-1.98823 -0.5718,-2.85021c-0.1662,-0.14696 1.0818,-1.50092 1.25944,-1.60772c0.90123,-0.07525 -0.41257,0.4171 0.09079,0.1148c0.16174,-0.09677 1.94204,0.82686 2.05163,0.9727c1.54158,2.0519 1.12937,2.83237 1.08224,3.04458z" fill="#93831a" stroke="none" stroke-width="1"/><path d="M293.25503,151.28696c0,4.05109 -3.4928,7.33614 -7.80212,7.33614c-4.30932,0 -7.80184,-3.28365 -7.80184,-7.33614c0,-4.05109 3.49224,-5.93288 7.80184,-5.93288c4.30904,-0.00028 7.80212,1.88207 7.80212,5.93288z" fill="#ec1c2c" stroke="none" stroke-width="1"/><g stroke="none"><path d="M294.12872,151.2086c0,4.50537 -3.88377,8.15796 -8.67525,8.15796c-4.79064,0 -8.67469,-3.65259 -8.67469,-8.15796c0,-3.9705 3.01761,-5.75803 7.01321,-6.12725c0,0 1.2627,-0.16174 2.54772,-0.05271c4.37374,0.20357 7.78901,1.95681 7.78901,6.17996z" fill="#e3cb29" stroke-width="0.5"/><path d="M287.95016,147.56772c-0.995,0.05048 -1.94817,0.07557 -2.94511,0.1874c-0.66566,0.07474 -1.30705,0.08059 -1.80008,-0.4222c-0.10709,-0.11015 0.0329,-0.30006 0.16676,-0.21556c0.32962,0.20664 0.66175,0.2903 0.99583,0.30647c0.02175,0.01784 1.19187,-0.13664 1.72618,-0.30619c0.64474,-0.17568 1.29004,-0.3207 1.93226,-0.10848c0.30703,0.10151 0.24764,0.54156 -0.07585,0.55857z" fill="none" stroke-width="1"/></g><path d="M281.67061,148.60138c-0.71806,0.63233 -0.95913,1.53205 -1.31556,1.12729c-0.35644,-0.40476 -0.06303,-1.24504 0.65503,-1.87736c0.71785,-0.63215 1.58848,-0.81695 1.94491,-0.41218c0.35644,0.40476 -0.56675,0.5303 -1.28439,1.16226z" fill="#ffffff" stroke="none" stroke-width="1"/><path d="M287.82374,146.38106c0,0 -1.36962,-0.15797 -1.37547,-0.05925c0,0 -0.25697,1.16485 -0.66941,1.00812l-0.46691,-1.12982c-0.55924,-0.21544 -1.23542,0.80823 -1.40051,0.50678c-0.07892,-0.14389 0.39782,-1.98823 -0.5718,-2.8502c-0.1662,-0.14696 1.0818,-1.50092 1.25944,-1.60773c0.90123,-0.07525 -0.41257,0.4171 0.09079,0.11481c0.16174,-0.09677 1.94204,0.82686 2.05163,0.9727c1.54157,2.0519 1.12937,2.83237 1.08224,3.04458z" fill="#93831a" stroke="none" stroke-width="1"/><path d="M386.06782,235.90967c0,3.88213 -3.34711,7.03015 -7.4767,7.03015c-4.12959,0 -7.47644,-3.14669 -7.47644,-7.03015c0,-3.88213 3.34659,-5.68543 7.47644,-5.68543c4.12932,-0.00027 7.4767,1.80357 7.4767,5.68543z" fill="#ec1c2c" stroke="none" stroke-width="1"/><g stroke="none"><path d="M386.90507,235.83458c0,4.31745 -3.72179,7.8177 -8.31342,7.8177c-4.59083,0 -8.31288,-3.50025 -8.31288,-7.8177c0,-3.80489 2.89175,-5.51787 6.72069,-5.87169c0,0 1.21004,-0.155 2.44146,-0.05051c4.19131,0.19508 7.46415,1.87519 7.46415,5.9222z" fill="#afafaf" stroke-width="0.5"/><path d="M380.98421,232.34556c-0.95349,0.04837 -1.86691,0.07242 -2.82227,0.17958c-0.63789,0.07162 -1.25254,0.07723 -1.72501,-0.4046c-0.10262,-0.10556 0.03153,-0.28754 0.15981,-0.20657c0.31587,0.19802 0.63415,0.27819 0.9543,0.29369c0.02085,0.0171 1.14216,-0.13094 1.65418,-0.29342c0.61785,-0.16836 1.23623,-0.30732 1.85167,-0.10396c0.29422,0.09727 0.23731,0.51898 -0.07268,0.53528z" fill="none" stroke-width="1"/></g><path d="M374.96658,233.3361c-0.68811,0.60596 -0.91912,1.46814 -1.26069,1.08027c-0.34157,-0.38788 -0.0604,-1.19311 0.62771,-1.79906c0.68791,-0.60578 1.52222,-0.78287 1.86379,-0.39499c0.34157,0.38788 -0.54311,0.50818 -1.23082,1.11379z" fill="#ffffff" stroke="none" stroke-width="1"/><path d="M380.86307,231.20839c0,0 -1.3125,-0.15138 -1.31811,-0.05678c0,0 -0.24625,1.11626 -0.64149,0.96607l-0.44744,-1.0827c-0.53591,-0.20645 -1.18389,0.77453 -1.34209,0.48565c-0.07563,-0.13789 0.38122,-1.9053 -0.54796,-2.73132c-0.15927,-0.14084 1.03668,-1.43832 1.20691,-1.54067c0.86364,-0.07211 -0.39536,0.3997 0.087,0.11002c0.15499,-0.09273 1.86104,0.79237 1.96607,0.93214c1.47728,1.96632 1.08226,2.71422 1.0371,2.91759z" fill="#e2c500" stroke="none" stroke-width="1"/><path d="M329.56782,148.40967c0,3.88213 -3.34711,7.03015 -7.4767,7.03015c-4.12959,0 -7.47644,-3.14669 -7.47644,-7.03015c0,-3.88213 3.34659,-5.68543 7.47644,-5.68543c4.12932,-0.00027 7.4767,1.80357 7.4767,5.68543z" fill="#ec1c2c" stroke="none" stroke-width="1"/><g stroke="none"><path d="M330.40507,148.33458c0,4.31745 -3.72179,7.8177 -8.31342,7.8177c-4.59083,0 -8.31288,-3.50025 -8.31288,-7.8177c0,-3.80489 2.89175,-5.51787 6.72069,-5.87169c0,0 1.21004,-0.155 2.44146,-0.05051c4.19131,0.19508 7.46415,1.87519 7.46415,5.9222z" fill="#afafaf" stroke-width="0.5"/><path d="M324.48421,144.84556c-0.95349,0.04837 -1.86691,0.07242 -2.82227,0.17958c-0.63789,0.07162 -1.25254,0.07723 -1.72501,-0.4046c-0.10262,-0.10556 0.03153,-0.28754 0.15981,-0.20657c0.31587,0.19802 0.63415,0.27819 0.9543,0.29369c0.02085,0.0171 1.14216,-0.13094 1.65418,-0.29342c0.61785,-0.16836 1.23623,-0.30732 1.85167,-0.10396c0.29422,0.09727 0.23731,0.51898 -0.07268,0.53528z" fill="none" stroke-width="1"/></g><path d="M318.46657,145.8361c-0.68811,0.60596 -0.91912,1.46814 -1.26069,1.08027c-0.34157,-0.38788 -0.0604,-1.19311 0.62771,-1.79906c0.68791,-0.60578 1.52222,-0.78287 1.86379,-0.39499c0.34157,0.38788 -0.54311,0.50818 -1.23082,1.11379z" fill="#ffffff" stroke="none" stroke-width="1"/><path d="M324.36307,143.70839c0,0 -1.3125,-0.15138 -1.31811,-0.05678c0,0 -0.24625,1.11626 -0.64149,0.96607l-0.44744,-1.0827c-0.53591,-0.20645 -1.18389,0.77453 -1.34209,0.48565c-0.07563,-0.13789 0.38122,-1.9053 -0.54796,-2.73132c-0.15927,-0.14084 1.03668,-1.43832 1.20691,-1.54067c0.86364,-0.07211 -0.39536,0.3997 0.087,0.11002c0.15499,-0.09273 1.86104,0.79237 1.96607,0.93214c1.47728,1.96632 1.08226,2.71422 1.0371,2.91759z" fill="#e2c500" stroke="none" stroke-width="1"/><path d="M267.56782,247.40967c0,3.88213 -3.34711,7.03016 -7.4767,7.03016c-4.12958,0 -7.47644,-3.14669 -7.47644,-7.03016c0,-3.88213 3.34659,-5.68543 7.47644,-5.68543c4.12932,-0.00027 7.4767,1.80357 7.4767,5.68543z" fill="#ec1c2c" stroke="none" stroke-width="1"/><g stroke="none"><path d="M268.40507,247.33458c0,4.31745 -3.72179,7.8177 -8.31342,7.8177c-4.59083,0 -8.31288,-3.50025 -8.31288,-7.8177c0,-3.80489 2.89175,-5.51787 6.72069,-5.87169c0,0 1.21004,-0.155 2.44146,-0.05051c4.19131,0.19508 7.46415,1.87519 7.46415,5.9222z" fill="#afafaf" stroke-width="0.5"/><path d="M262.48421,243.84556c-0.95349,0.04837 -1.86691,0.07242 -2.82227,0.17958c-0.63789,0.07162 -1.25254,0.07723 -1.72501,-0.4046c-0.10262,-0.10556 0.03153,-0.28754 0.15981,-0.20657c0.31587,0.19802 0.63415,0.27819 0.9543,0.29369c0.02085,0.0171 1.14216,-0.13094 1.65418,-0.29342c0.61785,-0.16836 1.23623,-0.30732 1.85167,-0.10396c0.29422,0.09727 0.23731,0.51898 -0.07268,0.53528z" fill="none" stroke-width="1"/></g><path d="M256.46657,244.8361c-0.68811,0.60596 -0.91912,1.46814 -1.26069,1.08027c-0.34157,-0.38788 -0.06039,-1.19311 0.62771,-1.79906c0.68791,-0.60578 1.52222,-0.78287 1.86379,-0.39499c0.34157,0.38788 -0.54311,0.50818 -1.23082,1.11379z" fill="#ffffff" stroke="none" stroke-width="1"/><path d="M262.36307,242.70839c0,0 -1.3125,-0.15138 -1.31811,-0.05678c0,0 -0.24625,1.11626 -0.64149,0.96607l-0.44744,-1.0827c-0.53591,-0.20645 -1.18389,0.77453 -1.34209,0.48565c-0.07563,-0.13789 0.38122,-1.9053 -0.54796,-2.73132c-0.15927,-0.14084 1.03668,-1.43832 1.20691,-1.54067c0.86364,-0.07211 -0.39536,0.3997 0.087,0.11002c0.15499,-0.09273 1.86104,0.79237 1.96607,0.93214c1.47728,1.96632 1.08226,2.71422 1.0371,2.91759z" fill="#e2c500" stroke="none" stroke-width="1"/><path d="M346.06782,288.90967c0,3.88212 -3.34711,7.03016 -7.4767,7.03016c-4.12959,0 -7.47644,-3.1467 -7.47644,-7.03016c0,-3.88212 3.34659,-5.68543 7.47644,-5.68543c4.12932,-0.00027 7.4767,1.80357 7.4767,5.68543z" fill="#ec1c2c" stroke="none" stroke-width="1"/><g stroke="none"><path d="M346.90507,288.83458c0,4.31745 -3.72179,7.8177 -8.31342,7.8177c-4.59083,0 -8.31288,-3.50025 -8.31288,-7.8177c0,-3.80489 2.89175,-5.51787 6.72069,-5.87169c0,0 1.21004,-0.155 2.44146,-0.05051c4.19131,0.19508 7.46415,1.87519 7.46415,5.9222z" fill="#afafaf" stroke-width="0.5"/><path d="M340.98421,285.34556c-0.95349,0.04837 -1.86691,0.07242 -2.82227,0.17958c-0.63789,0.07162 -1.25254,0.07723 -1.72501,-0.40459c-0.10262,-0.10556 0.03153,-0.28754 0.15981,-0.20657c0.31587,0.19802 0.63415,0.27819 0.9543,0.29369c0.02085,0.01711 1.14216,-0.13094 1.65418,-0.29343c0.61785,-0.16836 1.23623,-0.30732 1.85167,-0.10395c0.29422,0.09728 0.23731,0.51898 -0.07268,0.53528z" fill="none" stroke-width="1"/></g><path d="M334.96657,286.3361c-0.68811,0.60596 -0.91912,1.46814 -1.26069,1.08027c-0.34157,-0.38788 -0.0604,-1.19311 0.62771,-1.79906c0.68791,-0.60578 1.52222,-0.78287 1.86379,-0.39499c0.34157,0.38788 -0.54311,0.50818 -1.23082,1.11379z" fill="#ffffff" stroke="none" stroke-width="1"/><path d="M340.86307,284.20839c0,0 -1.3125,-0.15137 -1.31811,-0.05677c0,0 -0.24625,1.11626 -0.64149,0.96607l-0.44744,-1.0827c-0.53591,-0.20645 -1.18389,0.77452 -1.34209,0.48564c-0.07563,-0.1379 0.38122,-1.9053 -0.54796,-2.73132c-0.15927,-0.14083 1.03668,-1.43833 1.20691,-1.54068c0.86364,-0.07211 -0.39536,0.39971 0.087,0.11002c0.15499,-0.09273 1.86104,0.79237 1.96607,0.93213c1.47728,1.96632 1.08226,2.71422 1.0371,2.91759z" fill="#e2c500" stroke="none" stroke-width="1"/><path d="M352.06782,185.90967c0,3.88213 -3.34711,7.03015 -7.4767,7.03015c-4.12959,0 -7.47644,-3.14669 -7.47644,-7.03015c0,-3.88213 3.34659,-5.68543 7.47644,-5.68543c4.12932,-0.00027 7.4767,1.80357 7.4767,5.68543z" fill="#ec1c2c" stroke="none" stroke-width="1"/><g stroke="none"><path d="M352.90507,185.83458c0,4.31745 -3.72179,7.8177 -8.31342,7.8177c-4.59083,0 -8.31288,-3.50025 -8.31288,-7.8177c0,-3.80489 2.89175,-5.51787 6.72069,-5.87169c0,0 1.21004,-0.155 2.44146,-0.05051c4.19131,0.19508 7.46415,1.87519 7.46415,5.9222z" fill="#afafaf" stroke-width="0.5"/><path d="M346.98421,182.34556c-0.95349,0.04837 -1.86691,0.07242 -2.82227,0.17958c-0.63789,0.07162 -1.25254,0.07723 -1.72501,-0.4046c-0.10262,-0.10556 0.03153,-0.28754 0.15981,-0.20657c0.31587,0.19802 0.63415,0.27819 0.9543,0.29369c0.02085,0.0171 1.14216,-0.13094 1.65418,-0.29342c0.61785,-0.16836 1.23623,-0.30732 1.85167,-0.10396c0.29422,0.09727 0.23731,0.51898 -0.07268,0.53528z" fill="none" stroke-width="1"/></g><path d="M340.96658,183.3361c-0.68811,0.60596 -0.91912,1.46814 -1.26069,1.08027c-0.34157,-0.38788 -0.0604,-1.19311 0.62771,-1.79906c0.68791,-0.60578 1.52222,-0.78287 1.86379,-0.39499c0.34157,0.38788 -0.54311,0.50818 -1.23082,1.11379z" fill="#ffffff" stroke="none" stroke-width="1"/><path d="M346.86307,181.20839c0,0 -1.3125,-0.15138 -1.31811,-0.05678c0,0 -0.24625,1.11626 -0.64149,0.96607l-0.44744,-1.0827c-0.53591,-0.20645 -1.18389,0.77453 -1.34209,0.48565c-0.07563,-0.13789 0.38122,-1.9053 -0.54796,-2.73132c-0.15927,-0.14084 1.03668,-1.43832 1.20691,-1.54067c0.86364,-0.07211 -0.39536,0.3997 0.087,0.11002c0.15499,-0.09273 1.86104,0.79237 1.96607,0.93214c1.47728,1.96632 1.08226,2.71422 1.0371,2.91759z" fill="#e2c500" stroke="none" stroke-width="1"/><path d="M163.03811,176.11235c-0.62521,0.55057 -0.83511,1.33395 -1.14546,0.98153c-0.31035,-0.35242 -0.05488,-1.08406 0.57034,-1.63463c0.62503,-0.55041 1.38309,-0.71132 1.69344,-0.35889c0.31035,0.35242 -0.49347,0.46173 -1.11832,1.01199z" fill="#ffffff" stroke="none" stroke-width="1"/><path d="M269.12469,296.11735c0,3.5273 -3.04119,6.38759 -6.79332,6.38759c-3.75214,0 -6.79309,-2.85908 -6.79309,-6.38759c0,-3.5273 3.04071,-5.16577 6.79309,-5.16577c3.75189,-0.00025 6.79332,1.63872 6.79332,5.16577z" fill="#ec1c2c" stroke="none" stroke-width="1"/><g stroke="none"><path d="M269.88541,296.04913c0,3.92283 -3.38161,7.10315 -7.55356,7.10315c-4.17122,0 -7.55308,-3.18032 -7.55308,-7.10315c0,-3.45713 2.62744,-5.01353 6.10642,-5.33501c0,0 1.09944,-0.14083 2.2183,-0.04589c3.80822,0.17725 6.78192,1.7038 6.78192,5.3809z" fill="#177d29" stroke-width="0.5"/><path d="M264.50573,292.879c-0.86635,0.04395 -1.69627,0.0658 -2.56432,0.16317c-0.57959,0.06508 -1.13805,0.07017 -1.56734,-0.36762c-0.09324,-0.09591 0.02865,-0.26126 0.1452,-0.18769c0.287,0.17992 0.57619,0.25276 0.86707,0.26685c0.01894,0.01554 1.03776,-0.11898 1.50299,-0.2666c0.56137,-0.15297 1.12324,-0.27923 1.68243,-0.09445c0.26734,0.08839 0.21562,0.47154 -0.06604,0.48635z" fill="none" stroke-width="1"/></g><path d="M259.0381,293.77901c-0.62521,0.55058 -0.83511,1.33396 -1.14546,0.98153c-0.31035,-0.35242 -0.05488,-1.08405 0.57034,-1.63462c0.62503,-0.55041 1.3831,-0.71132 1.69344,-0.35889c0.31035,0.35243 -0.49347,0.46173 -1.11832,1.01198z" fill="#ffffff" stroke="none" stroke-width="1"/><path d="M264.39565,291.84578c0,0 -1.19252,-0.13755 -1.19762,-0.05159c0,0 -0.22375,1.01424 -0.58286,0.87778l-0.40654,-0.98374c-0.48692,-0.18758 -1.07568,0.70373 -1.21943,0.44126c-0.06871,-0.12529 0.34637,-1.73116 -0.49788,-2.48168c-0.14471,-0.12796 0.94194,-1.30686 1.09661,-1.39986c0.7847,-0.06552 -0.35923,0.36317 0.07904,0.09996c0.14083,-0.08425 1.69094,0.71994 1.78637,0.84693c1.34225,1.7866 0.98334,2.46615 0.94231,2.65093z" fill="#e2c500" stroke="none" stroke-width="1"/><path d="M274.12469,170.61735c0,3.5273 -3.04119,6.3876 -6.79332,6.3876c-3.75214,0 -6.79309,-2.85908 -6.79309,-6.3876c0,-3.5273 3.04071,-5.16577 6.79309,-5.16577c3.75189,-0.00025 6.79332,1.63872 6.79332,5.16577z" fill="#ec1c2c" stroke="none" stroke-width="1"/><g stroke="none"><path d="M274.88541,170.54913c0,3.92283 -3.38161,7.10315 -7.55356,7.10315c-4.17122,0 -7.55308,-3.18032 -7.55308,-7.10315c0,-3.45712 2.62744,-5.01353 6.10642,-5.33501c0,0 1.09944,-0.14083 2.2183,-0.04589c3.80822,0.17725 6.78192,1.70379 6.78192,5.3809z" fill="#177d29" stroke-width="0.5"/><path d="M269.50573,167.379c-0.86635,0.04395 -1.69627,0.0658 -2.56432,0.16317c-0.57959,0.06508 -1.13805,0.07017 -1.56734,-0.36762c-0.09324,-0.09591 0.02865,-0.26126 0.1452,-0.18769c0.287,0.17992 0.57619,0.25276 0.86707,0.26685c0.01894,0.01554 1.03776,-0.11898 1.50299,-0.2666c0.56137,-0.15297 1.12324,-0.27923 1.68243,-0.09445c0.26734,0.08838 0.21562,0.47153 -0.06604,0.48635z" fill="none" stroke-width="1"/></g><path d="M264.0381,168.27901c-0.62521,0.55058 -0.83511,1.33396 -1.14546,0.98153c-0.31035,-0.35243 -0.05488,-1.08406 0.57033,-1.63462c0.62503,-0.55041 1.3831,-0.71132 1.69344,-0.35889c0.31035,0.35243 -0.49347,0.46173 -1.11832,1.01198z" fill="#ffffff" stroke="none" stroke-width="1"/><path d="M269.39565,166.34578c0,0 -1.19253,-0.13755 -1.19763,-0.05159c0,0 -0.22375,1.01424 -0.58286,0.87778l-0.40654,-0.98373c-0.48692,-0.18758 -1.07568,0.70373 -1.21943,0.44125c-0.06871,-0.12529 0.34637,-1.73115 -0.49788,-2.48168c-0.14471,-0.12796 0.94194,-1.30686 1.09661,-1.39986c0.78471,-0.06552 -0.35922,0.36317 0.07905,0.09996c0.14083,-0.08426 1.69094,0.71994 1.78636,0.84694c1.34225,1.7866 0.98334,2.46615 0.94231,2.65093z" fill="#e2c500" stroke="none" stroke-width="1"/><path d="M384.62469,205.61735c0,3.5273 -3.04119,6.3876 -6.79332,6.3876c-3.75214,0 -6.79309,-2.85908 -6.79309,-6.3876c0,-3.5273 3.04071,-5.16577 6.79309,-5.16577c3.75189,-0.00025 6.79332,1.63872 6.79332,5.16577z" fill="#ec1c2c" stroke="none" stroke-width="1"/><g stroke="none"><path d="M385.38541,205.54913c0,3.92283 -3.38161,7.10315 -7.55356,7.10315c-4.17122,0 -7.55308,-3.18032 -7.55308,-7.10315c0,-3.45712 2.62744,-5.01353 6.10642,-5.33501c0,0 1.09944,-0.14083 2.2183,-0.04589c3.80822,0.17725 6.78192,1.70379 6.78192,5.3809z" fill="#177d29" stroke-width="0.5"/><path d="M380.00573,202.379c-0.86635,0.04395 -1.69627,0.0658 -2.56432,0.16317c-0.57959,0.06508 -1.13805,0.07017 -1.56734,-0.36762c-0.09324,-0.09591 0.02865,-0.26126 0.1452,-0.18769c0.287,0.17992 0.57619,0.25276 0.86707,0.26685c0.01894,0.01554 1.03776,-0.11898 1.50299,-0.2666c0.56137,-0.15297 1.12324,-0.27923 1.68243,-0.09445c0.26734,0.08838 0.21562,0.47153 -0.06604,0.48635z" fill="none" stroke-width="1"/></g><path d="M374.53811,203.27901c-0.62522,0.55058 -0.83511,1.33396 -1.14546,0.98153c-0.31035,-0.35243 -0.05488,-1.08406 0.57034,-1.63462c0.62503,-0.55041 1.3831,-0.71132 1.69345,-0.35889c0.31035,0.35243 -0.49347,0.46173 -1.11832,1.01198z" fill="#ffffff" stroke="none" stroke-width="1"/><path d="M379.89565,201.34578c0,0 -1.19253,-0.13755 -1.19763,-0.05159c0,0 -0.22375,1.01424 -0.58286,0.87778l-0.40654,-0.98373c-0.48692,-0.18758 -1.07568,0.70373 -1.21943,0.44125c-0.06871,-0.12529 0.34637,-1.73115 -0.49788,-2.48168c-0.14471,-0.12796 0.94194,-1.30686 1.09661,-1.39986c0.78471,-0.06552 -0.35922,0.36317 0.07905,0.09996c0.14083,-0.08426 1.69094,0.71994 1.78636,0.84694c1.34225,1.7866 0.98334,2.46615 0.94231,2.65093z" fill="#e2c500" stroke="none" stroke-width="1"/><path d="M402.62469,283.11735c0,3.52729 -3.04119,6.3876 -6.79332,6.3876c-3.75214,0 -6.79309,-2.85909 -6.79309,-6.3876c0,-3.52729 3.04071,-5.16577 6.79309,-5.16577c3.75189,-0.00025 6.79332,1.63872 6.79332,5.16577z" fill="#ec1c2c" stroke="none" stroke-width="1"/><g stroke="none"><path d="M403.38541,283.04913c0,3.92283 -3.3816,7.10315 -7.55356,7.10315c-4.17123,0 -7.55308,-3.18032 -7.55308,-7.10315c0,-3.45712 2.62744,-5.01353 6.10642,-5.33501c0,0 1.09944,-0.14083 2.21831,-0.04589c3.80822,0.17725 6.78191,1.70379 6.78191,5.3809z" fill="#177d29" stroke-width="0.5"/><path d="M398.00573,279.879c-0.86634,0.04395 -1.69627,0.06581 -2.56431,0.16317c-0.57959,0.06507 -1.13805,0.07017 -1.56734,-0.36762c-0.09324,-0.09591 0.02865,-0.26126 0.1452,-0.18769c0.287,0.17992 0.57619,0.25276 0.86707,0.26684c0.01894,0.01554 1.03777,-0.11897 1.50299,-0.26661c0.56137,-0.15297 1.12323,-0.27923 1.68243,-0.09445c0.26734,0.08838 0.21562,0.47153 -0.06604,0.48634z" fill="none" stroke-width="1"/></g><path d="M392.53811,280.77901c-0.62522,0.55057 -0.83511,1.33396 -1.14546,0.98153c-0.31035,-0.35243 -0.05488,-1.08406 0.57034,-1.63463c0.62503,-0.55041 1.3831,-0.71132 1.69345,-0.35889c0.31035,0.35242 -0.49347,0.46173 -1.11832,1.01198z" fill="#ffffff" stroke="none" stroke-width="1"/><path d="M397.89565,278.84578c0,0 -1.19252,-0.13754 -1.19762,-0.05159c0,0 -0.22375,1.01423 -0.58286,0.87777l-0.40654,-0.98373c-0.48692,-0.18758 -1.07568,0.70373 -1.21943,0.44125c-0.06871,-0.12529 0.34637,-1.73115 -0.49788,-2.48168c-0.14471,-0.12796 0.94194,-1.30686 1.09661,-1.39986c0.7847,-0.06552 -0.35923,0.36317 0.07904,0.09996c0.14083,-0.08425 1.69094,0.71994 1.78637,0.84694c1.34225,1.78659 0.98334,2.46614 0.94231,2.65092z" fill="#e2c500" stroke="none" stroke-width="1"/><path d="M299.93513,246.25841c0,4.71006 -4.06095,8.52946 -9.07125,8.52946c-5.01029,0 -9.07092,-3.81778 -9.07092,-8.52946c0,-4.71006 4.06031,-6.89795 9.07092,-6.89795c5.00997,-0.00032 9.07125,2.18821 9.07125,6.89795z" fill="#ec1c2c" stroke="none" stroke-width="1"/><g stroke="none"><path d="M300.95093,246.16731c0,5.23823 -4.51552,9.48496 -10.08641,9.48496c-5.56991,0 -10.08576,-4.24674 -10.08576,-9.48496c0,-4.61636 3.50847,-6.69466 8.15401,-7.12394c0,0 1.4681,-0.18805 2.96215,-0.06128c5.08519,0.23669 9.05601,2.27511 9.05601,7.18522z" fill="#ae1f1f" stroke-width="0.5"/><path d="M293.76734,241.93419c-1.15685,0.05869 -2.26506,0.08787 -3.42417,0.21788c-0.77393,0.08689 -1.51966,0.0937 -2.09289,-0.49088c-0.1245,-0.12807 0.03826,-0.34887 0.19389,-0.25063c0.38324,0.24025 0.76939,0.33752 1.15782,0.35633c0.02529,0.02075 1.38575,-0.15887 2.00697,-0.356c0.74961,-0.20426 1.49988,-0.37286 2.24658,-0.12612c0.35697,0.11802 0.28791,0.62965 -0.08819,0.64943z" fill="none" stroke-width="1"/></g><path d="M286.46634,243.13599c-0.83486,0.73519 -1.11514,1.78125 -1.52955,1.31066c-0.41442,-0.4706 -0.07328,-1.44756 0.76158,-2.18274c0.83461,-0.73498 1.84687,-0.94983 2.26129,-0.47923c0.41442,0.4706 -0.65894,0.61656 -1.49331,1.35132z" fill="#ffffff" stroke="none" stroke-width="1"/><path d="M293.62036,240.5545c0,0 -1.59241,-0.18366 -1.59922,-0.06889c0,0 -0.29877,1.35432 -0.7783,1.17211l-0.54286,-1.3136c-0.6502,-0.25048 -1.43638,0.93971 -1.62832,0.58922c-0.09176,-0.1673 0.46252,-2.31164 -0.66482,-3.31383c-0.19324,-0.17087 1.25778,-1.74507 1.46431,-1.86925c1.04783,-0.08749 -0.47968,0.48494 0.10555,0.13348c0.18805,-0.11251 2.25795,0.96136 2.38537,1.13093c1.79233,2.38567 1.31307,3.29309 1.25828,3.53982z" fill="#e2c500" stroke="none" stroke-width="1"/></g></g></svg>