<svg version="1.1" xmlns="http://www.w3.org/2000/svg" xmlns:xlink="http://www.w3.org/1999/xlink" width="190.17736" height="302.78876" viewBox="0,0,190.17736,302.78876"><g transform="translate(-226.07689,-84.96535)"><g data-paper-data="{&quot;isPaintingLayer&quot;:true}" fill-rule="nonzero" stroke-linecap="butt" stroke-linejoin="miter" stroke-miterlimit="10" stroke-dasharray="" stroke-dashoffset="0" style="mix-blend-mode: normal"><g stroke="none" stroke-width="0"><path d="M263.71297,308.16985v-14.69127h11.65149v14.69127z" fill="#af4a05"/><path d="M307.20779,315.18219l-24.12133,17.77135l-5.43014,-7.37041l24.12134,-17.77134z" fill="#af4a05"/><path d="M246.80684,380.11197l21.70035,-20.65803l6.31218,6.63067l-21.70035,20.65803z" fill="#af4a05"/><path d="M250.11306,369.47236v-65.19285h33.01255v65.19285z" fill="#ed731a"/><path d="M258.43555,307.05368v-14.69126h11.65149v14.69126z" fill="#ed731a"/><path d="M279.80669,337.93693l28.60242,-8.91969l2.72546,8.73963l-28.60242,8.91969z" fill="#ed731a"/><path d="M282.84593,387.75411l-21.16516,-21.20603l6.47962,-6.46713l21.16515,21.20603z" fill="#ed731a"/><path d="M271.47412,337.56948v-25.24489h7.76766v25.24489z" fill="#ffffff"/></g><g fill="#000000" stroke="none" stroke-width="0.5"><path d="M305.23023,308.39425c-0.01018,-0.17419 -0.02605,-0.34871 -0.04829,-0.52357c-0.3304,-2.88545 0.29381,-5.65637 -0.01159,-8.5757c0.58136,-2.60187 0.1546,-5.62169 0.5835,-8.43447c-0.25511,-2.91766 -0.47726,-5.76049 0.74056,-8.56147c0.77813,-2.52767 7.50952,-0.89343 9.89684,-0.69245c3.4797,0.29338 6.97124,0.96602 10.26041,1.9589c1.5708,0.47455 6.95224,1.02138 7.51422,2.45986c0.19972,0.51123 -0.25841,1.48776 -0.20742,2.0819c-0.21108,2.84132 -1.56966,5.60332 -2.10859,8.4158c-0.55333,2.76915 -0.93971,5.64849 -1.47984,8.46707c-0.54991,2.83819 0.08093,5.76218 -0.25388,8.58171c-0.34058,2.86125 -0.17043,5.73158 -0.45992,8.59995c-0.28434,2.81735 -0.19114,5.75468 -0.09409,8.58332c0.0172,0.50111 0.28092,2.25877 -0.2186,2.61859c-0.16312,0.11751 -1.35476,0.09674 -1.62347,0.12542c-1.98684,0.21208 -3.97904,0.18463 -5.97743,0.36292c-3.35778,0.29955 -6.97138,0.82798 -10.41233,0.79271c-3.52906,-0.03759 -6.93802,0.23844 -10.46798,0.13484c-0.95188,-0.04148 -3.5971,0.02632 -3.98237,-0.99631c-0.09418,-0.24996 0.40976,-1.02838 0.51875,-1.28447c0.55088,-1.29461 0.7305,-2.61583 1.31189,-3.91036c1.2142,-2.67591 1.95885,-5.47592 2.53219,-8.29313c0.64559,-2.78886 1.70907,-5.59944 2.84428,-8.28227c0.49658,-1.16642 0.84154,-2.39034 1.14315,-3.62883zM304.7376,310.85856c-0.10487,0.32334 -0.21726,0.64397 -0.3392,0.9611c-0.06326,0.14414 -0.12165,0.28974 -0.17506,0.43659c-0.00457,0.01093 -0.00916,0.02185 -0.01375,0.03278c-1.1276,2.66458 -2.18308,5.4503 -2.82437,8.21971c-0.57796,2.8411 -1.33134,5.66565 -2.55585,8.36427c-0.52252,1.13835 -0.72117,2.3662 -1.1469,3.50572c-0.08996,0.2408 -0.74691,1.23174 -0.67454,1.42469c0.28005,0.74674 2.84526,0.67765 3.52682,0.70737c3.52509,0.10334 6.92687,-0.16998 10.45203,-0.13521c3.42058,0.03505 7.01506,-0.49264 10.35207,-0.79034c1.81836,-0.16222 3.67003,-0.07805 5.46756,-0.3002c0.29585,-0.03656 1.71447,0.00264 1.86367,-0.09294c0.26669,-0.17084 0.05335,-1.97758 0.04247,-2.2942c-0.09755,-2.84322 -0.1902,-5.79709 0.0956,-8.62877c0.28969,-2.87032 0.12136,-5.74238 0.46058,-8.60588c0.33579,-2.82777 -0.28755,-5.75797 0.25765,-8.60598c0.54489,-2.81563 0.95544,-5.69878 1.47995,-8.46764c0.54768,-2.78404 1.90837,-5.53536 2.10236,-8.34859c-0.04815,-0.54469 0.40011,-1.51328 0.2308,-1.9604c-0.21063,-0.55626 -1.41862,-0.69367 -1.95752,-0.82127c-1.75839,-0.41639 -3.5353,-0.85859 -5.25278,-1.37745c-3.24889,-0.98234 -6.70122,-1.64595 -10.1388,-1.93578c-2.08222,-0.17582 -8.71106,-1.71859 -9.36738,0.40355c-1.20228,2.77495 -0.95546,5.5643 -0.71911,8.45291c-0.41568,2.8314 -0.09768,5.81241 -0.58368,8.4391c0.24127,2.10579 -0.03482,4.12633 -0.07998,6.17195c-0.3287,1.25843 -0.30035,2.58827 0.13344,3.88286c-0.01526,0.26293 -0.04059,0.52548 -0.07342,0.78756c-0.23685,0.31513 -0.44719,0.64258 -0.62982,0.97982c0.02371,-0.13494 0.04622,-0.27006 0.06718,-0.40535z"/><path d="M304.53251,311.18966c0.17721,-0.33918 0.38094,-0.67295 0.61272,-0.99062c0.0286,-0.26242 0.04893,-0.52932 0.05995,-0.79239c-0.45456,-1.28978 -0.50089,-2.6389 -0.19246,-3.90078c0.01228,-2.04591 0.27035,-4.08551 -0.00475,-6.1885c0.44373,-2.63173 0.09065,-5.61533 0.46077,-8.45101c-0.28278,-2.8858 -0.568,-5.67398 0.58958,-8.46173c0.62215,-2.12907 7.28946,-0.65955 9.37432,-0.50632c3.44195,0.25256 6.92041,0.88125 10.1848,1.8283c1.72568,0.5002 3.51709,0.92604 5.28204,1.32333c0.54089,0.12175 1.75378,0.24747 1.97335,0.80142c0.17648,0.44523 -0.25464,1.41947 -0.19772,1.96359c-0.14874,2.81509 -1.45766,5.58631 -1.96054,8.37603c-0.47994,2.77429 -0.83315,5.67708 -1.33274,8.49836c-0.49937,2.85367 0.17006,5.80405 -0.12023,8.6352c-0.29316,2.86692 -0.09194,5.75274 -0.33545,8.62594c-0.24024,2.83454 -0.10954,5.79261 0.03371,8.63454c0.01596,0.31646 0.25651,2.12151 -0.00741,2.29523c-0.14766,0.09718 -1.56921,0.07427 -1.86445,0.11404c-1.7938,0.24161 -3.65465,0.17967 -5.47025,0.36159c-3.33194,0.33384 -6.93426,0.90137 -10.35511,0.90338c-3.52541,0.00343 -6.93733,0.31045 -10.46376,0.24531c-0.68198,-0.02234 -3.25042,0.0727 -3.54245,-0.67095c-0.07546,-0.19216 0.56513,-1.1903 0.65121,-1.43205c0.40736,-1.14403 0.58453,-2.37477 1.0887,-3.51869c1.18101,-2.71166 1.88198,-5.54838 2.41421,-8.3955c0.59672,-2.77611 1.59472,-5.58747 2.67936,-8.26403c0.00441,-0.01098 0.00877,-0.02205 0.01316,-0.03303c0.05105,-0.14743 0.10635,-0.29515 0.16728,-0.43997c0.11683,-0.31843 0.22255,-0.64407 0.32221,-0.96852c-0.01878,0.1355 -0.03848,0.27263 -0.06001,0.40781z" data-paper-data="{&quot;noHover&quot;:false,&quot;origItem&quot;:[&quot;Path&quot;,{&quot;applyMatrix&quot;:true,&quot;segments&quot;:[[[206.22528,311.10278],[-0.076,0.14772],[-0.23313,0.33435]],[[205.50647,312.08719],[0.2466,-0.3214],[-0.11945,0.1434]],[[205.16023,312.52721],[0.11133,-0.14989],[-0.00884,0.01095]],[[205.13368,312.56003],[0.00886,-0.01093],[-2.16874,2.66525]],[[199.05819,321.00527],[1.75534,-2.95141],[-1.72565,3.05512]],[[193.17492,329.70773],[2.27399,-2.67111],[-0.96485,1.12469]],[[190.63795,333.32935],[0.87437,-1.1591],[-0.18477,0.24494]],[[189.41105,334.72993],[0.0123,-0.24563],[-0.0476,0.95059]],[[192.43121,336.74476],[-0.62818,-0.26689],[3.26993,1.32272]],[[202.31051,340.1611],[-3.29854,-1.24425],[3.20014,1.20884]],[[212.36854,342.79328],[-3.2601,-0.79933],[1.77645,0.43556]],[[217.63201,344.3177],[-1.78182,-0.35984],[0.29327,0.05923]],[[219.42221,344.84806],[-0.18001,0.05845],[0.32174,-0.10447]],[[220.41698,342.2361],[-0.12157,0.36618],[1.09168,-3.28836]],[[224.09815,332.39022],[-1.44715,3.14418],[1.46689,-3.18706]],[[228.11281,322.69526],[-1.51061,3.16233],[1.49251,-3.12261]],[[231.93678,312.93084],[-1.69774,3.07423],[1.68398,-3.03725]],[[236.85193,303.74244],[-1.64535,2.99067],[1.67345,-3.00014]],[[242.30248,294.90297],[-1.35319,3.15442],[0.18144,-0.64004]],[[243.33531,292.73749],[-0.02697,0.56971],[0.03356,-0.7088]],[[241.83741,291.12844],[0.45334,0.33021],[-1.47927,-1.07748]],[[237.47404,287.75677],[1.39817,1.18082],[-2.64453,-2.23467]],[[228.75106,282.07649],[3.11009,1.50633],[-1.88374,-0.91271]],[[219.77944,279.33794],[1.50008,-2.20526],[-2.28487,2.76608]],[[215.58548,288.76945],[0.98011,-3.38775],[-1.5691,3.09947]],[[211.52455,298.23142],[1.54999,-2.84108],[-0.64969,2.49322]],[[208.8806,305.26997],[0.89383,-2.32645],[-0.83268,1.3284]],[[207.38995,309.7608],[0.13113,-1.63031],[-0.12377,0.2958]],[[206.99317,310.63735],[0.13993,-0.28883],[-0.35376,0.27984]],[[205.99345,311.54388],[0.31201,-0.32368],[0.07845,-0.14639]]],&quot;closed&quot;:true}]}"/></g><path d="M313.62971,85.1387c0,0 9.08928,52.42006 37.63148,74.1492c0,0 -4.06399,2.28784 -10.77142,-0.68504c0,0 11.13994,31.38122 34.09603,42.67863c0,0 -10.24011,2.51331 -20.2185,0.85906c0,0 16.77676,22.56475 41.35115,28.84839c0,0 -13.28365,5.31327 -22.57559,5.54093c0,0 21.96459,19.23593 42.85436,25.91155c0,0 -37.60775,30.83398 -103.35223,31.40634c-0.38863,-0.01916 -0.7805,-0.01967 -1.17377,-0.00083c-0.05064,0.00244 -0.10131,0.00517 -0.15199,0.00824c-24.58058,0.06095 -53.04082,-4.11679 -84.89417,-15.67203c0,0 20.68696,-8.41385 39.41818,-23.91434c0,0 -25.73286,-7.15175 -28.01849,-11.7223c0,0 30.53053,-15.70433 34.32842,-25.87305c0,0 -15.02816,1.6381 -19.73247,0.74063c0,0 29.28574,-27.71396 35.45449,-55.39719c0,0 -13.06514,2.18193 -16.91144,0.04653c-0.00096,0.00023 21.86549,-20.76808 42.66591,-76.9247z" fill="#000000" stroke="#000000" stroke-width="0.25"/></g></g></svg>